<svg width="161" height="49" viewBox="0 0 161 49" fill="none" xmlns="http://www.w3.org/2000/svg">
<path d="M20 22.7273L25 18M25 18L30 22.7273M25 18V31" stroke="white" stroke-width="1.2"/>
<path d="M38.876 29V20.6H41.984C42.568 20.6 43.056 20.696 43.448 20.888C43.84 21.072 44.132 21.328 44.324 21.656C44.524 21.976 44.624 22.34 44.624 22.748C44.624 23.172 44.532 23.528 44.348 23.816C44.164 24.104 43.92 24.328 43.616 24.488C43.32 24.64 43 24.728 42.656 24.752L42.824 24.632C43.192 24.64 43.528 24.74 43.832 24.932C44.136 25.116 44.376 25.364 44.552 25.676C44.728 25.988 44.816 26.332 44.816 26.708C44.816 27.14 44.712 27.532 44.504 27.884C44.296 28.228 43.988 28.5 43.58 28.7C43.172 28.9 42.672 29 42.08 29H38.876ZM40.076 28.004H41.924C42.452 28.004 42.86 27.884 43.148 27.644C43.444 27.396 43.592 27.048 43.592 26.6C43.592 26.16 43.44 25.808 43.136 25.544C42.84 25.28 42.428 25.148 41.9 25.148H40.076V28.004ZM40.076 24.224H41.852C42.356 24.224 42.74 24.108 43.004 23.876C43.268 23.636 43.4 23.308 43.4 22.892C43.4 22.492 43.268 22.176 43.004 21.944C42.74 21.704 42.344 21.584 41.816 21.584H40.076V24.224ZM47.9511 29.144C47.4551 29.144 47.0431 29.06 46.7151 28.892C46.3871 28.724 46.1431 28.5 45.9831 28.22C45.8231 27.932 45.7431 27.624 45.7431 27.296C45.7431 26.896 45.8471 26.556 46.0551 26.276C46.2631 25.988 46.5591 25.768 46.9431 25.616C47.3271 25.464 47.7871 25.388 48.3231 25.388H49.8951C49.8951 25.036 49.8431 24.744 49.7391 24.512C49.6351 24.28 49.4791 24.108 49.2711 23.996C49.0711 23.876 48.8151 23.816 48.5031 23.816C48.1431 23.816 47.8351 23.904 47.5791 24.08C47.3231 24.248 47.1631 24.5 47.0991 24.836H45.8991C45.9471 24.412 46.0911 24.052 46.3311 23.756C46.5791 23.452 46.8951 23.22 47.2791 23.06C47.6631 22.892 48.0711 22.808 48.5031 22.808C49.0711 22.808 49.5471 22.908 49.9311 23.108C50.3151 23.308 50.6031 23.592 50.7951 23.96C50.9951 24.32 51.0951 24.752 51.0951 25.256V29H50.0511L49.9551 27.98C49.8671 28.14 49.7631 28.292 49.6431 28.436C49.5231 28.58 49.3791 28.704 49.2111 28.808C49.0511 28.912 48.8631 28.992 48.6471 29.048C48.4391 29.112 48.2071 29.144 47.9511 29.144ZM48.1791 28.172C48.4351 28.172 48.6671 28.12 48.8751 28.016C49.0831 27.912 49.2591 27.772 49.4031 27.596C49.5551 27.412 49.6671 27.208 49.7391 26.984C49.8191 26.752 49.8631 26.516 49.8711 26.276V26.24H48.4431C48.0991 26.24 47.8191 26.284 47.6031 26.372C47.3951 26.452 47.2431 26.564 47.1471 26.708C47.0511 26.852 47.0031 27.02 47.0031 27.212C47.0031 27.412 47.0471 27.584 47.1351 27.728C47.2311 27.864 47.3671 27.972 47.5431 28.052C47.7191 28.132 47.9311 28.172 48.1791 28.172ZM55.1828 29.144C54.5988 29.144 54.0788 29.012 53.6228 28.748C53.1668 28.476 52.8068 28.104 52.5428 27.632C52.2868 27.16 52.1588 26.612 52.1588 25.988C52.1588 25.356 52.2868 24.804 52.5428 24.332C52.8068 23.852 53.1668 23.48 53.6228 23.216C54.0788 22.944 54.5988 22.808 55.1828 22.808C55.9188 22.808 56.5348 23 57.0308 23.384C57.5268 23.768 57.8428 24.288 57.9788 24.944H56.7308C56.6508 24.592 56.4668 24.32 56.1788 24.128C55.8988 23.936 55.5628 23.84 55.1708 23.84C54.8508 23.84 54.5548 23.924 54.2828 24.092C54.0108 24.252 53.7908 24.492 53.6228 24.812C53.4628 25.124 53.3828 25.512 53.3828 25.976C53.3828 26.32 53.4308 26.628 53.5268 26.9C53.6228 27.164 53.7508 27.388 53.9108 27.572C54.0788 27.756 54.2708 27.896 54.4868 27.992C54.7028 28.08 54.9308 28.124 55.1708 28.124C55.4348 28.124 55.6708 28.084 55.8788 28.004C56.0948 27.916 56.2748 27.788 56.4188 27.62C56.5708 27.452 56.6748 27.252 56.7308 27.02H57.9788C57.8428 27.66 57.5268 28.176 57.0308 28.568C56.5348 28.952 55.9188 29.144 55.1828 29.144ZM62.9469 29L60.1629 25.688L62.6829 22.952H64.1349L61.1349 26.156V25.256L64.4589 29H62.9469ZM59.1429 29V20.36H60.3429V29H59.1429ZM70.5453 29C70.1693 29 69.8413 28.94 69.5613 28.82C69.2813 28.7 69.0653 28.5 68.9133 28.22C68.7613 27.94 68.6853 27.56 68.6853 27.08V23.972H67.6413V22.952H68.6853L68.8293 21.44H69.8853V22.952H71.6013V23.972H69.8853V27.092C69.8853 27.436 69.9573 27.672 70.1013 27.8C70.2453 27.92 70.4933 27.98 70.8453 27.98H71.5413V29H70.5453ZM75.2805 29.144C74.7125 29.144 74.2005 29.012 73.7445 28.748C73.2965 28.484 72.9405 28.116 72.6765 27.644C72.4205 27.164 72.2925 26.612 72.2925 25.988C72.2925 25.348 72.4245 24.792 72.6885 24.32C72.9525 23.84 73.3125 23.468 73.7685 23.204C74.2245 22.94 74.7365 22.808 75.3045 22.808C75.8805 22.808 76.3925 22.94 76.8405 23.204C77.2885 23.468 77.6405 23.836 77.8965 24.308C78.1605 24.78 78.2925 25.336 78.2925 25.976C78.2925 26.616 78.1605 27.172 77.8965 27.644C77.6405 28.116 77.2845 28.484 76.8285 28.748C76.3725 29.012 75.8565 29.144 75.2805 29.144ZM75.2805 28.112C75.6085 28.112 75.9045 28.032 76.1685 27.872C76.4405 27.712 76.6565 27.476 76.8165 27.164C76.9845 26.844 77.0685 26.448 77.0685 25.976C77.0685 25.504 76.9885 25.112 76.8285 24.8C76.6685 24.48 76.4525 24.24 76.1805 24.08C75.9165 23.92 75.6245 23.84 75.3045 23.84C74.9845 23.84 74.6885 23.92 74.4165 24.08C74.1445 24.24 73.9245 24.48 73.7565 24.8C73.5965 25.112 73.5165 25.504 73.5165 25.976C73.5165 26.448 73.5965 26.844 73.7565 27.164C73.9245 27.476 74.1405 27.712 74.4045 27.872C74.6765 28.032 74.9685 28.112 75.2805 28.112ZM84.2984 29.144C83.8024 29.144 83.3904 29.06 83.0624 28.892C82.7344 28.724 82.4904 28.5 82.3304 28.22C82.1704 27.932 82.0904 27.624 82.0904 27.296C82.0904 26.896 82.1944 26.556 82.4024 26.276C82.6104 25.988 82.9064 25.768 83.2904 25.616C83.6744 25.464 84.1344 25.388 84.6704 25.388H86.2424C86.2424 25.036 86.1904 24.744 86.0864 24.512C85.9824 24.28 85.8264 24.108 85.6184 23.996C85.4184 23.876 85.1624 23.816 84.8504 23.816C84.4904 23.816 84.1824 23.904 83.9264 24.08C83.6704 24.248 83.5104 24.5 83.4464 24.836H82.2464C82.2944 24.412 82.4384 24.052 82.6784 23.756C82.9264 23.452 83.2424 23.22 83.6264 23.06C84.0104 22.892 84.4184 22.808 84.8504 22.808C85.4184 22.808 85.8944 22.908 86.2784 23.108C86.6624 23.308 86.9504 23.592 87.1424 23.96C87.3424 24.32 87.4424 24.752 87.4424 25.256V29H86.3984L86.3024 27.98C86.2144 28.14 86.1104 28.292 85.9904 28.436C85.8704 28.58 85.7264 28.704 85.5584 28.808C85.3984 28.912 85.2104 28.992 84.9944 29.048C84.7864 29.112 84.5544 29.144 84.2984 29.144ZM84.5264 28.172C84.7824 28.172 85.0144 28.12 85.2224 28.016C85.4304 27.912 85.6064 27.772 85.7504 27.596C85.9024 27.412 86.0144 27.208 86.0864 26.984C86.1664 26.752 86.2104 26.516 86.2184 26.276V26.24H84.7904C84.4464 26.24 84.1664 26.284 83.9504 26.372C83.7424 26.452 83.5904 26.564 83.4944 26.708C83.3984 26.852 83.3504 27.02 83.3504 27.212C83.3504 27.412 83.3944 27.584 83.4824 27.728C83.5784 27.864 83.7144 27.972 83.8904 28.052C84.0664 28.132 84.2784 28.172 84.5264 28.172ZM88.7341 29V20.36H89.9341V29H88.7341ZM91.3418 29V20.36H92.5418V29H91.3418ZM99.5757 29.144C98.9917 29.144 98.4717 29.012 98.0157 28.748C97.5597 28.476 97.1997 28.104 96.9357 27.632C96.6797 27.16 96.5517 26.612 96.5517 25.988C96.5517 25.356 96.6797 24.804 96.9357 24.332C97.1997 23.852 97.5597 23.48 98.0157 23.216C98.4717 22.944 98.9917 22.808 99.5757 22.808C100.312 22.808 100.928 23 101.424 23.384C101.92 23.768 102.236 24.288 102.372 24.944H101.124C101.044 24.592 100.86 24.32 100.572 24.128C100.292 23.936 99.9557 23.84 99.5637 23.84C99.2437 23.84 98.9477 23.924 98.6757 24.092C98.4037 24.252 98.1837 24.492 98.0157 24.812C97.8557 25.124 97.7757 25.512 97.7757 25.976C97.7757 26.32 97.8237 26.628 97.9197 26.9C98.0157 27.164 98.1437 27.388 98.3037 27.572C98.4717 27.756 98.6637 27.896 98.8797 27.992C99.0957 28.08 99.3237 28.124 99.5637 28.124C99.8277 28.124 100.064 28.084 100.272 28.004C100.488 27.916 100.668 27.788 100.812 27.62C100.964 27.452 101.068 27.252 101.124 27.02H102.372C102.236 27.66 101.92 28.176 101.424 28.568C100.928 28.952 100.312 29.144 99.5757 29.144ZM103.536 29V20.36H104.736V23.936C104.936 23.584 105.212 23.308 105.564 23.108C105.924 22.908 106.32 22.808 106.752 22.808C107.232 22.808 107.644 22.908 107.988 23.108C108.332 23.3 108.596 23.592 108.78 23.984C108.964 24.368 109.056 24.852 109.056 25.436V29H107.868V25.568C107.868 25 107.748 24.572 107.508 24.284C107.268 23.988 106.912 23.84 106.44 23.84C106.12 23.84 105.832 23.916 105.576 24.068C105.32 24.22 105.116 24.444 104.964 24.74C104.812 25.028 104.736 25.38 104.736 25.796V29H103.536ZM112.355 29.144C111.859 29.144 111.447 29.06 111.119 28.892C110.791 28.724 110.547 28.5 110.387 28.22C110.227 27.932 110.147 27.624 110.147 27.296C110.147 26.896 110.251 26.556 110.459 26.276C110.667 25.988 110.963 25.768 111.347 25.616C111.731 25.464 112.191 25.388 112.727 25.388H114.299C114.299 25.036 114.247 24.744 114.143 24.512C114.039 24.28 113.883 24.108 113.675 23.996C113.475 23.876 113.219 23.816 112.907 23.816C112.547 23.816 112.239 23.904 111.983 24.08C111.727 24.248 111.567 24.5 111.503 24.836H110.303C110.351 24.412 110.495 24.052 110.735 23.756C110.983 23.452 111.299 23.22 111.683 23.06C112.067 22.892 112.475 22.808 112.907 22.808C113.475 22.808 113.951 22.908 114.335 23.108C114.719 23.308 115.007 23.592 115.199 23.96C115.399 24.32 115.499 24.752 115.499 25.256V29H114.455L114.359 27.98C114.271 28.14 114.167 28.292 114.047 28.436C113.927 28.58 113.783 28.704 113.615 28.808C113.455 28.912 113.267 28.992 113.051 29.048C112.843 29.112 112.611 29.144 112.355 29.144ZM112.583 28.172C112.839 28.172 113.071 28.12 113.279 28.016C113.487 27.912 113.663 27.772 113.807 27.596C113.959 27.412 114.071 27.208 114.143 26.984C114.223 26.752 114.267 26.516 114.275 26.276V26.24H112.847C112.503 26.24 112.223 26.284 112.007 26.372C111.799 26.452 111.647 26.564 111.551 26.708C111.455 26.852 111.407 27.02 111.407 27.212C111.407 27.412 111.451 27.584 111.539 27.728C111.635 27.864 111.771 27.972 111.947 28.052C112.123 28.132 112.335 28.172 112.583 28.172ZM116.79 31.64V22.952H117.87L117.99 23.888C118.118 23.704 118.278 23.532 118.47 23.372C118.662 23.204 118.89 23.068 119.154 22.964C119.426 22.86 119.742 22.808 120.102 22.808C120.678 22.808 121.182 22.948 121.614 23.228C122.054 23.508 122.394 23.888 122.634 24.368C122.882 24.84 123.006 25.38 123.006 25.988C123.006 26.596 122.882 27.14 122.634 27.62C122.386 28.092 122.042 28.464 121.602 28.736C121.17 29.008 120.666 29.144 120.09 29.144C119.618 29.144 119.202 29.052 118.842 28.868C118.482 28.676 118.198 28.412 117.99 28.076V31.64H116.79ZM119.898 28.1C120.266 28.1 120.59 28.012 120.87 27.836C121.158 27.66 121.382 27.412 121.542 27.092C121.71 26.772 121.794 26.4 121.794 25.976C121.794 25.552 121.71 25.184 121.542 24.872C121.382 24.552 121.158 24.304 120.87 24.128C120.59 23.944 120.266 23.852 119.898 23.852C119.522 23.852 119.19 23.944 118.902 24.128C118.622 24.304 118.402 24.552 118.242 24.872C118.082 25.184 118.002 25.552 118.002 25.976C118.002 26.4 118.082 26.772 118.242 27.092C118.402 27.412 118.622 27.66 118.902 27.836C119.19 28.012 119.522 28.1 119.898 28.1ZM126.417 29C126.041 29 125.713 28.94 125.433 28.82C125.153 28.7 124.937 28.5 124.785 28.22C124.633 27.94 124.557 27.56 124.557 27.08V23.972H123.513V22.952H124.557L124.701 21.44H125.757V22.952H127.473V23.972H125.757V27.092C125.757 27.436 125.829 27.672 125.973 27.8C126.117 27.92 126.365 27.98 126.717 27.98H127.413V29H126.417ZM131.128 29.144C130.552 29.144 130.04 29.012 129.592 28.748C129.144 28.484 128.792 28.116 128.536 27.644C128.288 27.172 128.164 26.624 128.164 26C128.164 25.36 128.288 24.804 128.536 24.332C128.792 23.852 129.144 23.48 129.592 23.216C130.04 22.944 130.56 22.808 131.152 22.808C131.744 22.808 132.252 22.94 132.676 23.204C133.1 23.468 133.428 23.82 133.66 24.26C133.892 24.692 134.008 25.172 134.008 25.7C134.008 25.78 134.004 25.868 133.996 25.964C133.996 26.052 133.992 26.152 133.984 26.264H129.04V25.412H132.808C132.784 24.908 132.616 24.516 132.304 24.236C131.992 23.948 131.604 23.804 131.14 23.804C130.812 23.804 130.512 23.88 130.24 24.032C129.968 24.176 129.748 24.392 129.58 24.68C129.42 24.96 129.34 25.316 129.34 25.748V26.084C129.34 26.532 129.42 26.912 129.58 27.224C129.748 27.528 129.968 27.76 130.24 27.92C130.512 28.072 130.808 28.148 131.128 28.148C131.512 28.148 131.828 28.064 132.076 27.896C132.324 27.728 132.508 27.5 132.628 27.212H133.828C133.724 27.58 133.548 27.912 133.3 28.208C133.052 28.496 132.744 28.724 132.376 28.892C132.016 29.06 131.6 29.144 131.128 29.144ZM135.101 29V22.952H136.181L136.289 24.092C136.425 23.82 136.601 23.592 136.817 23.408C137.033 23.216 137.285 23.068 137.573 22.964C137.869 22.86 138.205 22.808 138.581 22.808V24.08H138.149C137.901 24.08 137.665 24.112 137.441 24.176C137.217 24.232 137.017 24.332 136.841 24.476C136.673 24.62 136.541 24.816 136.445 25.064C136.349 25.312 136.301 25.62 136.301 25.988V29H135.101ZM141.784 29.144C141.272 29.144 140.824 29.06 140.44 28.892C140.056 28.724 139.752 28.488 139.528 28.184C139.304 27.88 139.168 27.524 139.12 27.116H140.344C140.384 27.308 140.46 27.484 140.572 27.644C140.692 27.804 140.852 27.932 141.052 28.028C141.26 28.124 141.504 28.172 141.784 28.172C142.048 28.172 142.264 28.136 142.432 28.064C142.608 27.984 142.736 27.88 142.816 27.752C142.896 27.616 142.936 27.472 142.936 27.32C142.936 27.096 142.88 26.928 142.768 26.816C142.664 26.696 142.504 26.604 142.288 26.54C142.08 26.468 141.828 26.404 141.532 26.348C141.252 26.3 140.98 26.236 140.716 26.156C140.46 26.068 140.228 25.96 140.02 25.832C139.82 25.704 139.66 25.544 139.54 25.352C139.42 25.152 139.36 24.908 139.36 24.62C139.36 24.276 139.452 23.968 139.636 23.696C139.82 23.416 140.08 23.2 140.416 23.048C140.76 22.888 141.164 22.808 141.628 22.808C142.3 22.808 142.84 22.968 143.248 23.288C143.656 23.608 143.896 24.06 143.968 24.644H142.804C142.772 24.372 142.652 24.164 142.444 24.02C142.236 23.868 141.96 23.792 141.616 23.792C141.272 23.792 141.008 23.86 140.824 23.996C140.64 24.132 140.548 24.312 140.548 24.536C140.548 24.68 140.6 24.808 140.704 24.92C140.808 25.032 140.96 25.128 141.16 25.208C141.368 25.28 141.62 25.348 141.916 25.412C142.34 25.492 142.72 25.592 143.056 25.712C143.392 25.832 143.66 26.008 143.86 26.24C144.06 26.472 144.16 26.804 144.16 27.236C144.168 27.612 144.072 27.944 143.872 28.232C143.68 28.52 143.404 28.744 143.044 28.904C142.692 29.064 142.272 29.144 141.784 29.144Z" fill="white"/>
</svg>
