<svg width="152" height="81" viewBox="0 0 152 81" fill="none" xmlns="http://www.w3.org/2000/svg">
<path d="M49.7931 0V2.6129H34.069V5.22581H28.8276V7.83871H31.4483V15.6774H28.8276V10.4516H20.9655V13.0645H23.5862V15.6774H20.9655V13.0645H2.62069V15.6774H0V18.2903H2.62069V23.5161H7.86207V20.9032H13.1034V23.5161H15.7241V26.129H18.3448V28.7419H20.9655V36.5806H23.5862V41.8064H28.8276V44.4194H34.069V47.0323H36.6897V49.6452H39.3103V52.2581H36.6897V57.4839H39.3103V62.7097H41.931V70.5484H39.3103V81H41.931V78.3871H44.5517V73.1613H47.1724V70.5484H49.7931V67.9355H52.4138V65.3226H55.0345V60.0968H57.6552V54.871H49.7931V52.2581H47.1724V49.6452H41.931V47.0323H39.3103V44.4194H36.6897V41.8064H31.4483V39.1936H39.3103V36.5806H41.931V31.3548H47.1724V28.7419H52.4138V26.129H49.7931V23.5161H47.1724V20.9032H41.931V23.5161H34.069V18.2903H39.3103V15.6774H41.931V18.2903H47.1724V15.6774H44.5517V13.0645H39.3103V7.83871H41.931V5.22581H47.1724V7.83871H49.7931V15.6774H52.4138V18.2903H57.6552V13.0645H60.2759V10.4516H62.8966V5.22581H60.2759V2.6129H57.6552V0H49.7931ZM60.2759 13.0645V15.6774H65.5172V13.0645H60.2759ZM78.6207 0V5.22581H81.2414V2.6129H83.8621V0H78.6207ZM110.069 5.22581V7.83871H102.207V10.4516H99.5862V13.0645H89.1034V10.4516H78.6207V13.0645H76V15.6774H73.3793V18.2903H76V23.5161H73.3793V20.9032H70.7586V18.2903H68.1379V23.5161H70.7586V28.7419H83.8621V26.129H89.1034V28.7419H83.8621V31.3548H86.4828V33.9677H76V31.3548H70.7586V28.7419H68.1379V33.9677H65.5172V39.1936H62.8966V44.4194H65.5172V47.0323H76V57.4839H78.6207V65.3226H83.8621V62.7097H86.4828V57.4839H89.1034V49.6452H91.7241V47.0323H94.3448V44.4194H91.7241V41.8064H96.9655V36.5806H102V37H102.5V38H101V39H101.5V39.5H102V40.5H102.5V40L103 39.5H103.5L104.828 44.4194H106.5L107.448 41.8064L108 40L110.069 39.1936H112.69V41.8064H115.31V47.0323H117.931V44.4194H120.552V39.1936H123.172V36.5806H125.793V31.3548H128.414V28.7419H131.034V26.129H133.655V18.2903H141.517V23.5161H144.138V18.2903H149.379V15.6774H152V10.4516H138.897V7.83871H133.655V10.4516H128.414V7.83871H123.172V5.22581H110.069ZM133.655 26.129V31.3548H131.034V33.9677H136.276V26.129H133.655ZM115.31 47.0323H112.69V49.6452H115.31V47.0323ZM115.31 49.6452V52.2581H117.931V54.871H120.552V52.2581H125.793V49.6452H123.172V47.0323H120.552V49.6452H115.31ZM78.6207 15.6774H81.2414V20.9032H78.6207V15.6774ZM86.4828 36.5806H89.1034V39.1936H86.4828V36.5806ZM125.793 39.1936V41.8064H128.414V39.1936H125.793ZM41.931 41.8064V44.4194H44.5517V41.8064H41.931ZM125.793 44.4194V47.0323H128.414V44.4194H125.793ZM128.414 49.6452V52.2581H133.655V49.6452H128.414ZM133.655 52.2581V54.871H136.276V52.2581H133.655ZM91.7241 54.871V60.0968H94.3448V54.871H91.7241ZM125.793 54.871V57.4839H120.552V65.3226H131.034V67.9355H133.655V70.5484H136.276V65.3226H138.897V60.0968H136.276V57.4839H131.034V54.871H125.793ZM146.759 65.3226V70.5484H149.379V65.3226H146.759ZM146.759 70.5484H144.138V73.1613H146.759V70.5484Z" fill="#38F1FF" fill-opacity="0.2"/>
<path d="M49.7931 0V2.6129H34.069V5.22581H28.8276V7.83871H31.4483V15.6774H28.8276V10.4516H20.9655V13.0645H23.5862V15.6774H20.9655V13.0645H2.62069V15.6774H0V18.2903H2.62069V23.5161H7.86207V20.9032H13.1034V23.5161H15.7241V26.129H18.3448V28.7419H20.9655V36.5806H23.5862V41.8064H28.8276V44.4194H34.069V47.0323H36.6897V49.6452H39.3103V52.2581H36.6897V57.4839H39.3103V62.7097H41.931V70.5484H39.3103V81H41.931V78.3871H44.5517V73.1613H47.1724V70.5484H49.7931V67.9355H52.4138V65.3226H55.0345V60.0968H57.6552V54.871H49.7931V52.2581H47.1724V49.6452H41.931V47.0323H39.3103V44.4194H36.6897V41.8064H31.4483V39.1936H39.3103V36.5806H41.931V31.3548H47.1724V28.7419H52.4138V26.129H49.7931V23.5161H47.1724V20.9032H41.931V23.5161H34.069V18.2903H39.3103V15.6774H41.931V18.2903H47.1724V15.6774H44.5517V13.0645H39.3103V7.83871H41.931V5.22581H47.1724V7.83871H49.7931V15.6774H52.4138V18.2903H57.6552V13.0645H60.2759V10.4516H62.8966V5.22581H60.2759V2.6129H57.6552V0H49.7931ZM60.2759 13.0645V15.6774H65.5172V13.0645H60.2759ZM78.6207 0V5.22581H81.2414V2.6129H83.8621V0H78.6207ZM110.069 5.22581V7.83871H102.207V10.4516H99.5862V13.0645H89.1034V10.4516H78.6207V13.0645H76V15.6774H73.3793V18.2903H76V23.5161H73.3793V20.9032H70.7586V18.2903H68.1379V23.5161H70.7586V28.7419H83.8621V26.129H89.1034V28.7419H83.8621V31.3548H86.4828V33.9677H76V31.3548H70.7586V28.7419H68.1379V33.9677H65.5172V39.1936H62.8966V44.4194H65.5172V47.0323H76V57.4839H78.6207V65.3226H83.8621V62.7097H86.4828V57.4839H89.1034V49.6452H91.7241V47.0323H94.3448V44.4194H91.7241V41.8064H96.9655V36.5806H102V37H102.5V38H101V39H101.5V39.5H102V40.5H102.5V40L103 39.5H103.5L104.828 44.4194H106.5L107.448 41.8064L108 40L110.069 39.1936H112.69V41.8064H115.31V47.0323H117.931V44.4194H120.552V39.1936H123.172V36.5806H125.793V31.3548H128.414V28.7419H131.034V26.129H133.655V18.2903H141.517V23.5161H144.138V18.2903H149.379V15.6774H152V10.4516H138.897V7.83871H133.655V10.4516H128.414V7.83871H123.172V5.22581H110.069ZM133.655 26.129V31.3548H131.034V33.9677H136.276V26.129H133.655ZM115.31 47.0323H112.69V49.6452H115.31V47.0323ZM115.31 49.6452V52.2581H117.931V54.871H120.552V52.2581H125.793V49.6452H123.172V47.0323H120.552V49.6452H115.31ZM78.6207 15.6774H81.2414V20.9032H78.6207V15.6774ZM86.4828 36.5806H89.1034V39.1936H86.4828V36.5806ZM125.793 39.1936V41.8064H128.414V39.1936H125.793ZM41.931 41.8064V44.4194H44.5517V41.8064H41.931ZM125.793 44.4194V47.0323H128.414V44.4194H125.793ZM128.414 49.6452V52.2581H133.655V49.6452H128.414ZM133.655 52.2581V54.871H136.276V52.2581H133.655ZM91.7241 54.871V60.0968H94.3448V54.871H91.7241ZM125.793 54.871V57.4839H120.552V65.3226H131.034V67.9355H133.655V70.5484H136.276V65.3226H138.897V60.0968H136.276V57.4839H131.034V54.871H125.793ZM146.759 65.3226V70.5484H149.379V65.3226H146.759ZM146.759 70.5484H144.138V73.1613H146.759V70.5484Z" fill="black" fill-opacity="0.07"/>
<path d="M106.409 31.2222H106.767V31.5757H107.117V31.936H106.774V32.646H107.117V32.9976H106.767V32.6519H106.42V33.4692H106.764V33.8159H107.116V34.144H107.388V34.1753H108.059V34.522H107.595V34.8765H107.125V35.3501L107.127 35.3521H107.125V35.353H107.483V35.6655H108.223V35.6704H108.226V35.9751H109.736V36.312H110.452V36.6606L111.564 36.6646V35.9478H111.939V35.5854H112.31V35.9419H111.95V36.312H114.145V36.104H113.731V35.6362H114.198V36.0581C114.347 36.0581 114.496 36.0581 114.645 36.0581V36.0835H114.65V35.2681H115.349V34.8794H116.071V35.3521H116.374C116.374 35.4477 116.378 35.5349 116.373 35.6216C116.369 35.6924 116.393 35.7122 116.453 35.7085C116.528 35.7036 116.604 35.7075 116.689 35.7075V36.4126H117V36.7622H116.69V36.4146H116.071V36.772H115.589V37.1499H115.587V37.1509H115.238V37.5288H115.245V37.5386H115.577V37.936H115.245V37.9399H115.338L115.354 38.1724H115.005V38.1821H114.645V39.3501H114.181V38.1997C114.106 38.2004 114.021 38.2018 113.938 38.2026V38.8755L113.471 38.8794V38.1763H113.706C113.707 37.9946 113.711 37.6439 113.715 37.4634C113.47 37.4613 113.226 37.4601 112.981 37.4585C112.915 37.458 112.848 37.4585 112.768 37.4585V37.0474H112.32V37.0278H112.318V36.6724C112.198 36.6724 112.09 36.6715 111.982 36.6753C111.969 36.6759 111.945 36.7026 111.945 36.7173C111.943 36.9401 111.943 37.1634 111.943 37.3979H112.315C112.315 37.5089 112.319 37.6089 112.312 37.7085C112.311 37.7283 112.272 37.7595 112.248 37.7612C112.152 37.7676 112.056 37.7642 111.952 37.7642V38.1235H112.308V39.5835H110.88V39.5854L110.883 39.5894H110.88V40.0532H110.883L110.88 40.0562V40.0581H111.354V40.2905H110.88V40.7563H110.105V41.23H109.78L109.778 41.2319V41.23H109.709V41.229H109.705V41.4663H109.502V41.9351H109.067V42.1724H108.831V42.8774H107.606V42.9126H107.584V43.3472H107.098V43.353H107.24V44.0522H107.589V44.7603H107.141V46.2573L106.77 46.2642V46.6421H106.396V46.8784H106.158V47.3345H105.717V46.8784H105.711V46.8853H105.651V46.8872L105.65 46.8853H105.406V46.1724H105.002V45.4702H105.009V45.4663H104.767V44.7378H104.762V44.7593H104.297V43.6167H103.845V42.9126H103.593C103.591 42.8755 103.588 42.8495 103.588 42.8247V41.2271H103.221C103.146 41.2291 103.116 41.2073 103.117 41.1265C103.121 40.883 103.122 40.6042 103.117 40.3608C103.116 40.2781 103.148 40.2591 103.222 40.2612C103.239 40.2617 103.372 40.2601 103.59 40.2603V40.0532H103.234L103.236 39.2769L102.931 39.2749V40.0532H102.914V40.0542H102.415V40.0532H101.777V39.6821H101.386V38.9282H101V38.1411H101.38L101.378 38.1392H101.472V37.9409H102.409V38.1392L102.885 38.1401V37.9351H102.534V37.4722H102.181V37.0288H101.782V36.3286H101.471V35.9712H101.778V35.6196H102.444V36.0581H102.885V36.0552L102.883 36.0532H102.885V35.6704H103.23V35.3521H103.59V34.6118H103.827V34.144H104.297V33.4692H104.612V33.4653H104.606V32.7681H103.823V31.3501H104.604V31.6987L104.606 31.6968H105.387V31.353H105.708V30.8794H106.409V31.2222ZM105.711 46.8882V46.8853H105.714L105.711 46.8882ZM105.002 45.4702H105L105.002 45.4683V45.4702ZM104.762 44.7622V44.7593H104.765L104.762 44.7622ZM107.243 43.353H107.24V43.3501L107.243 43.353ZM107.606 42.9146V42.9126H107.608L107.606 42.9146ZM109.709 41.2329L109.706 41.23H109.709V41.2329ZM102.479 40.2915H102.145V40.0581H102.479V40.2915ZM102.145 40.0581H102.143L102.145 40.0562V40.0581ZM102.481 40.0581H102.479V40.0562L102.481 40.0581ZM102.415 40.0562L102.412 40.0542H102.415V40.0562ZM102.931 40.0562V40.0532H102.934L102.931 40.0562ZM102.411 37.9409H102.409V37.939L102.411 37.9409ZM102.534 37.939L102.531 37.9351H102.534V37.939ZM115.005 37.1509H115.231V37.1499H115.005V37.1509ZM114.648 36.0581C114.647 36.0581 114.646 36.0581 114.645 36.0581V36.0562L114.648 36.0581ZM107.124 35.6704H107.481V35.6655H107.124V35.6704ZM116.295 34.8774H116.061V34.644H116.295V34.8774ZM107.391 34.144H107.388V34.1392L107.391 34.144ZM104.606 33.4673L104.604 33.4653H104.606V33.4673Z" fill="url(#paint0_radial_2087_37850)"/>
<path d="M106.409 31.2222H106.767V31.5757H107.117V31.936H106.774V32.646H107.117V32.9976H106.767V32.6519H106.42V33.4692H106.764V33.8159H107.116V34.144H107.388V34.1753H108.059V34.522H107.595V34.8765H107.125V35.3501L107.127 35.3521H107.125V35.353H107.483V35.6655H108.223V35.6704H108.226V35.9751H109.736V36.312H110.452V36.6606L111.564 36.6646V35.9478H111.939V35.5854H112.31V35.9419H111.95V36.312H114.145V36.104H113.731V35.6362H114.198V36.0581C114.347 36.0581 114.496 36.0581 114.645 36.0581V36.0835H114.65V35.2681H115.349V34.8794H116.071V35.3521H116.374C116.374 35.4477 116.378 35.5349 116.373 35.6216C116.369 35.6924 116.393 35.7122 116.453 35.7085C116.528 35.7036 116.604 35.7075 116.689 35.7075V36.4126H117V36.7622H116.69V36.4146H116.071V36.772H115.589V37.1499H115.587V37.1509H115.238V37.5288H115.245V37.5386H115.577V37.936H115.245V37.9399H115.338L115.354 38.1724H115.005V38.1821H114.645V39.3501H114.181V38.1997C114.106 38.2004 114.021 38.2018 113.938 38.2026V38.8755L113.471 38.8794V38.1763H113.706C113.707 37.9946 113.711 37.6439 113.715 37.4634C113.47 37.4613 113.226 37.4601 112.981 37.4585C112.915 37.458 112.848 37.4585 112.768 37.4585V37.0474H112.32V37.0278H112.318V36.6724C112.198 36.6724 112.09 36.6715 111.982 36.6753C111.969 36.6759 111.945 36.7026 111.945 36.7173C111.943 36.9401 111.943 37.1634 111.943 37.3979H112.315C112.315 37.5089 112.319 37.6089 112.312 37.7085C112.311 37.7283 112.272 37.7595 112.248 37.7612C112.152 37.7676 112.056 37.7642 111.952 37.7642V38.1235H112.308V39.5835H110.88V39.5854L110.883 39.5894H110.88V40.0532H110.883L110.88 40.0562V40.0581H111.354V40.2905H110.88V40.7563H110.105V41.23H109.78L109.778 41.2319V41.23H109.709V41.229H109.705V41.4663H109.502V41.9351H109.067V42.1724H108.831V42.8774H107.606V42.9126H107.584V43.3472H107.098V43.353H107.24V44.0522H107.589V44.7603H107.141V46.2573L106.77 46.2642V46.6421H106.396V46.8784H106.158V47.3345H105.717V46.8784H105.711V46.8853H105.651V46.8872L105.65 46.8853H105.406V46.1724H105.002V45.4702H105.009V45.4663H104.767V44.7378H104.762V44.7593H104.297V43.6167H103.845V42.9126H103.593C103.591 42.8755 103.588 42.8495 103.588 42.8247V41.2271H103.221C103.146 41.2291 103.116 41.2073 103.117 41.1265C103.121 40.883 103.122 40.6042 103.117 40.3608C103.116 40.2781 103.148 40.2591 103.222 40.2612C103.239 40.2617 103.372 40.2601 103.59 40.2603V40.0532H103.234L103.236 39.2769L102.931 39.2749V40.0532H102.914V40.0542H102.415V40.0532H101.777V39.6821H101.386V38.9282H101V38.1411H101.38L101.378 38.1392H101.472V37.9409H102.409V38.1392L102.885 38.1401V37.9351H102.534V37.4722H102.181V37.0288H101.782V36.3286H101.471V35.9712H101.778V35.6196H102.444V36.0581H102.885V36.0552L102.883 36.0532H102.885V35.6704H103.23V35.3521H103.59V34.6118H103.827V34.144H104.297V33.4692H104.612V33.4653H104.606V32.7681H103.823V31.3501H104.604V31.6987L104.606 31.6968H105.387V31.353H105.708V30.8794H106.409V31.2222ZM105.711 46.8882V46.8853H105.714L105.711 46.8882ZM105.002 45.4702H105L105.002 45.4683V45.4702ZM104.762 44.7622V44.7593H104.765L104.762 44.7622ZM107.243 43.353H107.24V43.3501L107.243 43.353ZM107.606 42.9146V42.9126H107.608L107.606 42.9146ZM109.709 41.2329L109.706 41.23H109.709V41.2329ZM102.479 40.2915H102.145V40.0581H102.479V40.2915ZM102.145 40.0581H102.143L102.145 40.0562V40.0581ZM102.481 40.0581H102.479V40.0562L102.481 40.0581ZM102.415 40.0562L102.412 40.0542H102.415V40.0562ZM102.931 40.0562V40.0532H102.934L102.931 40.0562ZM102.411 37.9409H102.409V37.939L102.411 37.9409ZM102.534 37.939L102.531 37.9351H102.534V37.939ZM115.005 37.1509H115.231V37.1499H115.005V37.1509ZM114.648 36.0581C114.647 36.0581 114.646 36.0581 114.645 36.0581V36.0562L114.648 36.0581ZM107.124 35.6704H107.481V35.6655H107.124V35.6704ZM116.295 34.8774H116.061V34.644H116.295V34.8774ZM107.391 34.144H107.388V34.1392L107.391 34.144ZM104.606 33.4673L104.604 33.4653H104.606V33.4673Z" fill="black" fill-opacity="0.07"/>
<defs>
<radialGradient id="paint0_radial_2087_37850" cx="0" cy="0" r="1" gradientTransform="matrix(-6.52779 43.1006 -19.1601 -17.4138 115.528 13.6421)" gradientUnits="userSpaceOnUse">
<stop offset="0.350584" stop-color="#0FB8C5"/>
<stop offset="1" stop-color="#93CD4D"/>
</radialGradient>
</defs>
</svg>
