<svg width="172" height="28" viewBox="0 0 172 28" fill="none" xmlns="http://www.w3.org/2000/svg">
<path d="M27.3031 17.3438V10.6543C28.0255 10.3775 28.2441 9.43099 27.6795 8.86362L27.3031 8.48721V7.95582C27.3031 7.15596 26.4783 6.64394 25.7725 6.95668L21.0423 2.22672C21.3579 1.51819 20.843 0.696194 20.0432 0.696194H19.5117L19.1353 0.319789C18.5707 -0.244817 17.6241 -0.0261706 17.3445 0.696194H10.6548C10.378 -0.0261706 9.4314 -0.244817 8.864 0.319789L8.48758 0.696194H7.95616C7.15627 0.696194 6.64422 1.52096 6.95698 2.22672L2.22681 6.95668C1.51826 6.64117 0.696221 7.15596 0.696221 7.95582V8.48721L0.319804 8.86362C-0.244827 9.42823 -0.0261745 10.3748 0.696221 10.6543V17.3438C-0.0261745 17.6206 -0.244827 18.5671 0.319804 19.1345L0.696221 19.5109V20.0423C0.696221 20.8421 1.52103 21.3542 2.22681 21.0414L6.95698 25.7714C6.64146 26.4799 7.15627 27.3019 7.95616 27.3019H8.48758L8.864 27.6783C9.42863 28.2429 10.3752 28.0243 10.6548 27.3019H17.3445C17.6213 28.0243 18.5679 28.2429 19.1353 27.6783L19.5117 27.3019H20.0432C20.843 27.3019 21.3551 26.4771 21.0423 25.7714L25.7725 21.0414C26.481 21.3569 27.3031 20.8421 27.3031 20.0423V19.5109L27.6795 19.1345C28.2441 18.5699 28.0255 17.6233 27.3031 17.3438Z" fill="#FFDF8F"/>
<path d="M63.3031 17.3438V10.6543C64.0255 10.3775 64.2441 9.43099 63.6795 8.86362L63.3031 8.48721V7.95582C63.3031 7.15596 62.4783 6.64394 61.7725 6.95668L57.0423 2.22672C57.3579 1.51819 56.843 0.696194 56.0432 0.696194H55.5117L55.1353 0.319789C54.5707 -0.244817 53.6241 -0.0261706 53.3445 0.696194H46.6548C46.378 -0.0261706 45.4314 -0.244817 44.864 0.319789L44.4876 0.696194H43.9562C43.1563 0.696194 42.6442 1.52096 42.957 2.22672L38.2268 6.95668C37.5183 6.64117 36.6962 7.15596 36.6962 7.95582V8.48721L36.3198 8.86362C35.7552 9.42823 35.9738 10.3748 36.6962 10.6543V17.3438C35.9738 17.6206 35.7552 18.5671 36.3198 19.1345L36.6962 19.5109V20.0423C36.6962 20.8421 37.521 21.3542 38.2268 21.0414L42.957 25.7714C42.6415 26.4799 43.1563 27.3019 43.9562 27.3019H44.4876L44.864 27.6783C45.4286 28.2429 46.3752 28.0243 46.6548 27.3019H53.3445C53.6213 28.0243 54.5679 28.2429 55.1353 27.6783L55.5117 27.3019H56.0432C56.843 27.3019 57.3551 26.4771 57.0423 25.7714L61.7725 21.0414C62.481 21.3569 63.3031 20.8421 63.3031 20.0423V19.5109L63.6795 19.1345C64.2441 18.5699 64.0255 17.6233 63.3031 17.3438Z" fill="#FFDF8F"/>
<path d="M99.3011 17.3438V10.6543C100.024 10.3775 100.242 9.43099 99.6776 8.86362L99.3011 8.48721V7.95582C99.3011 7.15596 98.4763 6.64394 97.7705 6.95668L93.0404 2.22672C93.3559 1.51819 92.8411 0.696194 92.0412 0.696194H91.5098L91.1334 0.319789C90.5687 -0.244817 89.6221 -0.0261706 89.3426 0.696194H82.6528C82.376 -0.0261706 81.4294 -0.244817 80.862 0.319789L80.4856 0.696194H79.9542C79.1543 0.696194 78.6423 1.52096 78.955 2.22672L74.2249 6.95668C73.5163 6.64117 72.6943 7.15596 72.6943 7.95582V8.48721L72.3179 8.86362C71.7532 9.42823 71.9719 10.3748 72.6943 10.6543V17.3438C71.9719 17.6206 71.7532 18.5671 72.3179 19.1345L72.6943 19.5109V20.0423C72.6943 20.8421 73.5191 21.3542 74.2249 21.0414L78.955 25.7714C78.6395 26.4799 79.1543 27.3019 79.9542 27.3019H80.4856L80.862 27.6783C81.4267 28.2429 82.3733 28.0243 82.6528 27.3019H89.3426C89.6194 28.0243 90.566 28.2429 91.1334 27.6783L91.5098 27.3019H92.0412C92.8411 27.3019 93.3531 26.4771 93.0404 25.7714L97.7705 21.0414C98.4791 21.3569 99.3011 20.8421 99.3011 20.0423V19.5109L99.6776 19.1345C100.242 18.5699 100.024 17.6233 99.3011 17.3438Z" fill="#FFDF8F"/>
<g clip-path="url(#clip0_7211_7996)">
<path d="M135.299 17.3438V10.6543C136.022 10.3775 136.24 9.43099 135.676 8.86362L135.299 8.48721V7.95582C135.299 7.15596 134.474 6.64394 133.769 6.95668L129.038 2.22672C129.354 1.51819 128.839 0.696194 128.039 0.696194H127.508L127.131 0.319789C126.567 -0.244817 125.62 -0.0261706 125.341 0.696194H118.651C118.374 -0.0261706 117.427 -0.244817 116.86 0.319789L116.484 0.696194H115.952C115.152 0.696194 114.64 1.52096 114.953 2.22672L110.223 6.95668C109.514 6.64117 108.692 7.15596 108.692 7.95582V8.48721L108.316 8.86362C107.751 9.42823 107.97 10.3748 108.692 10.6543V17.3438C107.97 17.6206 107.751 18.5671 108.316 19.1345L108.692 19.5109V20.0423C108.692 20.8421 109.517 21.3542 110.223 21.0414L114.953 25.7714C114.638 26.4799 115.152 27.3019 115.952 27.3019H116.484L116.86 27.6783C117.425 28.2429 118.371 28.0243 118.651 27.3019H125.341C125.617 28.0243 126.564 28.2429 127.131 27.6783L127.508 27.3019H128.039C128.839 27.3019 129.351 26.4771 129.038 25.7714L133.769 21.0414C134.477 21.3569 135.299 20.8421 135.299 20.0423V19.5109L135.676 19.1345C136.24 18.5699 136.022 17.6233 135.299 17.3438Z" fill="#FFDF8F"/>
</g>
<g clip-path="url(#clip1_7211_7996)">
<path d="M108.697 17.3438V10.6543C107.975 10.3775 107.756 9.43099 108.32 8.86362L108.697 8.48721V7.95582C108.697 7.15596 109.522 6.64394 110.228 6.95668L114.958 2.22672C114.642 1.51819 115.157 0.696194 115.957 0.696194H116.488L116.865 0.319789C117.429 -0.244817 118.376 -0.0261706 118.655 0.696194H125.345C125.622 -0.0261706 126.569 -0.244817 127.136 0.319789L127.512 0.696194H128.044C128.844 0.696194 129.356 1.52096 129.043 2.22672L133.773 6.95668C134.482 6.64117 135.304 7.15596 135.304 7.95582V8.48721L135.68 8.86362C136.245 9.42823 136.026 10.3748 135.304 10.6543V17.3438C136.026 17.6206 136.245 18.5671 135.68 19.1345L135.304 19.5109V20.0423C135.304 20.8421 134.479 21.3542 133.773 21.0414L129.043 25.7714C129.359 26.4799 128.844 27.3019 128.044 27.3019H127.512L127.136 27.6783C126.571 28.2429 125.625 28.0243 125.345 27.3019H118.655C118.379 28.0243 117.432 28.2429 116.865 27.6783L116.488 27.3019H115.957C115.157 27.3019 114.645 26.4771 114.958 25.7714L110.228 21.0414C109.519 21.3569 108.697 20.8421 108.697 20.0423V19.5109L108.32 19.1345C107.756 18.5699 107.975 17.6233 108.697 17.3438Z" fill="#74BBB5"/>
</g>
<path d="M171.301 17.3438V10.6543C172.024 10.3775 172.242 9.43099 171.678 8.86362L171.301 8.48721V7.95582C171.301 7.15596 170.476 6.64394 169.771 6.95668L165.04 2.22672C165.356 1.51819 164.841 0.696194 164.041 0.696194H163.51L163.133 0.319789C162.569 -0.244817 161.622 -0.0261706 161.343 0.696194H154.653C154.376 -0.0261706 153.429 -0.244817 152.862 0.319789L152.486 0.696194H151.954C151.154 0.696194 150.642 1.52096 150.955 2.22672L146.225 6.95668C145.516 6.64117 144.694 7.15596 144.694 7.95582V8.48721L144.318 8.86362C143.753 9.42823 143.972 10.3748 144.694 10.6543V17.3438C143.972 17.6206 143.753 18.5671 144.318 19.1345L144.694 19.5109V20.0423C144.694 20.8421 145.519 21.3542 146.225 21.0414L150.955 25.7714C150.64 26.4799 151.154 27.3019 151.954 27.3019H152.486L152.862 27.6783C153.427 28.2429 154.373 28.0243 154.653 27.3019H161.343C161.619 28.0243 162.566 28.2429 163.133 27.6783L163.51 27.3019H164.041C164.841 27.3019 165.353 26.4771 165.04 25.7714L169.771 21.0414C170.479 21.3569 171.301 20.8421 171.301 20.0423V19.5109L171.678 19.1345C172.242 18.5699 172.024 17.6233 171.301 17.3438Z" fill="#74BBB5"/>
<defs>
<clipPath id="clip0_7211_7996">
<rect width="14" height="28" fill="white" transform="translate(107.998)"/>
</clipPath>
<clipPath id="clip1_7211_7996">
<rect width="14" height="28" fill="white" transform="matrix(-1 0 0 1 135.998 0)"/>
</clipPath>
</defs>
</svg>
