<svg width="291" height="65" viewBox="0 0 291 65" fill="none" xmlns="http://www.w3.org/2000/svg">
<path d="M264.684 0C272.4 5.10286e-05 279.017 5.50771 280.418 13.0957L290 65H0L9.96777 12.9883C11.4125 5.45028 18.0064 0 25.6816 0H264.684Z" fill="url(#paint0_linear_2635_33991)"/>
<path d="M85.4918 38V26.8H87.0918V38H85.4918ZM88.9493 38V26.8H90.5493V38H88.9493ZM92.9668 38.08C92.6574 38.08 92.4014 37.984 92.1988 37.792C92.0068 37.5893 91.9108 37.3493 91.9108 37.072C91.9108 36.784 92.0068 36.544 92.1988 36.352C92.4014 36.1493 92.6574 36.048 92.9668 36.048C93.2761 36.048 93.5268 36.1493 93.7188 36.352C93.9108 36.544 94.0068 36.784 94.0068 37.072C94.0068 37.3493 93.9108 37.5893 93.7188 37.792C93.5268 37.984 93.2761 38.08 92.9668 38.08Z" fill="white"/>
<path d="M100.546 38V26.8H107.506V28.112H102.146V31.744H106.626V33.024H102.146V38H100.546ZM108.77 38V29.936H110.37V38H108.77ZM109.586 28.416C109.276 28.416 109.02 28.32 108.818 28.128C108.626 27.936 108.53 27.6907 108.53 27.392C108.53 27.104 108.626 26.8693 108.818 26.688C109.02 26.496 109.276 26.4 109.586 26.4C109.884 26.4 110.135 26.496 110.338 26.688C110.54 26.8693 110.642 27.104 110.642 27.392C110.642 27.6907 110.54 27.936 110.338 28.128C110.135 28.32 109.884 28.416 109.586 28.416ZM112.178 38V29.936H113.618L113.762 31.456C113.943 31.0933 114.178 30.7893 114.466 30.544C114.754 30.288 115.09 30.0907 115.474 29.952C115.868 29.8133 116.316 29.744 116.818 29.744V31.44H116.242C115.911 31.44 115.596 31.4827 115.298 31.568C114.999 31.6427 114.732 31.776 114.498 31.968C114.274 32.16 114.098 32.4213 113.97 32.752C113.842 33.0827 113.778 33.4933 113.778 33.984V38H112.178ZM120.927 38.192C120.244 38.192 119.647 38.08 119.135 37.856C118.623 37.632 118.218 37.3173 117.919 36.912C117.62 36.5067 117.439 36.032 117.375 35.488H119.007C119.06 35.744 119.162 35.9787 119.311 36.192C119.471 36.4053 119.684 36.576 119.951 36.704C120.228 36.832 120.554 36.896 120.927 36.896C121.279 36.896 121.567 36.848 121.791 36.752C122.026 36.6453 122.196 36.5067 122.303 36.336C122.41 36.1547 122.463 35.9627 122.463 35.76C122.463 35.4613 122.388 35.2373 122.239 35.088C122.1 34.928 121.887 34.8053 121.599 34.72C121.322 34.624 120.986 34.5387 120.591 34.464C120.218 34.4 119.855 34.3147 119.503 34.208C119.162 34.0907 118.852 33.9467 118.575 33.776C118.308 33.6053 118.095 33.392 117.935 33.136C117.775 32.8693 117.695 32.544 117.695 32.16C117.695 31.7013 117.818 31.2907 118.063 30.928C118.308 30.5547 118.655 30.2667 119.103 30.064C119.562 29.8507 120.1 29.744 120.719 29.744C121.615 29.744 122.335 29.9573 122.879 30.384C123.423 30.8107 123.743 31.4133 123.839 32.192H122.287C122.244 31.8293 122.084 31.552 121.807 31.36C121.53 31.1573 121.162 31.056 120.703 31.056C120.244 31.056 119.892 31.1467 119.647 31.328C119.402 31.5093 119.279 31.7493 119.279 32.048C119.279 32.24 119.348 32.4107 119.487 32.56C119.626 32.7093 119.828 32.8373 120.095 32.944C120.372 33.04 120.708 33.1307 121.103 33.216C121.668 33.3227 122.175 33.456 122.623 33.616C123.071 33.776 123.428 34.0107 123.695 34.32C123.962 34.6293 124.095 35.072 124.095 35.648C124.106 36.1493 123.978 36.592 123.711 36.976C123.455 37.36 123.087 37.6587 122.607 37.872C122.138 38.0853 121.578 38.192 120.927 38.192ZM128.498 38C127.997 38 127.56 37.92 127.186 37.76C126.813 37.6 126.525 37.3333 126.322 36.96C126.12 36.5867 126.018 36.08 126.018 35.44V31.296H124.626V29.936H126.018L126.21 27.92H127.618V29.936H129.906V31.296H127.618V35.456C127.618 35.9147 127.714 36.2293 127.906 36.4C128.098 36.56 128.429 36.64 128.898 36.64H129.826V38H128.498ZM134.885 38V26.8H138.325C139.626 26.8 140.703 27.0293 141.557 27.488C142.41 27.9467 143.039 28.5973 143.445 29.44C143.861 30.272 144.069 31.264 144.069 32.416C144.069 33.568 143.861 34.56 143.445 35.392C143.039 36.224 142.41 36.8693 141.557 37.328C140.714 37.776 139.637 38 138.325 38H134.885ZM136.485 36.656H138.261C139.295 36.656 140.117 36.4853 140.725 36.144C141.333 35.8027 141.765 35.3173 142.021 34.688C142.287 34.048 142.421 33.2907 142.421 32.416C142.421 31.5307 142.287 30.768 142.021 30.128C141.765 29.488 141.333 28.9973 140.725 28.656C140.117 28.3147 139.295 28.144 138.261 28.144H136.485V36.656ZM149.114 38.192C148.357 38.192 147.674 38.016 147.066 37.664C146.469 37.312 145.994 36.8213 145.642 36.192C145.301 35.552 145.13 34.816 145.13 33.984C145.13 33.1307 145.306 32.3893 145.658 31.76C146.01 31.12 146.49 30.624 147.098 30.272C147.706 29.92 148.389 29.744 149.146 29.744C149.914 29.744 150.597 29.92 151.194 30.272C151.791 30.624 152.261 31.1147 152.602 31.744C152.954 32.3733 153.13 33.1147 153.13 33.968C153.13 34.8213 152.954 35.5627 152.602 36.192C152.261 36.8213 151.786 37.312 151.178 37.664C150.57 38.016 149.882 38.192 149.114 38.192ZM149.114 36.816C149.551 36.816 149.946 36.7093 150.298 36.496C150.661 36.2827 150.949 35.968 151.162 35.552C151.386 35.1253 151.498 34.5973 151.498 33.968C151.498 33.3387 151.391 32.816 151.178 32.4C150.965 31.9733 150.677 31.6533 150.314 31.44C149.962 31.2267 149.573 31.12 149.146 31.12C148.719 31.12 148.325 31.2267 147.962 31.44C147.599 31.6533 147.306 31.9733 147.082 32.4C146.869 32.816 146.762 33.3387 146.762 33.968C146.762 34.5973 146.869 35.1253 147.082 35.552C147.306 35.968 147.594 36.2827 147.946 36.496C148.309 36.7093 148.698 36.816 149.114 36.816ZM154.532 38V29.936H155.972L156.068 31.312C156.324 30.832 156.687 30.4533 157.156 30.176C157.625 29.888 158.164 29.744 158.772 29.744C159.412 29.744 159.961 29.872 160.42 30.128C160.879 30.384 161.236 30.7733 161.492 31.296C161.748 31.808 161.876 32.4533 161.876 33.232V38H160.276V33.392C160.276 32.6453 160.111 32.08 159.78 31.696C159.449 31.312 158.969 31.12 158.34 31.12C157.924 31.12 157.551 31.2213 157.22 31.424C156.889 31.616 156.623 31.904 156.42 32.288C156.228 32.672 156.132 33.1413 156.132 33.696V38H154.532ZM166.115 38.192C165.453 38.192 164.904 38.08 164.467 37.856C164.029 37.632 163.704 37.3333 163.491 36.96C163.277 36.576 163.171 36.1653 163.171 35.728C163.171 35.1947 163.309 34.7413 163.587 34.368C163.864 33.984 164.259 33.6907 164.771 33.488C165.283 33.2853 165.896 33.184 166.611 33.184H168.707C168.707 32.7147 168.637 32.3253 168.499 32.016C168.36 31.7067 168.152 31.4773 167.875 31.328C167.608 31.168 167.267 31.088 166.851 31.088C166.371 31.088 165.96 31.2053 165.619 31.44C165.277 31.664 165.064 32 164.979 32.448H163.379C163.443 31.8827 163.635 31.4027 163.955 31.008C164.285 30.6027 164.707 30.2933 165.219 30.08C165.731 29.856 166.275 29.744 166.851 29.744C167.608 29.744 168.243 29.8773 168.755 30.144C169.267 30.4107 169.651 30.7893 169.907 31.28C170.173 31.76 170.307 32.336 170.307 33.008V38H168.915L168.787 36.64C168.669 36.8533 168.531 37.056 168.371 37.248C168.211 37.44 168.019 37.6053 167.795 37.744C167.581 37.8827 167.331 37.9893 167.043 38.064C166.765 38.1493 166.456 38.192 166.115 38.192ZM166.419 36.896C166.76 36.896 167.069 36.8267 167.347 36.688C167.624 36.5493 167.859 36.3627 168.051 36.128C168.253 35.8827 168.403 35.6107 168.499 35.312C168.605 35.0027 168.664 34.688 168.675 34.368V34.32H166.771C166.312 34.32 165.939 34.3787 165.651 34.496C165.373 34.6027 165.171 34.752 165.043 34.944C164.915 35.136 164.851 35.36 164.851 35.616C164.851 35.8827 164.909 36.112 165.027 36.304C165.155 36.4853 165.336 36.6293 165.571 36.736C165.805 36.8427 166.088 36.896 166.419 36.896ZM175.009 38C174.508 38 174.07 37.92 173.697 37.76C173.324 37.6 173.036 37.3333 172.833 36.96C172.63 36.5867 172.529 36.08 172.529 35.44V31.296H171.137V29.936H172.529L172.721 27.92H174.129V29.936H176.417V31.296H174.129V35.456C174.129 35.9147 174.225 36.2293 174.417 36.4C174.609 36.56 174.94 36.64 175.409 36.64H176.337V38H175.009ZM177.813 38V29.936H179.413V38H177.813ZM178.629 28.416C178.32 28.416 178.064 28.32 177.861 28.128C177.669 27.936 177.573 27.6907 177.573 27.392C177.573 27.104 177.669 26.8693 177.861 26.688C178.064 26.496 178.32 26.4 178.629 26.4C178.928 26.4 179.179 26.496 179.381 26.688C179.584 26.8693 179.685 27.104 179.685 27.392C179.685 27.6907 179.584 27.936 179.381 28.128C179.179 28.32 178.928 28.416 178.629 28.416ZM184.901 38.192C184.144 38.192 183.461 38.016 182.853 37.664C182.256 37.312 181.781 36.8213 181.429 36.192C181.088 35.552 180.917 34.816 180.917 33.984C180.917 33.1307 181.093 32.3893 181.445 31.76C181.797 31.12 182.277 30.624 182.885 30.272C183.493 29.92 184.176 29.744 184.933 29.744C185.701 29.744 186.384 29.92 186.981 30.272C187.579 30.624 188.048 31.1147 188.389 31.744C188.741 32.3733 188.917 33.1147 188.917 33.968C188.917 34.8213 188.741 35.5627 188.389 36.192C188.048 36.8213 187.573 37.312 186.965 37.664C186.357 38.016 185.669 38.192 184.901 38.192ZM184.901 36.816C185.339 36.816 185.733 36.7093 186.085 36.496C186.448 36.2827 186.736 35.968 186.949 35.552C187.173 35.1253 187.285 34.5973 187.285 33.968C187.285 33.3387 187.179 32.816 186.965 32.4C186.752 31.9733 186.464 31.6533 186.101 31.44C185.749 31.2267 185.36 31.12 184.933 31.12C184.507 31.12 184.112 31.2267 183.749 31.44C183.387 31.6533 183.093 31.9733 182.869 32.4C182.656 32.816 182.549 33.3387 182.549 33.968C182.549 34.5973 182.656 35.1253 182.869 35.552C183.093 35.968 183.381 36.2827 183.733 36.496C184.096 36.7093 184.485 36.816 184.901 36.816ZM190.32 38V29.936H191.76L191.856 31.312C192.112 30.832 192.474 30.4533 192.944 30.176C193.413 29.888 193.952 29.744 194.56 29.744C195.2 29.744 195.749 29.872 196.208 30.128C196.666 30.384 197.024 30.7733 197.28 31.296C197.536 31.808 197.664 32.4533 197.664 33.232V38H196.064V33.392C196.064 32.6453 195.898 32.08 195.568 31.696C195.237 31.312 194.757 31.12 194.128 31.12C193.712 31.12 193.338 31.2213 193.008 31.424C192.677 31.616 192.41 31.904 192.208 32.288C192.016 32.672 191.92 33.1413 191.92 33.696V38H190.32Z" fill="white"/>
<defs>
<linearGradient id="paint0_linear_2635_33991" x1="-498.663" y1="137" x2="-496.806" y2="-50.7509" gradientUnits="userSpaceOnUse">
<stop offset="0.00206664" stop-color="#D349AE"/>
<stop offset="0.791558" stop-color="#0FB8C5"/>
<stop offset="0.963745" stop-color="#1BD5E4"/>
</linearGradient>
</defs>
</svg>
