<svg width="389" height="378" viewBox="0 0 389 378" fill="none" xmlns="http://www.w3.org/2000/svg">
<ellipse cx="6.58058" cy="6.57601" rx="6.58058" ry="6.57601" transform="matrix(-1 0 0 1 375.212 203.966)" fill="url(#paint0_radial_2087_38435)"/>
<ellipse cx="6.58058" cy="6.57601" rx="6.58058" ry="6.57601" transform="matrix(-1 0 0 1 375.212 203.966)" fill="black" fill-opacity="0.07"/>
<ellipse cx="6.58058" cy="6.2299" rx="6.58058" ry="6.2299" transform="matrix(-1 0 0 1 309.407 191.507)" fill="url(#paint1_radial_2087_38435)"/>
<ellipse cx="6.58058" cy="6.2299" rx="6.58058" ry="6.2299" transform="matrix(-1 0 0 1 309.407 191.507)" fill="black" fill-opacity="0.07"/>
<ellipse cx="6.58058" cy="6.57601" rx="6.58058" ry="6.57601" transform="matrix(-1 0 0 1 348.198 203.966)" fill="url(#paint2_radial_2087_38435)"/>
<ellipse cx="6.58058" cy="6.57601" rx="6.58058" ry="6.57601" transform="matrix(-1 0 0 1 348.198 203.966)" fill="black" fill-opacity="0.07"/>
<ellipse cx="6.58058" cy="6.57601" rx="6.58058" ry="6.57601" transform="matrix(-1 0 0 1 348.198 227.155)" fill="url(#paint3_radial_2087_38435)"/>
<ellipse cx="6.58058" cy="6.57601" rx="6.58058" ry="6.57601" transform="matrix(-1 0 0 1 348.198 227.155)" fill="black" fill-opacity="0.07"/>
<ellipse cx="6.58058" cy="6.57601" rx="6.58058" ry="6.57601" transform="matrix(-1 0 0 1 309.407 203.966)" fill="url(#paint4_radial_2087_38435)"/>
<ellipse cx="6.58058" cy="6.57601" rx="6.58058" ry="6.57601" transform="matrix(-1 0 0 1 309.407 203.966)" fill="black" fill-opacity="0.07"/>
<ellipse cx="6.58058" cy="6.57601" rx="6.58058" ry="6.57601" transform="matrix(-1 0 0 1 243.161 172.331)" fill="#93CD4D"/>
<ellipse cx="6.58058" cy="6.57601" rx="6.58058" ry="6.57601" transform="matrix(-1 0 0 1 243.161 172.331)" fill="black" fill-opacity="0.07"/>
<ellipse cx="6.58058" cy="6.2299" rx="6.58058" ry="6.2299" transform="matrix(-1 0 0 1 322.568 164.315)" fill="#38F1FF" fill-opacity="0.2"/>
<ellipse cx="6.58058" cy="6.2299" rx="6.58058" ry="6.2299" transform="matrix(-1 0 0 1 322.568 164.315)" fill="black" fill-opacity="0.07"/>
<ellipse cx="6.23424" cy="6.2299" rx="6.23424" ry="6.2299" transform="matrix(-1 0 0 1 335.037 191.507)" fill="url(#paint5_radial_2087_38435)"/>
<ellipse cx="6.23424" cy="6.2299" rx="6.23424" ry="6.2299" transform="matrix(-1 0 0 1 335.037 191.507)" fill="black" fill-opacity="0.07"/>
<ellipse cx="6.92693" cy="6.2299" rx="6.92693" ry="6.2299" transform="matrix(-1 0 0 1 296.247 191.507)" fill="#38F1FF" fill-opacity="0.2"/>
<ellipse cx="6.92693" cy="6.2299" rx="6.92693" ry="6.2299" transform="matrix(-1 0 0 1 296.247 191.507)" fill="black" fill-opacity="0.07"/>
<ellipse cx="6.58058" cy="6.92211" rx="6.58058" ry="6.92211" transform="matrix(-1 0 0 1 309.407 176.775)" fill="#38F1FF" fill-opacity="0.2"/>
<ellipse cx="6.58058" cy="6.92211" rx="6.58058" ry="6.92211" transform="matrix(-1 0 0 1 309.407 176.775)" fill="black" fill-opacity="0.07"/>
<ellipse cx="6.58058" cy="6.57601" rx="6.58058" ry="6.57601" transform="matrix(-1 0 0 1 388.373 203.966)" fill="#38F1FF" fill-opacity="0.1"/>
<ellipse cx="6.58058" cy="6.57601" rx="6.58058" ry="6.57601" transform="matrix(-1 0 0 1 388.373 203.966)" fill="black" fill-opacity="0.07"/>
<path d="M350.119 200.617L352.465 198.273L350.119 195.929C349.701 195.511 349.701 194.826 350.119 194.408L351.007 193.521C351.425 193.103 352.11 193.103 352.529 193.521L354.874 195.865L357.22 193.521C357.639 193.103 358.323 193.103 358.742 193.521L359.63 194.408C360.048 194.826 360.048 195.511 359.63 195.929L357.284 198.273L359.63 200.617C360.048 201.035 360.048 201.72 359.63 202.138L358.742 203.025C358.323 203.443 357.639 203.443 357.22 203.025L354.874 200.681L352.529 203.025C352.11 203.443 351.425 203.443 351.007 203.025L350.119 202.138C349.701 201.72 349.701 201.035 350.119 200.617Z" fill="url(#paint6_radial_2087_38435)"/>
<path d="M350.119 200.617L352.465 198.273L350.119 195.929C349.701 195.511 349.701 194.826 350.119 194.408L351.007 193.521C351.425 193.103 352.11 193.103 352.529 193.521L354.874 195.865L357.22 193.521C357.639 193.103 358.323 193.103 358.742 193.521L359.63 194.408C360.048 194.826 360.048 195.511 359.63 195.929L357.284 198.273L359.63 200.617C360.048 201.035 360.048 201.72 359.63 202.138L358.742 203.025C358.323 203.443 357.639 203.443 357.22 203.025L354.874 200.681L352.529 203.025C352.11 203.443 351.425 203.443 351.007 203.025L350.119 202.138C349.701 201.72 349.701 201.035 350.119 200.617Z" fill="black" fill-opacity="0.07"/>
<ellipse cx="7.2805" cy="6.94474" rx="7.2805" ry="6.94474" transform="matrix(-1 0 0 1 336.117 176.925)" fill="#93CD4D"/>
<ellipse cx="7.2805" cy="6.94474" rx="7.2805" ry="6.94474" transform="matrix(-1 0 0 1 336.117 176.925)" fill="black" fill-opacity="0.07"/>
<ellipse cx="6.58058" cy="6.2299" rx="6.58058" ry="6.2299" transform="matrix(-1 0 0 1 348.198 164.315)" fill="#38F1FF" fill-opacity="0.2"/>
<ellipse cx="6.58058" cy="6.2299" rx="6.58058" ry="6.2299" transform="matrix(-1 0 0 1 348.198 164.315)" fill="black" fill-opacity="0.07"/>
<ellipse cx="6.58058" cy="6.57601" rx="6.58058" ry="6.57601" transform="matrix(-1 0 0 1 282.394 203.966)" fill="#38F1FF" fill-opacity="0.1"/>
<ellipse cx="6.58058" cy="6.57601" rx="6.58058" ry="6.57601" transform="matrix(-1 0 0 1 282.394 203.966)" fill="black" fill-opacity="0.07"/>
<ellipse cx="6.58058" cy="6.57601" rx="6.58058" ry="6.57601" transform="matrix(-1 0 0 1 348.038 261.698)" fill="#38F1FF" fill-opacity="0.1"/>
<ellipse cx="6.58058" cy="6.57601" rx="6.58058" ry="6.57601" transform="matrix(-1 0 0 1 348.038 261.698)" fill="black" fill-opacity="0.07"/>
<ellipse cx="6.58058" cy="6.57601" rx="6.58058" ry="6.57601" transform="matrix(-1 0 0 1 375.212 248.546)" fill="#38F1FF" fill-opacity="0.1"/>
<ellipse cx="6.58058" cy="6.57601" rx="6.58058" ry="6.57601" transform="matrix(-1 0 0 1 375.212 248.546)" fill="black" fill-opacity="0.07"/>
<ellipse cx="6.58058" cy="6.57601" rx="6.58058" ry="6.57601" transform="matrix(-1 0 0 1 243.604 203.966)" fill="url(#paint7_radial_2087_38435)"/>
<ellipse cx="6.58058" cy="6.57601" rx="6.58058" ry="6.57601" transform="matrix(-1 0 0 1 243.604 203.966)" fill="black" fill-opacity="0.07"/>
<ellipse cx="6.58058" cy="6.57601" rx="6.58058" ry="6.57601" transform="matrix(-1 0 0 1 229.747 229.579)" fill="url(#paint8_radial_2087_38435)"/>
<ellipse cx="6.58058" cy="6.57601" rx="6.58058" ry="6.57601" transform="matrix(-1 0 0 1 229.747 229.579)" fill="black" fill-opacity="0.07"/>
<path d="M100.129 213.185L102.475 210.84L100.129 208.496C99.7106 208.078 99.7106 207.394 100.129 206.976L101.017 206.089C101.435 205.67 102.12 205.67 102.538 206.089L104.884 208.433L107.23 206.089C107.648 205.67 108.333 205.67 108.752 206.089L109.639 206.976C110.058 207.394 110.058 208.078 109.639 208.496L107.293 210.84L109.639 213.185C110.058 213.603 110.058 214.287 109.639 214.705L108.752 215.592C108.333 216.01 107.648 216.01 107.23 215.592L104.884 213.248L102.538 215.592C102.12 216.01 101.435 216.01 101.017 215.592L100.129 214.705C99.7106 214.287 99.7106 213.603 100.129 213.185Z" fill="url(#paint9_radial_2087_38435)"/>
<path d="M100.129 213.185L102.475 210.84L100.129 208.496C99.7106 208.078 99.7106 207.394 100.129 206.976L101.017 206.089C101.435 205.67 102.12 205.67 102.538 206.089L104.884 208.433L107.23 206.089C107.648 205.67 108.333 205.67 108.752 206.089L109.639 206.976C110.058 207.394 110.058 208.078 109.639 208.496L107.293 210.84L109.639 213.185C110.058 213.603 110.058 214.287 109.639 214.705L108.752 215.592C108.333 216.01 107.648 216.01 107.23 215.592L104.884 213.248L102.538 215.592C102.12 216.01 101.435 216.01 101.017 215.592L100.129 214.705C99.7106 214.287 99.7106 213.603 100.129 213.185Z" fill="#2A5B7E"/>
<ellipse cx="6.58058" cy="6.57601" rx="6.58058" ry="6.57601" transform="matrix(-1 0 0 1 203.423 190.815)" fill="url(#paint10_radial_2087_38435)"/>
<ellipse cx="6.58058" cy="6.57601" rx="6.58058" ry="6.57601" transform="matrix(-1 0 0 1 203.423 190.815)" fill="black" fill-opacity="0.07"/>
<ellipse cx="6.58058" cy="6.57601" rx="6.58058" ry="6.57601" transform="matrix(-1 0 0 1 177.102 190.815)" fill="#38F1FF" fill-opacity="0.2"/>
<ellipse cx="6.58058" cy="6.57601" rx="6.58058" ry="6.57601" transform="matrix(-1 0 0 1 177.102 190.815)" fill="black" fill-opacity="0.07"/>
<ellipse cx="6.58058" cy="6.57601" rx="6.58058" ry="6.57601" transform="matrix(-1 0 0 1 163.94 190.815)" fill="#38F1FF" fill-opacity="0.2"/>
<ellipse cx="6.58058" cy="6.57601" rx="6.58058" ry="6.57601" transform="matrix(-1 0 0 1 163.94 190.815)" fill="black" fill-opacity="0.07"/>
<ellipse cx="6.58058" cy="6.57601" rx="6.58058" ry="6.57601" transform="matrix(-1 0 0 1 216.586 203.966)" fill="url(#paint11_radial_2087_38435)"/>
<ellipse cx="6.58058" cy="6.57601" rx="6.58058" ry="6.57601" transform="matrix(-1 0 0 1 216.586 203.966)" fill="black" fill-opacity="0.07"/>
<ellipse cx="6.58058" cy="6.57601" rx="6.58058" ry="6.57601" transform="matrix(-1 0 0 1 190.265 176.083)" fill="url(#paint12_radial_2087_38435)"/>
<ellipse cx="6.58058" cy="6.57601" rx="6.58058" ry="6.57601" transform="matrix(-1 0 0 1 190.265 176.083)" fill="black" fill-opacity="0.07"/>
<ellipse cx="6.58058" cy="6.2299" rx="6.58058" ry="6.2299" transform="matrix(-1 0 0 1 282.394 191.507)" fill="url(#paint13_radial_2087_38435)"/>
<ellipse cx="6.58058" cy="6.2299" rx="6.58058" ry="6.2299" transform="matrix(-1 0 0 1 282.394 191.507)" fill="black" fill-opacity="0.07"/>
<ellipse cx="6.58058" cy="6.2299" rx="6.58058" ry="6.2299" transform="matrix(-1 0 0 1 243.604 191.507)" fill="url(#paint14_radial_2087_38435)"/>
<ellipse cx="6.58058" cy="6.2299" rx="6.58058" ry="6.2299" transform="matrix(-1 0 0 1 243.604 191.507)" fill="black" fill-opacity="0.07"/>
<ellipse cx="6.58058" cy="6.57601" rx="6.58058" ry="6.57601" transform="matrix(-1 0 0 1 111.297 190.815)" fill="#38F1FF" fill-opacity="0.2"/>
<ellipse cx="6.58058" cy="6.57601" rx="6.58058" ry="6.57601" transform="matrix(-1 0 0 1 111.297 190.815)" fill="black" fill-opacity="0.07"/>
<ellipse cx="6.58058" cy="6.57601" rx="6.58058" ry="6.57601" transform="matrix(-1 0 0 1 84.9746 190.815)" fill="#38F1FF" fill-opacity="0.2"/>
<ellipse cx="6.58058" cy="6.57601" rx="6.58058" ry="6.57601" transform="matrix(-1 0 0 1 84.9746 190.815)" fill="black" fill-opacity="0.07"/>
<ellipse cx="6.58058" cy="6.57601" rx="6.58058" ry="6.57601" transform="matrix(-1 0 0 1 137.618 190.815)" fill="#38F1FF" fill-opacity="0.2"/>
<ellipse cx="6.58058" cy="6.57601" rx="6.58058" ry="6.57601" transform="matrix(-1 0 0 1 137.618 190.815)" fill="black" fill-opacity="0.07"/>
<ellipse cx="6.58058" cy="6.57601" rx="6.58058" ry="6.57601" transform="matrix(-1 0 0 1 150.779 203.966)" fill="#38F1FF" fill-opacity="0.2"/>
<ellipse cx="6.58058" cy="6.57601" rx="6.58058" ry="6.57601" transform="matrix(-1 0 0 1 150.779 203.966)" fill="black" fill-opacity="0.07"/>
<ellipse cx="6.58058" cy="6.57601" rx="6.58058" ry="6.57601" transform="matrix(-1 0 0 1 98.1357 203.966)" fill="#38F1FF" fill-opacity="0.2"/>
<ellipse cx="6.58058" cy="6.57601" rx="6.58058" ry="6.57601" transform="matrix(-1 0 0 1 98.1357 203.966)" fill="black" fill-opacity="0.07"/>
<ellipse cx="6.58058" cy="6.57601" rx="6.58058" ry="6.57601" transform="matrix(-1 0 0 1 84.9746 176.775)" fill="#93CD4D"/>
<ellipse cx="6.58058" cy="6.57601" rx="6.58058" ry="6.57601" transform="matrix(-1 0 0 1 84.9746 176.775)" fill="black" fill-opacity="0.07"/>
<ellipse cx="6.58058" cy="6.57601" rx="6.58058" ry="6.57601" transform="matrix(-1 0 0 1 98.1357 163.623)" fill="#93CD4D"/>
<ellipse cx="6.58058" cy="6.57601" rx="6.58058" ry="6.57601" transform="matrix(-1 0 0 1 98.1357 163.623)" fill="black" fill-opacity="0.07"/>
<ellipse cx="6.58058" cy="6.57601" rx="6.58058" ry="6.57601" transform="matrix(-1 0 0 1 141.083 126.936)" fill="#38F1FF" fill-opacity="0.2"/>
<ellipse cx="6.58058" cy="6.57601" rx="6.58058" ry="6.57601" transform="matrix(-1 0 0 1 141.083 126.936)" fill="black" fill-opacity="0.07"/>
<ellipse cx="6.58058" cy="6.57601" rx="6.58058" ry="6.57601" transform="matrix(-1 0 0 1 116.146 126.936)" fill="#38F1FF" fill-opacity="0.2"/>
<ellipse cx="6.58058" cy="6.57601" rx="6.58058" ry="6.57601" transform="matrix(-1 0 0 1 116.146 126.936)" fill="black" fill-opacity="0.07"/>
<ellipse cx="6.23424" cy="6.57601" rx="6.23424" ry="6.57601" transform="matrix(-1 0 0 1 269.232 203.966)" fill="#38F1FF" fill-opacity="0.1"/>
<ellipse cx="6.23424" cy="6.57601" rx="6.23424" ry="6.57601" transform="matrix(-1 0 0 1 269.232 203.966)" fill="black" fill-opacity="0.07"/>
<path d="M219.073 213.185L221.419 210.84L219.073 208.496C218.655 208.078 218.655 207.394 219.073 206.976L219.961 206.089C220.379 205.67 221.064 205.67 221.483 206.089L223.828 208.433L226.174 206.089C226.593 205.67 227.278 205.67 227.696 206.089L228.584 206.976C229.002 207.394 229.002 208.078 228.584 208.496L226.238 210.84L228.584 213.185C229.002 213.603 229.002 214.287 228.584 214.705L227.696 215.592C227.278 216.01 226.593 216.01 226.174 215.592L223.828 213.248L221.483 215.592C221.064 216.01 220.379 216.01 219.961 215.592L219.073 214.705C218.655 214.287 218.655 213.603 219.073 213.185Z" fill="url(#paint15_radial_2087_38435)"/>
<path d="M219.073 213.185L221.419 210.84L219.073 208.496C218.655 208.078 218.655 207.394 219.073 206.976L219.961 206.089C220.379 205.67 221.064 205.67 221.483 206.089L223.828 208.433L226.174 206.089C226.593 205.67 227.278 205.67 227.696 206.089L228.584 206.976C229.002 207.394 229.002 208.078 228.584 208.496L226.238 210.84L228.584 213.185C229.002 213.603 229.002 214.287 228.584 214.705L227.696 215.592C227.278 216.01 226.593 216.01 226.174 215.592L223.828 213.248L221.483 215.592C221.064 216.01 220.379 216.01 219.961 215.592L219.073 214.705C218.655 214.287 218.655 213.603 219.073 213.185Z" fill="black" fill-opacity="0.07"/>
<ellipse cx="6.58058" cy="6.57601" rx="6.58058" ry="6.57601" transform="matrix(-1 0 0 1 190.265 203.966)" fill="url(#paint16_radial_2087_38435)"/>
<ellipse cx="6.58058" cy="6.57601" rx="6.58058" ry="6.57601" transform="matrix(-1 0 0 1 190.265 203.966)" fill="black" fill-opacity="0.07"/>
<ellipse cx="6.23424" cy="6.2299" rx="6.23424" ry="6.2299" transform="matrix(-1 0 0 1 269.232 191.507)" fill="url(#paint17_radial_2087_38435)"/>
<ellipse cx="6.23424" cy="6.2299" rx="6.23424" ry="6.2299" transform="matrix(-1 0 0 1 269.232 191.507)" fill="black" fill-opacity="0.07"/>
<ellipse cx="6.58058" cy="6.57601" rx="6.58058" ry="6.57601" transform="matrix(-1 0 0 1 206.195 163.623)" fill="url(#paint18_radial_2087_38435)"/>
<ellipse cx="6.58058" cy="6.57601" rx="6.58058" ry="6.57601" transform="matrix(-1 0 0 1 206.195 163.623)" fill="black" fill-opacity="0.07"/>
<ellipse cx="6.58058" cy="6.57601" rx="6.58058" ry="6.57601" transform="matrix(-1 0 0 1 177.102 163.623)" fill="#38F1FF" fill-opacity="0.2"/>
<ellipse cx="6.58058" cy="6.57601" rx="6.58058" ry="6.57601" transform="matrix(-1 0 0 1 177.102 163.623)" fill="black" fill-opacity="0.07"/>
<ellipse cx="6.58058" cy="6.57601" rx="6.58058" ry="6.57601" transform="matrix(-1 0 0 1 57.958 217.747)" fill="url(#paint19_radial_2087_38435)"/>
<ellipse cx="6.58058" cy="6.57601" rx="6.58058" ry="6.57601" transform="matrix(-1 0 0 1 57.958 217.747)" fill="black" fill-opacity="0.07"/>
<ellipse cx="6.58058" cy="6.2299" rx="6.58058" ry="6.2299" transform="matrix(-1 0 0 1 5.31445 164.315)" fill="url(#paint20_radial_2087_38435)"/>
<ellipse cx="6.58058" cy="6.2299" rx="6.58058" ry="6.2299" transform="matrix(-1 0 0 1 5.31445 164.315)" fill="black" fill-opacity="0.07"/>
<ellipse cx="6.23424" cy="6.2299" rx="6.23424" ry="6.2299" transform="matrix(-1 0 0 1 17.7832 191.506)" fill="#38F1FF" fill-opacity="0.2"/>
<ellipse cx="6.23424" cy="6.2299" rx="6.23424" ry="6.2299" transform="matrix(-1 0 0 1 17.7832 191.506)" fill="black" fill-opacity="0.07"/>
<ellipse cx="6.23424" cy="6.57601" rx="6.23424" ry="6.57601" transform="matrix(-1 0 0 1 17.7832 203.966)" fill="#38F1FF" fill-opacity="0.1"/>
<ellipse cx="6.23424" cy="6.57601" rx="6.23424" ry="6.57601" transform="matrix(-1 0 0 1 17.7832 203.966)" fill="black" fill-opacity="0.07"/>
<ellipse cx="6.58058" cy="6.57601" rx="6.58058" ry="6.57601" transform="matrix(-1 0 0 1 71.1211 203.966)" fill="url(#paint21_radial_2087_38435)"/>
<ellipse cx="6.58058" cy="6.57601" rx="6.58058" ry="6.57601" transform="matrix(-1 0 0 1 71.1211 203.966)" fill="black" fill-opacity="0.07"/>
<ellipse cx="6.58058" cy="6.57601" rx="6.58058" ry="6.57601" transform="matrix(-1 0 0 1 71.1211 233.731)" fill="url(#paint22_radial_2087_38435)"/>
<ellipse cx="6.58058" cy="6.57601" rx="6.58058" ry="6.57601" transform="matrix(-1 0 0 1 71.1211 233.731)" fill="black" fill-opacity="0.07"/>
<ellipse cx="6.92693" cy="6.2299" rx="6.92693" ry="6.2299" transform="matrix(-1 0 0 1 44.7969 191.506)" fill="url(#paint23_radial_2087_38435)"/>
<ellipse cx="6.92693" cy="6.2299" rx="6.92693" ry="6.2299" transform="matrix(-1 0 0 1 44.7969 191.506)" fill="black" fill-opacity="0.07"/>
<circle cx="6.28334" cy="6.28334" r="6.28334" transform="matrix(-1 0 0 1 18.0176 177.586)" fill="#93CD4D"/>
<circle cx="6.28334" cy="6.28334" r="6.28334" transform="matrix(-1 0 0 1 18.0176 177.586)" fill="#B8D346"/>
<ellipse cx="6.58058" cy="6.2299" rx="6.58058" ry="6.2299" transform="matrix(-1 0 0 1 57.958 191.506)" fill="url(#paint24_radial_2087_38435)"/>
<ellipse cx="6.58058" cy="6.2299" rx="6.58058" ry="6.2299" transform="matrix(-1 0 0 1 57.958 191.506)" fill="black" fill-opacity="0.07"/>
<ellipse cx="6.58058" cy="6.92211" rx="6.58058" ry="6.92211" transform="matrix(-1 0 0 1 57.958 146.318)" fill="#38F1FF" fill-opacity="0.2"/>
<ellipse cx="6.58058" cy="6.92211" rx="6.58058" ry="6.92211" transform="matrix(-1 0 0 1 57.958 146.318)" fill="black" fill-opacity="0.07"/>
<path d="M135.519 35.5702C125.781 35.5702 117.887 27.6815 117.887 17.9504C117.887 8.21922 125.781 0.330566 135.519 0.330566C145.257 0.330566 153.151 8.21922 153.151 17.9504C153.151 27.6815 145.257 35.5702 135.519 35.5702Z" stroke="#2A5B7E" stroke-width="0.661404" stroke-miterlimit="10"/>
<path d="M135.653 23.9684C132.225 23.9684 129.446 21.1914 129.446 17.7657C129.446 14.34 132.225 11.563 135.653 11.563C139.081 11.563 141.86 14.34 141.86 17.7657C141.86 21.1914 139.081 23.9684 135.653 23.9684Z" fill="#38F1FF" fill-opacity="0.2"/>
<path d="M135.653 23.9684C132.225 23.9684 129.446 21.1914 129.446 17.7657C129.446 14.34 132.225 11.563 135.653 11.563C139.081 11.563 141.86 14.34 141.86 17.7657C141.86 21.1914 139.081 23.9684 135.653 23.9684Z" fill="black" fill-opacity="0.07"/>
<path d="M189.594 67.7497C186.166 67.7497 183.387 64.9726 183.387 61.547C183.387 58.1213 186.166 55.3442 189.594 55.3442C193.022 55.3442 195.801 58.1213 195.801 61.547C195.801 64.9726 193.022 67.7497 189.594 67.7497Z" fill="#38F1FF" fill-opacity="0.2"/>
<path d="M189.594 67.7497C186.166 67.7497 183.387 64.9726 183.387 61.547C183.387 58.1213 186.166 55.3442 189.594 55.3442C193.022 55.3442 195.801 58.1213 195.801 61.547C195.801 64.9726 193.022 67.7497 189.594 67.7497Z" fill="black" fill-opacity="0.07"/>
<path opacity="0.92" d="M140.49 103.756L138.353 101.621L140.49 99.4856C140.87 99.1054 140.87 98.4845 140.49 98.098L139.685 97.2934C139.304 96.9133 138.683 96.9133 138.296 97.2934L136.16 99.4286L134.023 97.2934C133.643 96.9133 133.021 96.9133 132.635 97.2934L131.829 98.098C131.449 98.4782 131.449 99.0991 131.829 99.4856L133.966 101.621L131.829 103.756C131.449 104.136 131.449 104.757 131.829 105.143L132.635 105.948C133.015 106.328 133.636 106.328 134.023 105.948L136.16 103.813L138.296 105.948C138.677 106.328 139.298 106.328 139.685 105.948L140.49 105.143C140.87 104.763 140.87 104.142 140.49 103.756Z" fill="#E5E5E5"/>
<path d="M-9.42223 213.805C-15.6621 213.805 -20.7204 208.75 -20.7204 202.514C-20.7204 196.279 -15.6621 191.224 -9.42223 191.224C-3.18241 191.224 1.87598 196.279 1.87598 202.514C1.87598 208.75 -3.18241 213.805 -9.42223 213.805Z" stroke="url(#paint25_linear_2087_38435)" stroke-opacity="0.4" stroke-width="0.661404" stroke-miterlimit="10"/>
<path d="M181.871 259.428C175.631 259.428 170.573 254.373 170.573 248.138C170.573 241.902 175.631 236.847 181.871 236.847C188.111 236.847 193.169 241.902 193.169 248.138C193.169 254.373 188.111 259.428 181.871 259.428Z" stroke="url(#paint26_linear_2087_38435)" stroke-opacity="0.4" stroke-width="0.661404" stroke-miterlimit="10"/>
<defs>
<radialGradient id="paint0_radial_2087_38435" cx="0" cy="0" r="1" gradientTransform="matrix(-5.36958 34.4489 -15.7606 -13.9183 11.9502 -13.7772)" gradientUnits="userSpaceOnUse">
<stop offset="0.350584" stop-color="#0FB8C5"/>
<stop offset="1" stop-color="#93CD4D"/>
</radialGradient>
<radialGradient id="paint1_radial_2087_38435" cx="0" cy="0" r="1" gradientTransform="matrix(-5.36958 32.6358 -15.7606 -13.1858 11.9502 -13.0521)" gradientUnits="userSpaceOnUse">
<stop offset="0.350584" stop-color="#0FB8C5"/>
<stop offset="1" stop-color="#93CD4D"/>
</radialGradient>
<radialGradient id="paint2_radial_2087_38435" cx="0" cy="0" r="1" gradientTransform="matrix(-5.36958 34.4489 -15.7606 -13.9183 11.9502 -13.7772)" gradientUnits="userSpaceOnUse">
<stop offset="0.350584" stop-color="#0FB8C5"/>
<stop offset="1" stop-color="#93CD4D"/>
</radialGradient>
<radialGradient id="paint3_radial_2087_38435" cx="0" cy="0" r="1" gradientTransform="matrix(-5.36958 34.4489 -15.7606 -13.9183 11.9502 -13.7772)" gradientUnits="userSpaceOnUse">
<stop offset="0.350584" stop-color="#0FB8C5"/>
<stop offset="1" stop-color="#93CD4D"/>
</radialGradient>
<radialGradient id="paint4_radial_2087_38435" cx="0" cy="0" r="1" gradientTransform="matrix(-5.36958 34.4489 -15.7606 -13.9183 11.9502 -13.7772)" gradientUnits="userSpaceOnUse">
<stop offset="0.350584" stop-color="#0FB8C5"/>
<stop offset="1" stop-color="#93CD4D"/>
</radialGradient>
<radialGradient id="paint5_radial_2087_38435" cx="0" cy="0" r="1" gradientTransform="matrix(-5.08698 32.6358 -14.9311 -13.1858 11.3212 -13.0521)" gradientUnits="userSpaceOnUse">
<stop offset="0.350584" stop-color="#0FB8C5"/>
<stop offset="1" stop-color="#93CD4D"/>
</radialGradient>
<radialGradient id="paint6_radial_2087_38435" cx="0" cy="0" r="1" gradientTransform="matrix(4.13615 26.5358 12.1403 -10.7212 350.738 182.595)" gradientUnits="userSpaceOnUse">
<stop offset="0.350584" stop-color="#0FB8C5"/>
<stop offset="1" stop-color="#93CD4D"/>
</radialGradient>
<radialGradient id="paint7_radial_2087_38435" cx="0" cy="0" r="1" gradientTransform="matrix(-5.36958 34.4489 -15.7606 -13.9183 11.9502 -13.7772)" gradientUnits="userSpaceOnUse">
<stop offset="0.350584" stop-color="#0FB8C5"/>
<stop offset="1" stop-color="#93CD4D"/>
</radialGradient>
<radialGradient id="paint8_radial_2087_38435" cx="0" cy="0" r="1" gradientTransform="matrix(-5.36958 34.4489 -15.7606 -13.9183 11.9502 -13.7772)" gradientUnits="userSpaceOnUse">
<stop offset="0.350584" stop-color="#0FB8C5"/>
<stop offset="1" stop-color="#93CD4D"/>
</radialGradient>
<radialGradient id="paint9_radial_2087_38435" cx="0" cy="0" r="1" gradientTransform="matrix(4.13615 26.5358 12.1403 -10.7212 100.748 195.162)" gradientUnits="userSpaceOnUse">
<stop offset="0.350584" stop-color="#0FB8C5"/>
<stop offset="1" stop-color="#93CD4D"/>
</radialGradient>
<radialGradient id="paint10_radial_2087_38435" cx="0" cy="0" r="1" gradientTransform="matrix(-5.36958 34.4489 -15.7606 -13.9183 11.9502 -13.7772)" gradientUnits="userSpaceOnUse">
<stop offset="0.350584" stop-color="#0FB8C5"/>
<stop offset="1" stop-color="#93CD4D"/>
</radialGradient>
<radialGradient id="paint11_radial_2087_38435" cx="0" cy="0" r="1" gradientTransform="matrix(-5.36958 34.4489 -15.7606 -13.9183 11.9502 -13.7772)" gradientUnits="userSpaceOnUse">
<stop offset="0.350584" stop-color="#0FB8C5"/>
<stop offset="1" stop-color="#93CD4D"/>
</radialGradient>
<radialGradient id="paint12_radial_2087_38435" cx="0" cy="0" r="1" gradientTransform="matrix(-5.36958 34.4489 -15.7606 -13.9183 11.9502 -13.7772)" gradientUnits="userSpaceOnUse">
<stop offset="0.350584" stop-color="#0FB8C5"/>
<stop offset="1" stop-color="#93CD4D"/>
</radialGradient>
<radialGradient id="paint13_radial_2087_38435" cx="0" cy="0" r="1" gradientTransform="matrix(-5.36958 32.6358 -15.7606 -13.1858 11.9502 -13.0521)" gradientUnits="userSpaceOnUse">
<stop offset="0.350584" stop-color="#0FB8C5"/>
<stop offset="1" stop-color="#93CD4D"/>
</radialGradient>
<radialGradient id="paint14_radial_2087_38435" cx="0" cy="0" r="1" gradientTransform="matrix(-5.36958 32.6358 -15.7606 -13.1858 11.9502 -13.0521)" gradientUnits="userSpaceOnUse">
<stop offset="0.350584" stop-color="#0FB8C5"/>
<stop offset="1" stop-color="#93CD4D"/>
</radialGradient>
<radialGradient id="paint15_radial_2087_38435" cx="0" cy="0" r="1" gradientTransform="matrix(4.13615 26.5358 12.1403 -10.7212 219.692 195.162)" gradientUnits="userSpaceOnUse">
<stop offset="0.350584" stop-color="#0FB8C5"/>
<stop offset="1" stop-color="#93CD4D"/>
</radialGradient>
<radialGradient id="paint16_radial_2087_38435" cx="0" cy="0" r="1" gradientTransform="matrix(-5.36958 34.4489 -15.7606 -13.9183 11.9502 -13.7772)" gradientUnits="userSpaceOnUse">
<stop offset="0.350584" stop-color="#0FB8C5"/>
<stop offset="1" stop-color="#93CD4D"/>
</radialGradient>
<radialGradient id="paint17_radial_2087_38435" cx="0" cy="0" r="1" gradientTransform="matrix(-5.08698 32.6358 -14.9311 -13.1858 11.3212 -13.0521)" gradientUnits="userSpaceOnUse">
<stop offset="0.350584" stop-color="#0FB8C5"/>
<stop offset="1" stop-color="#93CD4D"/>
</radialGradient>
<radialGradient id="paint18_radial_2087_38435" cx="0" cy="0" r="1" gradientTransform="matrix(-5.36958 34.4489 -15.7606 -13.9183 11.9502 -13.7772)" gradientUnits="userSpaceOnUse">
<stop offset="0.350584" stop-color="#0FB8C5"/>
<stop offset="1" stop-color="#93CD4D"/>
</radialGradient>
<radialGradient id="paint19_radial_2087_38435" cx="0" cy="0" r="1" gradientTransform="matrix(-5.36958 34.4489 -15.7606 -13.9183 11.9502 -13.7772)" gradientUnits="userSpaceOnUse">
<stop offset="0.350584" stop-color="#0FB8C5"/>
<stop offset="1" stop-color="#93CD4D"/>
</radialGradient>
<radialGradient id="paint20_radial_2087_38435" cx="0" cy="0" r="1" gradientTransform="matrix(-5.36958 32.6358 -15.7606 -13.1858 11.9502 -13.0521)" gradientUnits="userSpaceOnUse">
<stop offset="0.350584" stop-color="#0FB8C5"/>
<stop offset="1" stop-color="#93CD4D"/>
</radialGradient>
<radialGradient id="paint21_radial_2087_38435" cx="0" cy="0" r="1" gradientTransform="matrix(-5.36958 34.4489 -15.7606 -13.9183 11.9502 -13.7772)" gradientUnits="userSpaceOnUse">
<stop offset="0.350584" stop-color="#0FB8C5"/>
<stop offset="1" stop-color="#93CD4D"/>
</radialGradient>
<radialGradient id="paint22_radial_2087_38435" cx="0" cy="0" r="1" gradientTransform="matrix(-5.36958 34.4489 -15.7606 -13.9183 11.9502 -13.7772)" gradientUnits="userSpaceOnUse">
<stop offset="0.350584" stop-color="#0FB8C5"/>
<stop offset="1" stop-color="#93CD4D"/>
</radialGradient>
<radialGradient id="paint23_radial_2087_38435" cx="0" cy="0" r="1" gradientTransform="matrix(-5.65219 32.6358 -16.5901 -13.1858 12.5791 -13.0521)" gradientUnits="userSpaceOnUse">
<stop offset="0.350584" stop-color="#0FB8C5"/>
<stop offset="1" stop-color="#93CD4D"/>
</radialGradient>
<radialGradient id="paint24_radial_2087_38435" cx="0" cy="0" r="1" gradientTransform="matrix(-5.36958 32.6358 -15.7606 -13.1858 11.9502 -13.0521)" gradientUnits="userSpaceOnUse">
<stop offset="0.350584" stop-color="#0FB8C5"/>
<stop offset="1" stop-color="#93CD4D"/>
</radialGradient>
<linearGradient id="paint25_linear_2087_38435" x1="-15.6845" y1="189.691" x2="-5.34326" y2="215.072" gradientUnits="userSpaceOnUse">
<stop stop-color="#93CD4D"/>
<stop offset="1" stop-color="#0FB8C5"/>
</linearGradient>
<linearGradient id="paint26_linear_2087_38435" x1="175.608" y1="235.314" x2="185.95" y2="260.695" gradientUnits="userSpaceOnUse">
<stop stop-color="#93CD4D"/>
<stop offset="1" stop-color="#0FB8C5"/>
</linearGradient>
</defs>
</svg>
