<svg width="1437" height="326" viewBox="0 0 1437 326" fill="none" xmlns="http://www.w3.org/2000/svg">
<g clip-path="url(#clip0_2087_37516)">
<ellipse cx="170.184" cy="261.828" rx="9.94942" ry="9.9425" fill="#38F1FF" fill-opacity="0.2"/>
<ellipse cx="170.184" cy="261.828" rx="9.94942" ry="9.9425" fill="black" fill-opacity="0.07"/>
<path d="M116.807 301.203L113.26 297.659L116.807 294.114C117.439 293.482 117.439 292.448 116.807 291.815L115.464 290.474C114.832 289.842 113.797 289.842 113.164 290.474L109.617 294.019L106.07 290.474C105.438 289.842 104.402 289.842 103.77 290.474L102.428 291.815C101.795 292.448 101.795 293.482 102.428 294.114L105.974 297.659L102.428 301.203C101.795 301.835 101.795 302.87 102.428 303.502L103.77 304.843C104.402 305.475 105.438 305.475 106.07 304.843L109.617 301.299L113.164 304.843C113.797 305.475 114.832 305.475 115.464 304.843L116.807 303.502C117.439 302.87 117.439 301.835 116.807 301.203Z" fill="url(#paint0_radial_2087_37516)"/>
<path d="M116.807 301.203L113.26 297.659L116.807 294.114C117.439 293.482 117.439 292.448 116.807 291.815L115.464 290.474C114.832 289.842 113.797 289.842 113.164 290.474L109.617 294.019L106.07 290.474C105.438 289.842 104.402 289.842 103.77 290.474L102.428 291.815C101.795 292.448 101.795 293.482 102.428 294.114L105.974 297.659L102.428 301.203C101.795 301.835 101.795 302.87 102.428 303.502L103.77 304.843C104.402 305.475 105.438 305.475 106.07 304.843L109.617 301.299L113.164 304.843C113.797 305.475 114.832 305.475 115.464 304.843L116.807 303.502C117.439 302.87 117.439 301.835 116.807 301.203Z" fill="#2A5B7E"/>
<ellipse cx="170.184" cy="241.943" rx="9.94942" ry="9.9425" fill="#38F1FF" fill-opacity="0.2"/>
<ellipse cx="170.184" cy="241.943" rx="9.94942" ry="9.9425" fill="black" fill-opacity="0.07"/>
<ellipse cx="109.442" cy="257.354" rx="9.94942" ry="9.41921" fill="#38F1FF" fill-opacity="0.2"/>
<ellipse cx="109.442" cy="257.354" rx="9.94942" ry="9.41921" fill="black" fill-opacity="0.07"/>
<ellipse cx="129.34" cy="316.485" rx="9.94942" ry="9.9425" fill="#38F1FF" fill-opacity="0.2"/>
<ellipse cx="129.34" cy="316.485" rx="9.94942" ry="9.9425" fill="black" fill-opacity="0.07"/>
<ellipse cx="129.34" cy="297.647" rx="9.94942" ry="9.9425" fill="#38F1FF" fill-opacity="0.2"/>
<ellipse cx="129.34" cy="297.647" rx="9.94942" ry="9.9425" fill="black" fill-opacity="0.07"/>
<ellipse cx="129.34" cy="277.238" rx="9.94942" ry="10.4658" fill="#38F1FF" fill-opacity="0.2"/>
<ellipse cx="129.34" cy="277.238" rx="9.94942" ry="10.4658" fill="black" fill-opacity="0.07"/>
<ellipse cx="149.762" cy="296.601" rx="10.4731" ry="9.9425" fill="#93CD4D"/>
<ellipse cx="149.762" cy="296.601" rx="10.4731" ry="9.9425" fill="black" fill-opacity="0.07"/>
<ellipse cx="170.184" cy="296.601" rx="9.94942" ry="9.9425" fill="url(#paint1_radial_2087_37516)"/>
<ellipse cx="170.184" cy="296.601" rx="9.94942" ry="9.9425" fill="black" fill-opacity="0.07"/>
<ellipse cx="29.8479" cy="316.485" rx="9.94942" ry="9.9425" fill="url(#paint2_radial_2087_37516)"/>
<ellipse cx="29.8479" cy="316.485" rx="9.94942" ry="9.9425" fill="black" fill-opacity="0.07"/>
<ellipse cx="50.2699" cy="296.601" rx="10.4731" ry="9.9425" fill="#38F1FF" fill-opacity="0.1"/>
<ellipse cx="50.2699" cy="296.601" rx="10.4731" ry="9.9425" fill="black" fill-opacity="0.07"/>
<ellipse cx="90.0664" cy="316.485" rx="9.42576" ry="9.9425" fill="url(#paint3_radial_2087_37516)"/>
<ellipse cx="90.0664" cy="316.485" rx="9.42576" ry="9.9425" fill="black" fill-opacity="0.07"/>
<ellipse cx="90.0664" cy="297.647" rx="9.42576" ry="9.9425" fill="#38F1FF" fill-opacity="0.2"/>
<ellipse cx="90.0664" cy="297.647" rx="9.42576" ry="9.9425" fill="black" fill-opacity="0.07"/>
<ellipse cx="90.0155" cy="277.5" rx="11.0076" ry="10.5" fill="#93CD4D"/>
<ellipse cx="90.0155" cy="277.5" rx="11.0076" ry="10.5" fill="black" fill-opacity="0.07"/>
<ellipse cx="70.6916" cy="316.485" rx="9.94942" ry="9.9425" fill="url(#paint4_radial_2087_37516)"/>
<ellipse cx="70.6916" cy="316.485" rx="9.94942" ry="9.9425" fill="black" fill-opacity="0.07"/>
<ellipse cx="70.6916" cy="257.354" rx="9.94942" ry="9.41921" fill="#38F1FF" fill-opacity="0.2"/>
<ellipse cx="70.6916" cy="257.354" rx="9.94942" ry="9.41921" fill="black" fill-opacity="0.07"/>
<ellipse cx="29.8479" cy="296.601" rx="9.94942" ry="9.9425" fill="url(#paint5_radial_2087_37516)"/>
<ellipse cx="29.8479" cy="296.601" rx="9.94942" ry="9.9425" fill="black" fill-opacity="0.07"/>
<ellipse cx="309.477" cy="295.554" rx="9.94942" ry="9.9425" fill="url(#paint6_radial_2087_37516)"/>
<ellipse cx="309.477" cy="295.554" rx="9.94942" ry="9.9425" fill="black" fill-opacity="0.07"/>
<ellipse cx="329.379" cy="315.44" rx="9.94942" ry="9.9425" fill="url(#paint7_radial_2087_37516)"/>
<ellipse cx="329.379" cy="315.44" rx="9.94942" ry="9.9425" fill="black" fill-opacity="0.07"/>
<path d="M316.017 320.203L312.471 316.659L316.017 313.114C316.65 312.482 316.65 311.448 316.017 310.815L314.675 309.474C314.043 308.842 313.008 308.842 312.375 309.474L308.828 313.019L305.281 309.474C304.649 308.842 303.613 308.842 302.981 309.474L301.639 310.815C301.006 311.448 301.006 312.482 301.639 313.114L305.185 316.659L301.639 320.203C301.006 320.835 301.006 321.87 301.639 322.502L302.981 323.843C303.613 324.475 304.649 324.475 305.281 323.843L308.828 320.299L312.375 323.843C313.008 324.475 314.043 324.475 314.675 323.843L316.017 322.502C316.65 321.87 316.65 320.835 316.017 320.203Z" fill="url(#paint8_radial_2087_37516)"/>
<path d="M316.017 320.203L312.471 316.659L316.017 313.114C316.65 312.482 316.65 311.448 316.017 310.815L314.675 309.474C314.043 308.842 313.008 308.842 312.375 309.474L308.828 313.019L305.281 309.474C304.649 308.842 303.613 308.842 302.981 309.474L301.639 310.815C301.006 311.448 301.006 312.482 301.639 313.114L305.185 316.659L301.639 320.203C301.006 320.835 301.006 321.87 301.639 322.502L302.981 323.843C303.613 324.475 304.649 324.475 305.281 323.843L308.828 320.299L312.375 323.843C313.008 324.475 314.043 324.475 314.675 323.843L316.017 322.502C316.65 321.87 316.65 320.835 316.017 320.203Z" fill="black" fill-opacity="0.07"/>
<ellipse cx="289.582" cy="315.44" rx="9.94942" ry="9.9425" fill="url(#paint9_radial_2087_37516)"/>
<ellipse cx="289.582" cy="315.44" rx="9.94942" ry="9.9425" fill="black" fill-opacity="0.07"/>
<ellipse cx="309.477" cy="275.669" rx="9.94942" ry="9.9425" fill="url(#paint10_radial_2087_37516)"/>
<ellipse cx="309.477" cy="275.669" rx="9.94942" ry="9.9425" fill="black" fill-opacity="0.07"/>
<ellipse cx="468.668" cy="315.44" rx="9.94942" ry="9.9425" fill="#93CD4D"/>
<ellipse cx="468.668" cy="315.44" rx="9.94942" ry="9.9425" fill="black" fill-opacity="0.07"/>
<ellipse cx="408.973" cy="315.44" rx="9.94942" ry="9.9425" fill="#38F1FF" fill-opacity="0.2"/>
<ellipse cx="408.973" cy="315.44" rx="9.94942" ry="9.9425" fill="black" fill-opacity="0.07"/>
<ellipse cx="448.77" cy="315.44" rx="9.94942" ry="9.9425" fill="#38F1FF" fill-opacity="0.2"/>
<ellipse cx="448.77" cy="315.44" rx="9.94942" ry="9.9425" fill="black" fill-opacity="0.07"/>
<ellipse cx="468.668" cy="276.715" rx="9.94942" ry="9.9425" fill="#93CD4D"/>
<ellipse cx="468.668" cy="276.715" rx="9.94942" ry="9.9425" fill="black" fill-opacity="0.07"/>
<ellipse cx="448.77" cy="256.83" rx="9.94942" ry="9.9425" fill="#93CD4D"/>
<ellipse cx="448.77" cy="256.83" rx="9.94942" ry="9.9425" fill="black" fill-opacity="0.07"/>
<ellipse cx="408.973" cy="295.554" rx="9.94942" ry="9.9425" fill="#38F1FF" fill-opacity="0.2"/>
<ellipse cx="408.973" cy="295.554" rx="9.94942" ry="9.9425" fill="black" fill-opacity="0.07"/>
<ellipse cx="188.949" cy="314.943" rx="9.94942" ry="9.9425" fill="#38F1FF" fill-opacity="0.2"/>
<ellipse cx="188.949" cy="314.943" rx="9.94942" ry="9.9425" fill="black" fill-opacity="0.07"/>
<ellipse cx="208.949" cy="314.943" rx="9.94942" ry="9.9425" fill="#38F1FF" fill-opacity="0.2"/>
<ellipse cx="208.949" cy="314.943" rx="9.94942" ry="9.9425" fill="black" fill-opacity="0.07"/>
<ellipse cx="228.949" cy="314.943" rx="9.94942" ry="9.9425" fill="#38F1FF" fill-opacity="0.2"/>
<ellipse cx="228.949" cy="314.943" rx="9.94942" ry="9.9425" fill="black" fill-opacity="0.07"/>
<ellipse cx="248.949" cy="294.943" rx="9.94942" ry="9.9425" fill="#38F1FF" fill-opacity="0.2"/>
<ellipse cx="248.949" cy="294.943" rx="9.94942" ry="9.9425" fill="black" fill-opacity="0.07"/>
<ellipse cx="383.836" cy="201.361" rx="9.94942" ry="9.9425" fill="#38F1FF" fill-opacity="0.2"/>
<ellipse cx="383.836" cy="201.361" rx="9.94942" ry="9.9425" fill="black" fill-opacity="0.07"/>
<ellipse cx="421.539" cy="201.361" rx="9.94942" ry="9.9425" fill="#38F1FF" fill-opacity="0.2"/>
<ellipse cx="421.539" cy="201.361" rx="9.94942" ry="9.9425" fill="black" fill-opacity="0.07"/>
<ellipse cx="285.391" cy="256.83" rx="9.94942" ry="9.9425" fill="url(#paint11_radial_2087_37516)"/>
<ellipse cx="285.391" cy="256.83" rx="9.94942" ry="9.9425" fill="black" fill-opacity="0.07"/>
<ellipse cx="329.379" cy="256.83" rx="9.94942" ry="9.9425" fill="#38F1FF" fill-opacity="0.2"/>
<ellipse cx="329.379" cy="256.83" rx="9.94942" ry="9.9425" fill="black" fill-opacity="0.07"/>
<ellipse cx="369.176" cy="300.787" rx="9.94942" ry="9.9425" fill="url(#paint12_radial_2087_37516)"/>
<ellipse cx="369.176" cy="300.787" rx="9.94942" ry="9.9425" fill="black" fill-opacity="0.07"/>
<ellipse cx="629.43" cy="316.485" rx="10.4731" ry="9.9425" fill="url(#paint13_radial_2087_37516)"/>
<ellipse cx="629.43" cy="316.485" rx="10.4731" ry="9.9425" fill="black" fill-opacity="0.07"/>
<ellipse cx="589.11" cy="316.485" rx="9.94942" ry="9.9425" fill="url(#paint14_radial_2087_37516)"/>
<ellipse cx="589.11" cy="316.485" rx="9.94942" ry="9.9425" fill="black" fill-opacity="0.07"/>
<ellipse cx="589.11" cy="297.647" rx="9.94942" ry="9.9425" fill="url(#paint15_radial_2087_37516)"/>
<ellipse cx="589.11" cy="297.647" rx="9.94942" ry="9.9425" fill="black" fill-opacity="0.07"/>
<ellipse cx="589.11" cy="257.354" rx="9.94942" ry="9.41921" fill="url(#paint16_radial_2087_37516)"/>
<ellipse cx="589.11" cy="257.354" rx="9.94942" ry="9.41921" fill="black" fill-opacity="0.07"/>
<ellipse cx="609.008" cy="316.485" rx="9.94942" ry="9.9425" fill="#38F1FF" fill-opacity="0.2"/>
<ellipse cx="609.008" cy="316.485" rx="9.94942" ry="9.9425" fill="black" fill-opacity="0.07"/>
<ellipse cx="609.008" cy="277.238" rx="9.94942" ry="10.4658" fill="#93CD4D"/>
<ellipse cx="609.008" cy="277.238" rx="9.94942" ry="10.4658" fill="black" fill-opacity="0.07"/>
<ellipse cx="509.516" cy="316.485" rx="9.94942" ry="9.9425" fill="url(#paint17_radial_2087_37516)"/>
<ellipse cx="509.516" cy="316.485" rx="9.94942" ry="9.9425" fill="black" fill-opacity="0.07"/>
<ellipse cx="569.734" cy="316.485" rx="9.42576" ry="9.9425" fill="#38F1FF" fill-opacity="0.2"/>
<ellipse cx="569.734" cy="316.485" rx="9.42576" ry="9.9425" fill="black" fill-opacity="0.07"/>
<circle cx="569.453" cy="277.5" r="9.5" fill="#93CD4D"/>
<circle cx="569.453" cy="277.5" r="9.5" fill="#93CD4D"/>
<ellipse cx="550.356" cy="316.485" rx="9.94942" ry="9.9425" fill="#38F1FF" fill-opacity="0.2"/>
<ellipse cx="550.356" cy="316.485" rx="9.94942" ry="9.9425" fill="black" fill-opacity="0.07"/>
<ellipse cx="509.516" cy="231.189" rx="9.94942" ry="10.4658" fill="#38F1FF" fill-opacity="0.2"/>
<ellipse cx="509.516" cy="231.189" rx="9.94942" ry="10.4658" fill="black" fill-opacity="0.07"/>
<path d="M516.154 300.203L512.607 296.659L516.154 293.114C516.787 292.482 516.787 291.448 516.154 290.815L514.812 289.474C514.179 288.842 513.144 288.842 512.512 289.474L508.965 293.019L505.418 289.474C504.785 288.842 503.75 288.842 503.117 289.474L501.775 290.815C501.143 291.448 501.143 292.482 501.775 293.114L505.322 296.659L501.775 300.203C501.143 300.835 501.143 301.87 501.775 302.502L503.117 303.843C503.75 304.475 504.785 304.475 505.418 303.843L508.965 300.299L512.512 303.843C513.144 304.475 514.179 304.475 514.812 303.843L516.154 302.502C516.787 301.87 516.787 300.835 516.154 300.203Z" fill="url(#paint18_radial_2087_37516)"/>
<path d="M516.154 300.203L512.607 296.659L516.154 293.114C516.787 292.482 516.787 291.448 516.154 290.815L514.812 289.474C514.179 288.842 513.144 288.842 512.512 289.474L508.965 293.019L505.418 289.474C504.785 288.842 503.75 288.842 503.117 289.474L501.775 290.815C501.143 291.448 501.143 292.482 501.775 293.114L505.322 296.659L501.775 300.203C501.143 300.835 501.143 301.87 501.775 302.502L503.117 303.843C503.75 304.475 504.785 304.475 505.418 303.843L508.965 300.299L512.512 303.843C513.144 304.475 514.179 304.475 514.812 303.843L516.154 302.502C516.787 301.87 516.787 300.835 516.154 300.203Z" fill="black" fill-opacity="0.07"/>
<ellipse cx="489.613" cy="296.601" rx="9.94942" ry="9.9425" fill="url(#paint19_radial_2087_37516)"/>
<ellipse cx="489.613" cy="296.601" rx="9.94942" ry="9.9425" fill="black" fill-opacity="0.07"/>
<ellipse cx="789.145" cy="295.554" rx="9.94942" ry="9.9425" fill="url(#paint20_radial_2087_37516)"/>
<ellipse cx="789.145" cy="295.554" rx="9.94942" ry="9.9425" fill="black" fill-opacity="0.07"/>
<path d="M816.361 319.203L812.814 315.659L816.361 312.114C816.994 311.482 816.994 310.448 816.361 309.815L815.019 308.474C814.387 307.842 813.351 307.842 812.719 308.474L809.172 312.019L805.625 308.474C804.992 307.842 803.957 307.842 803.324 308.474L801.982 309.815C801.35 310.448 801.35 311.482 801.982 312.114L805.529 315.659L801.982 319.203C801.35 319.835 801.35 320.87 801.982 321.502L803.324 322.843C803.957 323.475 804.992 323.475 805.625 322.843L809.172 319.299L812.719 322.843C813.351 323.475 814.387 323.475 815.019 322.843L816.361 321.502C816.994 320.87 816.994 319.835 816.361 319.203Z" fill="url(#paint21_radial_2087_37516)"/>
<path d="M816.361 319.203L812.814 315.659L816.361 312.114C816.994 311.482 816.994 310.448 816.361 309.815L815.019 308.474C814.387 307.842 813.351 307.842 812.719 308.474L809.172 312.019L805.625 308.474C804.992 307.842 803.957 307.842 803.324 308.474L801.982 309.815C801.35 310.448 801.35 311.482 801.982 312.114L805.529 315.659L801.982 319.203C801.35 319.835 801.35 320.87 801.982 321.502L803.324 322.843C803.957 323.475 804.992 323.475 805.625 322.843L809.172 319.299L812.719 322.843C813.351 323.475 814.387 323.475 815.019 322.843L816.361 321.502C816.994 320.87 816.994 319.835 816.361 319.203Z" fill="black" fill-opacity="0.07"/>
<ellipse cx="828.942" cy="315.439" rx="9.94942" ry="9.9425" fill="url(#paint22_radial_2087_37516)"/>
<ellipse cx="828.942" cy="315.439" rx="9.94942" ry="9.9425" fill="black" fill-opacity="0.07"/>
<ellipse cx="908.535" cy="315.439" rx="9.94942" ry="9.9425" fill="#38F1FF" fill-opacity="0.1"/>
<ellipse cx="908.535" cy="315.439" rx="9.94942" ry="9.9425" fill="black" fill-opacity="0.07"/>
<ellipse cx="888.637" cy="315.439" rx="9.94942" ry="9.9425" fill="#38F1FF" fill-opacity="0.1"/>
<ellipse cx="888.637" cy="315.439" rx="9.94942" ry="9.9425" fill="black" fill-opacity="0.07"/>
<ellipse cx="917.965" cy="295.554" rx="9.94942" ry="9.9425" fill="#38F1FF" fill-opacity="0.2"/>
<ellipse cx="917.965" cy="295.554" rx="9.94942" ry="9.9425" fill="black" fill-opacity="0.07"/>
<ellipse cx="888.637" cy="295.554" rx="9.94942" ry="9.9425" fill="url(#paint23_radial_2087_37516)"/>
<ellipse cx="888.637" cy="295.554" rx="9.94942" ry="9.9425" fill="black" fill-opacity="0.07"/>
<ellipse cx="868.738" cy="275.669" rx="9.94942" ry="9.9425" fill="url(#paint24_radial_2087_37516)"/>
<ellipse cx="868.738" cy="275.669" rx="9.94942" ry="9.9425" fill="black" fill-opacity="0.07"/>
<ellipse cx="843.606" cy="242.178" rx="9.94942" ry="9.9425" fill="#38F1FF" fill-opacity="0.2"/>
<ellipse cx="843.606" cy="242.178" rx="9.94942" ry="9.9425" fill="black" fill-opacity="0.07"/>
<ellipse cx="688.606" cy="296.601" rx="9.94942" ry="9.9425" fill="url(#paint25_radial_2087_37516)"/>
<ellipse cx="688.606" cy="296.601" rx="9.94942" ry="9.9425" fill="black" fill-opacity="0.07"/>
<ellipse cx="669.949" cy="235.943" rx="9.94942" ry="9.9425" fill="#38F1FF" fill-opacity="0.2"/>
<ellipse cx="669.949" cy="235.943" rx="9.94942" ry="9.9425" fill="black" fill-opacity="0.07"/>
<ellipse cx="734" cy="316.404" rx="10" ry="9.5" fill="#93CD4D"/>
<ellipse cx="734" cy="316.404" rx="10" ry="9.5" fill="black" fill-opacity="0.07"/>
<ellipse cx="688.606" cy="316.485" rx="9.94942" ry="9.9425" fill="url(#paint26_radial_2087_37516)"/>
<ellipse cx="688.606" cy="316.485" rx="9.94942" ry="9.9425" fill="black" fill-opacity="0.07"/>
<ellipse cx="708.504" cy="276.715" rx="9.94942" ry="9.9425" fill="#38F1FF" fill-opacity="0.2"/>
<ellipse cx="708.504" cy="276.715" rx="9.94942" ry="9.9425" fill="black" fill-opacity="0.07"/>
<ellipse cx="828.942" cy="276.715" rx="9.94942" ry="9.9425" fill="#38F1FF" fill-opacity="0.2"/>
<ellipse cx="828.942" cy="276.715" rx="9.94942" ry="9.9425" fill="black" fill-opacity="0.07"/>
<ellipse cx="848.84" cy="300.787" rx="9.94942" ry="9.9425" fill="url(#paint27_radial_2087_37516)"/>
<ellipse cx="848.84" cy="300.787" rx="9.94942" ry="9.9425" fill="#93CD4D"/>
<path d="M1353.74 301.203L1350.19 297.659L1353.74 294.114C1354.37 293.482 1354.37 292.448 1353.74 291.815L1352.39 290.474C1351.76 289.842 1350.73 289.842 1350.09 290.474L1346.55 294.019L1343 290.474C1342.37 289.842 1341.33 289.842 1340.7 290.474L1339.36 291.815C1338.72 292.448 1338.72 293.482 1339.36 294.114L1342.9 297.659L1339.36 301.203C1338.72 301.835 1338.72 302.87 1339.36 303.502L1340.7 304.843C1341.33 305.475 1342.37 305.475 1343 304.843L1346.55 301.299L1350.09 304.843C1350.73 305.475 1351.76 305.475 1352.39 304.843L1353.74 303.502C1354.37 302.87 1354.37 301.835 1353.74 301.203Z" fill="url(#paint28_radial_2087_37516)"/>
<path d="M1353.74 301.203L1350.19 297.659L1353.74 294.114C1354.37 293.482 1354.37 292.448 1353.74 291.815L1352.39 290.474C1351.76 289.842 1350.73 289.842 1350.09 290.474L1346.55 294.019L1343 290.474C1342.37 289.842 1341.33 289.842 1340.7 290.474L1339.36 291.815C1338.72 292.448 1338.72 293.482 1339.36 294.114L1342.9 297.659L1339.36 301.203C1338.72 301.835 1338.72 302.87 1339.36 303.502L1340.7 304.843C1341.33 305.475 1342.37 305.475 1343 304.843L1346.55 301.299L1350.09 304.843C1350.73 305.475 1351.76 305.475 1352.39 304.843L1353.74 303.502C1354.37 302.87 1354.37 301.835 1353.74 301.203Z" fill="black" fill-opacity="0.07"/>
<ellipse cx="9.94942" cy="9.41921" rx="9.94942" ry="9.41921" transform="matrix(-1 0 0 1 1337.41 247.935)" fill="#38F1FF" fill-opacity="0.2"/>
<ellipse cx="9.94942" cy="9.41921" rx="9.94942" ry="9.41921" transform="matrix(-1 0 0 1 1337.41 247.935)" fill="black" fill-opacity="0.07"/>
<ellipse cx="9.94942" cy="9.9425" rx="9.94942" ry="9.9425" transform="matrix(-1 0 0 1 1317.51 306.543)" fill="url(#paint29_radial_2087_37516)"/>
<ellipse cx="9.94942" cy="9.9425" rx="9.94942" ry="9.9425" transform="matrix(-1 0 0 1 1317.51 306.543)" fill="black" fill-opacity="0.07"/>
<ellipse cx="9.94942" cy="9.9425" rx="9.94942" ry="9.9425" transform="matrix(-1 0 0 1 1317.51 287.704)" fill="#38F1FF" fill-opacity="0.2"/>
<ellipse cx="9.94942" cy="9.9425" rx="9.94942" ry="9.9425" transform="matrix(-1 0 0 1 1317.51 287.704)" fill="black" fill-opacity="0.07"/>
<ellipse cx="9.94942" cy="9.9425" rx="9.94942" ry="9.9425" transform="matrix(-1 0 0 1 1276.67 286.658)" fill="#93CD4D"/>
<ellipse cx="9.94942" cy="9.9425" rx="9.94942" ry="9.9425" transform="matrix(-1 0 0 1 1276.67 286.658)" fill="black" fill-opacity="0.07"/>
<ellipse cx="9.94942" cy="9.9425" rx="9.94942" ry="9.9425" transform="matrix(-1 0 0 1 1417 306.543)" fill="url(#paint30_radial_2087_37516)"/>
<ellipse cx="9.94942" cy="9.9425" rx="9.94942" ry="9.9425" transform="matrix(-1 0 0 1 1417 306.543)" fill="black" fill-opacity="0.07"/>
<ellipse cx="10.4731" cy="9.9425" rx="10.4731" ry="9.9425" transform="matrix(-1 0 0 1 1397.11 286.658)" fill="#38F1FF" fill-opacity="0.2"/>
<ellipse cx="10.4731" cy="9.9425" rx="10.4731" ry="9.9425" transform="matrix(-1 0 0 1 1397.11 286.658)" fill="black" fill-opacity="0.07"/>
<ellipse cx="9.42576" cy="9.9425" rx="9.42576" ry="9.9425" transform="matrix(-1 0 0 1 1356.26 306.543)" fill="#38F1FF" fill-opacity="0.2"/>
<ellipse cx="9.42576" cy="9.9425" rx="9.42576" ry="9.9425" transform="matrix(-1 0 0 1 1356.26 306.543)" fill="black" fill-opacity="0.07"/>
<ellipse cx="9.94942" cy="9.41921" rx="9.94942" ry="9.41921" transform="matrix(-1 0 0 1 1376.16 247.935)" fill="#38F1FF" fill-opacity="0.2"/>
<ellipse cx="9.94942" cy="9.41921" rx="9.94942" ry="9.41921" transform="matrix(-1 0 0 1 1376.16 247.935)" fill="black" fill-opacity="0.07"/>
<ellipse cx="9.94942" cy="9.9425" rx="9.94942" ry="9.9425" transform="matrix(-1 0 0 1 1436.9 286.658)" fill="#38F1FF" fill-opacity="0.2"/>
<ellipse cx="9.94942" cy="9.9425" rx="9.94942" ry="9.9425" transform="matrix(-1 0 0 1 1436.9 286.658)" fill="black" fill-opacity="0.07"/>
<ellipse cx="9.94942" cy="9.9425" rx="9.94942" ry="9.9425" transform="matrix(-1 0 0 1 1137.38 285.611)" fill="#38F1FF" fill-opacity="0.2"/>
<ellipse cx="9.94942" cy="9.9425" rx="9.94942" ry="9.9425" transform="matrix(-1 0 0 1 1137.38 285.611)" fill="#93CD4D"/>
<ellipse cx="9.94942" cy="9.9425" rx="9.94942" ry="9.9425" transform="matrix(-1 0 0 1 1097.58 305.497)" fill="url(#paint31_radial_2087_37516)"/>
<ellipse cx="9.94942" cy="9.9425" rx="9.94942" ry="9.9425" transform="matrix(-1 0 0 1 1097.58 305.497)" fill="black" fill-opacity="0.07"/>
<path d="M1133.58 319.203L1130.04 315.659L1133.58 312.114C1134.22 311.482 1134.22 310.448 1133.58 309.815L1132.24 308.474C1131.61 307.842 1130.57 307.842 1129.94 308.474L1126.39 312.019L1122.85 308.474C1122.21 307.842 1121.18 307.842 1120.55 308.474L1119.2 309.815C1118.57 310.448 1118.57 311.482 1119.2 312.114L1122.75 315.659L1119.2 319.203C1118.57 319.835 1118.57 320.87 1119.2 321.502L1120.55 322.843C1121.18 323.475 1122.21 323.475 1122.85 322.843L1126.39 319.299L1129.94 322.843C1130.57 323.475 1131.61 323.475 1132.24 322.843L1133.58 321.502C1134.22 320.87 1134.22 319.835 1133.58 319.203Z" fill="url(#paint32_radial_2087_37516)"/>
<path d="M1133.58 319.203L1130.04 315.659L1133.58 312.114C1134.22 311.482 1134.22 310.448 1133.58 309.815L1132.24 308.474C1131.61 307.842 1130.57 307.842 1129.94 308.474L1126.39 312.019L1122.85 308.474C1122.21 307.842 1121.18 307.842 1120.55 308.474L1119.2 309.815C1118.57 310.448 1118.57 311.482 1119.2 312.114L1122.75 315.659L1119.2 319.203C1118.57 319.835 1118.57 320.87 1119.2 321.502L1120.55 322.843C1121.18 323.475 1122.21 323.475 1122.85 322.843L1126.39 319.299L1129.94 322.843C1130.57 323.475 1131.61 323.475 1132.24 322.843L1133.58 321.502C1134.22 320.87 1134.22 319.835 1133.58 319.203Z" fill="black" fill-opacity="0.07"/>
<ellipse cx="9.94942" cy="9.9425" rx="9.94942" ry="9.9425" transform="matrix(-1 0 0 1 1157.27 305.497)" fill="url(#paint33_radial_2087_37516)"/>
<ellipse cx="9.94942" cy="9.9425" rx="9.94942" ry="9.9425" transform="matrix(-1 0 0 1 1157.27 305.497)" fill="black" fill-opacity="0.07"/>
<ellipse cx="9.94942" cy="9.9425" rx="9.94942" ry="9.9425" transform="matrix(-1 0 0 1 1137.38 265.727)" fill="#38F1FF" fill-opacity="0.2"/>
<ellipse cx="9.94942" cy="9.9425" rx="9.94942" ry="9.9425" transform="matrix(-1 0 0 1 1137.38 265.727)" fill="#93CD4D"/>
<ellipse cx="9.94942" cy="9.9425" rx="9.94942" ry="9.9425" transform="matrix(-1 0 0 1 1017.98 305.497)" fill="url(#paint34_radial_2087_37516)"/>
<ellipse cx="9.94942" cy="9.9425" rx="9.94942" ry="9.9425" transform="matrix(-1 0 0 1 1017.98 305.497)" fill="black" fill-opacity="0.07"/>
<ellipse cx="9.94942" cy="9.9425" rx="9.94942" ry="9.9425" transform="matrix(-1 0 0 1 1008.55 285.611)" fill="#38F1FF" fill-opacity="0.2"/>
<ellipse cx="9.94942" cy="9.9425" rx="9.94942" ry="9.9425" transform="matrix(-1 0 0 1 1008.55 285.611)" fill="black" fill-opacity="0.07"/>
<ellipse cx="9.94942" cy="9.9425" rx="9.94942" ry="9.9425" transform="matrix(-1 0 0 1 978.18 266.772)" fill="url(#paint35_radial_2087_37516)"/>
<ellipse cx="9.94942" cy="9.9425" rx="9.94942" ry="9.9425" transform="matrix(-1 0 0 1 978.18 266.772)" fill="black" fill-opacity="0.07"/>
<ellipse cx="9.94942" cy="9.9425" rx="9.94942" ry="9.9425" transform="matrix(-1 0 0 1 998.082 246.888)" fill="url(#paint36_radial_2087_37516)"/>
<ellipse cx="9.94942" cy="9.9425" rx="9.94942" ry="9.9425" transform="matrix(-1 0 0 1 998.082 246.888)" fill="black" fill-opacity="0.07"/>
<ellipse cx="9.94942" cy="9.9425" rx="9.94942" ry="9.9425" transform="matrix(-1 0 0 1 1037.88 285.611)" fill="url(#paint37_radial_2087_37516)"/>
<ellipse cx="9.94942" cy="9.9425" rx="9.94942" ry="9.9425" transform="matrix(-1 0 0 1 1037.88 285.611)" fill="black" fill-opacity="0.07"/>
<ellipse cx="9.94942" cy="9.9425" rx="9.94942" ry="9.9425" transform="matrix(-1 0 0 1 1047.3 245.841)" fill="#38F1FF" fill-opacity="0.2"/>
<ellipse cx="9.94942" cy="9.9425" rx="9.94942" ry="9.9425" transform="matrix(-1 0 0 1 1047.3 245.841)" fill="#93CD4D"/>
<ellipse cx="9.94942" cy="9.9425" rx="9.94942" ry="9.9425" transform="matrix(-1 0 0 1 1257.82 306.543)" fill="#38F1FF" fill-opacity="0.2"/>
<ellipse cx="9.94942" cy="9.9425" rx="9.94942" ry="9.9425" transform="matrix(-1 0 0 1 1257.82 306.543)" fill="black" fill-opacity="0.07"/>
<ellipse cx="9.94942" cy="9.9425" rx="9.94942" ry="9.9425" transform="matrix(-1 0 0 1 1257.82 266.772)" fill="#38F1FF" fill-opacity="0.2"/>
<ellipse cx="9.94942" cy="9.9425" rx="9.94942" ry="9.9425" transform="matrix(-1 0 0 1 1257.82 266.772)" fill="black" fill-opacity="0.07"/>
<ellipse cx="9.94942" cy="9.9425" rx="9.94942" ry="9.9425" transform="matrix(-1 0 0 1 1237.92 286.658)" fill="url(#paint38_radial_2087_37516)"/>
<ellipse cx="9.94942" cy="9.9425" rx="9.94942" ry="9.9425" transform="matrix(-1 0 0 1 1237.92 286.658)" fill="black" fill-opacity="0.07"/>
<path d="M1194.63 300.203L1191.08 296.659L1194.63 293.114C1195.26 292.482 1195.26 291.448 1194.63 290.815L1193.28 289.474C1192.65 288.842 1191.62 288.842 1190.98 289.474L1187.44 293.019L1183.89 289.474C1183.26 288.842 1182.22 288.842 1181.59 289.474L1180.25 290.815C1179.62 291.448 1179.62 292.482 1180.25 293.114L1183.79 296.659L1180.25 300.203C1179.62 300.835 1179.62 301.87 1180.25 302.502L1181.59 303.843C1182.22 304.475 1183.26 304.475 1183.89 303.843L1187.44 300.299L1190.98 303.843C1191.62 304.475 1192.65 304.475 1193.28 303.843L1194.63 302.502C1195.26 301.87 1195.26 300.835 1194.63 300.203Z" fill="url(#paint39_radial_2087_37516)"/>
<path d="M1194.63 300.203L1191.08 296.659L1194.63 293.114C1195.26 292.482 1195.26 291.448 1194.63 290.815L1193.28 289.474C1192.65 288.842 1191.62 288.842 1190.98 289.474L1187.44 293.019L1183.89 289.474C1183.26 288.842 1182.22 288.842 1181.59 289.474L1180.25 290.815C1179.62 291.448 1179.62 292.482 1180.25 293.114L1183.79 296.659L1180.25 300.203C1179.62 300.835 1179.62 301.87 1180.25 302.502L1181.59 303.843C1182.22 304.475 1183.26 304.475 1183.89 303.843L1187.44 300.299L1190.98 303.843C1191.62 304.475 1192.65 304.475 1193.28 303.843L1194.63 302.502C1195.26 301.87 1195.26 300.835 1194.63 300.203Z" fill="black" fill-opacity="0.07"/>
<ellipse cx="10.4731" cy="9.9425" rx="10.4731" ry="9.9425" transform="matrix(-1 0 0 1 1198.12 306.543)" fill="url(#paint40_radial_2087_37516)"/>
<ellipse cx="10.4731" cy="9.9425" rx="10.4731" ry="9.9425" transform="matrix(-1 0 0 1 1198.12 306.543)" fill="black" fill-opacity="0.07"/>
<ellipse cx="9.94942" cy="9.9425" rx="9.94942" ry="9.9425" transform="matrix(-1 0 0 1 1161.46 246.888)" fill="#38F1FF" fill-opacity="0.2"/>
<ellipse cx="9.94942" cy="9.9425" rx="9.94942" ry="9.9425" transform="matrix(-1 0 0 1 1161.46 246.888)" fill="black" fill-opacity="0.07"/>
<ellipse cx="9.94942" cy="9.9425" rx="9.94942" ry="9.9425" transform="matrix(-1 0 0 1 1117.48 246.888)" fill="#38F1FF" fill-opacity="0.2"/>
<ellipse cx="9.94942" cy="9.9425" rx="9.94942" ry="9.9425" transform="matrix(-1 0 0 1 1117.48 246.888)" fill="black" fill-opacity="0.07"/>
<ellipse cx="9.94942" cy="9.9425" rx="9.94942" ry="9.9425" transform="matrix(-1 0 0 1 1077.68 290.845)" fill="#38F1FF" fill-opacity="0.2"/>
<ellipse cx="9.94942" cy="9.9425" rx="9.94942" ry="9.9425" transform="matrix(-1 0 0 1 1077.68 290.845)" fill="black" fill-opacity="0.07"/>
<path d="M1073.38 154.756C1078.57 154.756 1082.77 150.558 1082.77 145.378C1082.77 140.199 1078.57 136 1073.38 136C1068.2 136 1064 140.199 1064 145.378C1064 150.558 1068.2 154.756 1073.38 154.756Z" fill="#38F1FF" fill-opacity="0.2"/>
<path d="M1073.38 154.756C1078.57 154.756 1082.77 150.558 1082.77 145.378C1082.77 140.199 1078.57 136 1073.38 136C1068.2 136 1064 140.199 1064 145.378C1064 150.558 1068.2 154.756 1073.38 154.756Z" fill="black" fill-opacity="0.07"/>
<path d="M1324.8 142.715C1334.12 142.715 1341.67 135.167 1341.67 125.856C1341.67 116.544 1334.12 108.996 1324.8 108.996C1315.48 108.996 1307.93 116.544 1307.93 125.856C1307.93 135.167 1315.48 142.715 1324.8 142.715Z" stroke="#2A5B7E" stroke-miterlimit="10"/>
<path d="M791.242 238.841C800.677 238.841 808.324 231.198 808.324 221.77C808.324 212.343 800.677 204.7 791.242 204.7C781.808 204.7 774.16 212.343 774.16 221.77C774.16 231.198 781.808 238.841 791.242 238.841Z" stroke="url(#paint41_linear_2087_37516)" stroke-miterlimit="10"/>
</g>
<defs>
<radialGradient id="paint0_radial_2087_37516" cx="0" cy="0" r="1" gradientTransform="matrix(-6.2536 40.1204 -18.3553 -16.2097 115.871 273.955)" gradientUnits="userSpaceOnUse">
<stop offset="0.350584" stop-color="#0FB8C5"/>
<stop offset="1" stop-color="#93CD4D"/>
</radialGradient>
<radialGradient id="paint1_radial_2087_37516" cx="0" cy="0" r="1" gradientTransform="matrix(-8.11847 52.0846 -23.829 -21.0436 178.302 265.828)" gradientUnits="userSpaceOnUse">
<stop offset="0.350584" stop-color="#0FB8C5"/>
<stop offset="1" stop-color="#93CD4D"/>
</radialGradient>
<radialGradient id="paint2_radial_2087_37516" cx="0" cy="0" r="1" gradientTransform="matrix(-8.11847 52.0846 -23.829 -21.0436 37.9663 285.713)" gradientUnits="userSpaceOnUse">
<stop offset="0.350584" stop-color="#0FB8C5"/>
<stop offset="1" stop-color="#93CD4D"/>
</radialGradient>
<radialGradient id="paint3_radial_2087_37516" cx="0" cy="0" r="1" gradientTransform="matrix(-7.69118 52.0846 -22.5748 -21.0436 97.7576 285.713)" gradientUnits="userSpaceOnUse">
<stop offset="0.350584" stop-color="#0FB8C5"/>
<stop offset="1" stop-color="#93CD4D"/>
</radialGradient>
<radialGradient id="paint4_radial_2087_37516" cx="0" cy="0" r="1" gradientTransform="matrix(-8.11847 52.0846 -23.829 -21.0436 78.8101 285.713)" gradientUnits="userSpaceOnUse">
<stop offset="0.350584" stop-color="#0FB8C5"/>
<stop offset="1" stop-color="#93CD4D"/>
</radialGradient>
<radialGradient id="paint5_radial_2087_37516" cx="0" cy="0" r="1" gradientTransform="matrix(-8.11847 52.0846 -23.829 -21.0436 37.9663 265.828)" gradientUnits="userSpaceOnUse">
<stop offset="0.350584" stop-color="#0FB8C5"/>
<stop offset="1" stop-color="#93CD4D"/>
</radialGradient>
<radialGradient id="paint6_radial_2087_37516" cx="0" cy="0" r="1" gradientTransform="matrix(-8.11847 52.0846 -23.829 -21.0436 317.595 264.781)" gradientUnits="userSpaceOnUse">
<stop offset="0.350584" stop-color="#0FB8C5"/>
<stop offset="1" stop-color="#93CD4D"/>
</radialGradient>
<radialGradient id="paint7_radial_2087_37516" cx="0" cy="0" r="1" gradientTransform="matrix(-8.11847 52.0846 -23.829 -21.0436 337.498 284.667)" gradientUnits="userSpaceOnUse">
<stop offset="0.350584" stop-color="#0FB8C5"/>
<stop offset="1" stop-color="#93CD4D"/>
</radialGradient>
<radialGradient id="paint8_radial_2087_37516" cx="0" cy="0" r="1" gradientTransform="matrix(-6.2536 40.1204 -18.3553 -16.2097 315.082 292.955)" gradientUnits="userSpaceOnUse">
<stop offset="0.350584" stop-color="#0FB8C5"/>
<stop offset="1" stop-color="#93CD4D"/>
</radialGradient>
<radialGradient id="paint9_radial_2087_37516" cx="0" cy="0" r="1" gradientTransform="matrix(-8.11847 52.0846 -23.829 -21.0436 297.701 284.667)" gradientUnits="userSpaceOnUse">
<stop offset="0.350584" stop-color="#0FB8C5"/>
<stop offset="1" stop-color="#93CD4D"/>
</radialGradient>
<radialGradient id="paint10_radial_2087_37516" cx="0" cy="0" r="1" gradientTransform="matrix(-8.11847 52.0846 -23.829 -21.0436 317.595 244.896)" gradientUnits="userSpaceOnUse">
<stop offset="0.350584" stop-color="#0FB8C5"/>
<stop offset="1" stop-color="#93CD4D"/>
</radialGradient>
<radialGradient id="paint11_radial_2087_37516" cx="0" cy="0" r="1" gradientTransform="matrix(-8.11847 52.0846 -23.829 -21.0436 293.509 226.057)" gradientUnits="userSpaceOnUse">
<stop offset="0.350584" stop-color="#0FB8C5"/>
<stop offset="1" stop-color="#93CD4D"/>
</radialGradient>
<radialGradient id="paint12_radial_2087_37516" cx="0" cy="0" r="1" gradientTransform="matrix(-8.11847 52.0846 -23.829 -21.0436 377.294 270.014)" gradientUnits="userSpaceOnUse">
<stop offset="0.350584" stop-color="#0FB8C5"/>
<stop offset="1" stop-color="#93CD4D"/>
</radialGradient>
<radialGradient id="paint13_radial_2087_37516" cx="0" cy="0" r="1" gradientTransform="matrix(-8.54576 52.0846 -25.0831 -21.0436 637.976 285.713)" gradientUnits="userSpaceOnUse">
<stop offset="0.350584" stop-color="#0FB8C5"/>
<stop offset="1" stop-color="#93CD4D"/>
</radialGradient>
<radialGradient id="paint14_radial_2087_37516" cx="0" cy="0" r="1" gradientTransform="matrix(-8.11847 52.0846 -23.829 -21.0436 597.228 285.713)" gradientUnits="userSpaceOnUse">
<stop offset="0.350584" stop-color="#0FB8C5"/>
<stop offset="1" stop-color="#93CD4D"/>
</radialGradient>
<radialGradient id="paint15_radial_2087_37516" cx="0" cy="0" r="1" gradientTransform="matrix(-8.11847 52.0846 -23.829 -21.0436 597.228 266.874)" gradientUnits="userSpaceOnUse">
<stop offset="0.350584" stop-color="#0FB8C5"/>
<stop offset="1" stop-color="#93CD4D"/>
</radialGradient>
<radialGradient id="paint16_radial_2087_37516" cx="0" cy="0" r="1" gradientTransform="matrix(-8.11847 49.3433 -23.829 -19.936 597.228 228.201)" gradientUnits="userSpaceOnUse">
<stop offset="0.350584" stop-color="#0FB8C5"/>
<stop offset="1" stop-color="#93CD4D"/>
</radialGradient>
<radialGradient id="paint17_radial_2087_37516" cx="0" cy="0" r="1" gradientTransform="matrix(-8.11847 52.0846 -23.829 -21.0436 517.634 285.713)" gradientUnits="userSpaceOnUse">
<stop offset="0.350584" stop-color="#0FB8C5"/>
<stop offset="1" stop-color="#93CD4D"/>
</radialGradient>
<radialGradient id="paint18_radial_2087_37516" cx="0" cy="0" r="1" gradientTransform="matrix(-6.2536 40.1204 -18.3553 -16.2097 515.218 272.955)" gradientUnits="userSpaceOnUse">
<stop offset="0.350584" stop-color="#0FB8C5"/>
<stop offset="1" stop-color="#93CD4D"/>
</radialGradient>
<radialGradient id="paint19_radial_2087_37516" cx="0" cy="0" r="1" gradientTransform="matrix(-8.11847 52.0846 -23.829 -21.0436 497.732 265.828)" gradientUnits="userSpaceOnUse">
<stop offset="0.350584" stop-color="#0FB8C5"/>
<stop offset="1" stop-color="#93CD4D"/>
</radialGradient>
<radialGradient id="paint20_radial_2087_37516" cx="0" cy="0" r="1" gradientTransform="matrix(-8.11847 52.0846 -23.829 -21.0436 797.263 264.781)" gradientUnits="userSpaceOnUse">
<stop offset="0.350584" stop-color="#0FB8C5"/>
<stop offset="1" stop-color="#93CD4D"/>
</radialGradient>
<radialGradient id="paint21_radial_2087_37516" cx="0" cy="0" r="1" gradientTransform="matrix(-6.2536 40.1204 -18.3553 -16.2097 815.425 291.955)" gradientUnits="userSpaceOnUse">
<stop offset="0.350584" stop-color="#0FB8C5"/>
<stop offset="1" stop-color="#93CD4D"/>
</radialGradient>
<radialGradient id="paint22_radial_2087_37516" cx="0" cy="0" r="1" gradientTransform="matrix(-8.11847 52.0846 -23.829 -21.0436 837.06 284.666)" gradientUnits="userSpaceOnUse">
<stop offset="0.350584" stop-color="#0FB8C5"/>
<stop offset="1" stop-color="#93CD4D"/>
</radialGradient>
<radialGradient id="paint23_radial_2087_37516" cx="0" cy="0" r="1" gradientTransform="matrix(-8.11847 52.0846 -23.829 -21.0436 896.755 264.781)" gradientUnits="userSpaceOnUse">
<stop offset="0.350584" stop-color="#0FB8C5"/>
<stop offset="1" stop-color="#93CD4D"/>
</radialGradient>
<radialGradient id="paint24_radial_2087_37516" cx="0" cy="0" r="1" gradientTransform="matrix(-8.11847 52.0846 -23.829 -21.0436 876.857 244.896)" gradientUnits="userSpaceOnUse">
<stop offset="0.350584" stop-color="#0FB8C5"/>
<stop offset="1" stop-color="#93CD4D"/>
</radialGradient>
<radialGradient id="paint25_radial_2087_37516" cx="0" cy="0" r="1" gradientTransform="matrix(-8.11847 52.0846 -23.829 -21.0436 696.724 265.828)" gradientUnits="userSpaceOnUse">
<stop offset="0.350584" stop-color="#0FB8C5"/>
<stop offset="1" stop-color="#93CD4D"/>
</radialGradient>
<radialGradient id="paint26_radial_2087_37516" cx="0" cy="0" r="1" gradientTransform="matrix(-8.11847 52.0846 -23.829 -21.0436 696.724 285.713)" gradientUnits="userSpaceOnUse">
<stop offset="0.350584" stop-color="#0FB8C5"/>
<stop offset="1" stop-color="#93CD4D"/>
</radialGradient>
<radialGradient id="paint27_radial_2087_37516" cx="0" cy="0" r="1" gradientTransform="matrix(-8.11847 52.0846 -23.829 -21.0436 856.959 270.014)" gradientUnits="userSpaceOnUse">
<stop offset="0.350584" stop-color="#0FB8C5"/>
<stop offset="1" stop-color="#93CD4D"/>
</radialGradient>
<radialGradient id="paint28_radial_2087_37516" cx="0" cy="0" r="1" gradientTransform="matrix(-6.2536 40.1204 -18.3553 -16.2097 1352.8 273.955)" gradientUnits="userSpaceOnUse">
<stop offset="0.350584" stop-color="#0FB8C5"/>
<stop offset="1" stop-color="#93CD4D"/>
</radialGradient>
<radialGradient id="paint29_radial_2087_37516" cx="0" cy="0" r="1" gradientTransform="matrix(-8.11847 52.0846 -23.829 -21.0436 18.0679 -20.8303)" gradientUnits="userSpaceOnUse">
<stop offset="0.350584" stop-color="#0FB8C5"/>
<stop offset="1" stop-color="#93CD4D"/>
</radialGradient>
<radialGradient id="paint30_radial_2087_37516" cx="0" cy="0" r="1" gradientTransform="matrix(-8.11847 52.0846 -23.829 -21.0436 18.0679 -20.8303)" gradientUnits="userSpaceOnUse">
<stop offset="0.350584" stop-color="#0FB8C5"/>
<stop offset="1" stop-color="#93CD4D"/>
</radialGradient>
<radialGradient id="paint31_radial_2087_37516" cx="0" cy="0" r="1" gradientTransform="matrix(-8.11847 52.0846 -23.829 -21.0436 18.0679 -20.8303)" gradientUnits="userSpaceOnUse">
<stop offset="0.350584" stop-color="#0FB8C5"/>
<stop offset="1" stop-color="#93CD4D"/>
</radialGradient>
<radialGradient id="paint32_radial_2087_37516" cx="0" cy="0" r="1" gradientTransform="matrix(-6.2536 40.1204 -18.3553 -16.2097 1132.65 291.955)" gradientUnits="userSpaceOnUse">
<stop offset="0.350584" stop-color="#0FB8C5"/>
<stop offset="1" stop-color="#93CD4D"/>
</radialGradient>
<radialGradient id="paint33_radial_2087_37516" cx="0" cy="0" r="1" gradientTransform="matrix(-8.11847 52.0846 -23.829 -21.0436 18.0679 -20.8303)" gradientUnits="userSpaceOnUse">
<stop offset="0.350584" stop-color="#0FB8C5"/>
<stop offset="1" stop-color="#93CD4D"/>
</radialGradient>
<radialGradient id="paint34_radial_2087_37516" cx="0" cy="0" r="1" gradientTransform="matrix(-8.11847 52.0846 -23.829 -21.0436 18.0679 -20.8303)" gradientUnits="userSpaceOnUse">
<stop offset="0.350584" stop-color="#0FB8C5"/>
<stop offset="1" stop-color="#93CD4D"/>
</radialGradient>
<radialGradient id="paint35_radial_2087_37516" cx="0" cy="0" r="1" gradientTransform="matrix(-8.11847 52.0846 -23.829 -21.0436 18.0679 -20.8303)" gradientUnits="userSpaceOnUse">
<stop offset="0.350584" stop-color="#0FB8C5"/>
<stop offset="1" stop-color="#93CD4D"/>
</radialGradient>
<radialGradient id="paint36_radial_2087_37516" cx="0" cy="0" r="1" gradientTransform="matrix(-8.11847 52.0846 -23.829 -21.0436 18.0679 -20.8303)" gradientUnits="userSpaceOnUse">
<stop offset="0.350584" stop-color="#0FB8C5"/>
<stop offset="1" stop-color="#93CD4D"/>
</radialGradient>
<radialGradient id="paint37_radial_2087_37516" cx="0" cy="0" r="1" gradientTransform="matrix(-8.11847 52.0846 -23.829 -21.0436 18.0679 -20.8303)" gradientUnits="userSpaceOnUse">
<stop offset="0.350584" stop-color="#0FB8C5"/>
<stop offset="1" stop-color="#93CD4D"/>
</radialGradient>
<radialGradient id="paint38_radial_2087_37516" cx="0" cy="0" r="1" gradientTransform="matrix(-8.11847 52.0846 -23.829 -21.0436 18.0679 -20.8303)" gradientUnits="userSpaceOnUse">
<stop offset="0.350584" stop-color="#0FB8C5"/>
<stop offset="1" stop-color="#93CD4D"/>
</radialGradient>
<radialGradient id="paint39_radial_2087_37516" cx="0" cy="0" r="1" gradientTransform="matrix(-6.2536 40.1204 -18.3553 -16.2097 1193.69 272.955)" gradientUnits="userSpaceOnUse">
<stop offset="0.350584" stop-color="#0FB8C5"/>
<stop offset="1" stop-color="#93CD4D"/>
</radialGradient>
<radialGradient id="paint40_radial_2087_37516" cx="0" cy="0" r="1" gradientTransform="matrix(-8.54576 52.0846 -25.0831 -21.0436 19.0188 -20.8303)" gradientUnits="userSpaceOnUse">
<stop offset="0.350584" stop-color="#0FB8C5"/>
<stop offset="1" stop-color="#93CD4D"/>
</radialGradient>
<linearGradient id="paint41_linear_2087_37516" x1="774.16" y1="221.77" x2="808.324" y2="221.77" gradientUnits="userSpaceOnUse">
<stop stop-color="#0FB8C5"/>
<stop offset="1" stop-color="#93CD4D"/>
</linearGradient>
<clipPath id="clip0_2087_37516">
<rect width="1437" height="216" fill="white" transform="translate(0 109)"/>
</clipPath>
</defs>
</svg>
