<svg width="105" height="45" viewBox="0 0 105 45" fill="none" xmlns="http://www.w3.org/2000/svg">
<path d="M6.88476 13.8975C5.58651 13.8975 4.4363 13.6037 3.43413 13.0102C2.43197 12.4196 1.64618 11.6042 1.07677 10.564C0.507362 9.51782 0.222656 8.31573 0.222656 6.95475C0.222656 5.58779 0.501667 4.38569 1.06538 3.34548C1.63479 2.29927 2.41489 1.48088 3.41136 0.887331C4.40498 0.296776 5.5438 0 6.82782 0C7.85276 0 8.80083 0.191855 9.67488 0.575566C10.5461 0.959276 11.2863 1.49887 11.8956 2.19434C12.502 2.88383 12.9348 3.69921 13.1938 4.6405H10.0962C9.7916 4.05894 9.35885 3.60628 8.79798 3.28552C8.23427 2.95877 7.59653 2.79389 6.88476 2.79389C6.14738 2.79389 5.4954 2.97376 4.92599 3.33349C4.35658 3.68722 3.91244 4.17285 3.59357 4.79638C3.2747 5.41991 3.11526 6.13937 3.11526 6.95475C3.11526 7.75515 3.269 8.46561 3.58218 9.08914C3.89251 9.71267 4.3338 10.2103 4.90321 10.576C5.47262 10.9358 6.14453 11.1156 6.91893 11.1156C7.84422 11.1156 8.61577 10.8698 9.23073 10.3722C9.85139 9.87755 10.2557 9.22104 10.4379 8.40566H6.31535V6.05543H13.4785C13.5526 7.20057 13.4472 8.24978 13.1597 9.20905C12.8778 10.1623 12.4451 10.9927 11.8614 11.7032C11.2749 12.4076 10.5632 12.9502 9.72043 13.3339C8.8777 13.7087 7.93248 13.8975 6.88476 13.8975Z" fill="white"/>
<path d="M16.2734 13.6353V0.277344H19.1547V13.6353H16.2734Z" fill="white"/>
<path d="M26.2254 13.6333L21.3398 0.275391H24.4488L26.1343 5.02381L27.6489 9.25662L30.849 0.275391H33.9238L29.0497 13.6333H26.2254Z" fill="white"/>
<path d="M36.1132 13.6353V0.277344H38.9944V13.6353H36.1132Z" fill="white"/>
<path d="M42.5567 13.6353V0.277344H45.0052L50.6082 8.40721V0.277344H53.4666V13.6353H51.0181L45.4151 5.44545V13.6353H42.5567Z" fill="white"/>
<path d="M62.9258 13.8975C61.6275 13.8975 60.4773 13.6037 59.4751 13.0102C58.473 12.4196 57.6872 11.6042 57.1178 10.564C56.5484 9.51782 56.2637 8.31573 56.2637 6.95475C56.2637 5.58779 56.5427 4.38569 57.1064 3.34548C57.6758 2.29927 58.4559 1.48088 59.4524 0.887331C60.446 0.296776 61.5848 0 62.8688 0C63.8938 0 64.8418 0.191855 65.7159 0.575566C66.5871 0.959276 67.3273 1.49887 67.9366 2.19434C68.543 2.88383 68.9758 3.69921 69.2348 4.6405H66.1373C65.8326 4.05894 65.3999 3.60628 64.839 3.28552C64.2753 2.95877 63.6375 2.79389 62.9258 2.79389C62.1884 2.79389 61.5364 2.97376 60.967 3.33349C60.3976 3.68722 59.9535 4.17285 59.6346 4.79638C59.3157 5.41991 59.1563 6.13937 59.1563 6.95475C59.1563 7.75515 59.31 8.46561 59.6232 9.08914C59.9335 9.71267 60.3748 10.2103 60.9442 10.576C61.5136 10.9358 62.1855 11.1156 62.9599 11.1156C63.8852 11.1156 64.6568 10.8698 65.2718 10.3722C65.8924 9.87755 66.2967 9.22104 66.4789 8.40566H62.3564V6.05543H69.5196C69.5936 7.20057 69.4882 8.24978 69.2007 9.20905C68.9188 10.1623 68.4861 10.9927 67.9024 11.7032C67.3159 12.4076 66.6042 12.9502 65.7614 13.3339C64.9187 13.7087 63.9735 13.8975 62.9258 13.8975Z" fill="white"/>
<path d="M4.02022 32.0523V21.5362H0.000183105V18.6943H10.9329V21.5362H6.90144V32.0523H4.02022Z" fill="white"/>
<path d="M19.5181 32.3174C18.2028 32.3174 17.0355 32.0237 16.0106 31.4301C14.9913 30.8396 14.1941 30.0242 13.619 28.984C13.0411 27.9377 12.7535 26.7356 12.7535 25.3747C12.7535 24.0077 13.0411 22.8056 13.619 21.7654C14.1941 20.7192 14.9913 19.9008 16.0106 19.3073C17.0355 18.7167 18.2028 18.4199 19.5181 18.4199C20.8449 18.4199 22.0179 18.7167 23.0371 19.3073C24.0535 19.9008 24.8507 20.7192 25.4286 21.7654C26.0123 22.8056 26.3055 24.0077 26.3055 25.3747C26.3055 26.7356 26.0123 27.9377 25.4286 28.984C24.8507 30.0242 24.0535 30.8396 23.0371 31.4301C22.0179 32.0237 20.8449 32.3174 19.5181 32.3174ZM15.6917 25.3747C15.6917 26.1751 15.854 26.8825 16.1814 27.4971C16.506 28.1056 16.9586 28.5823 17.5366 28.924C18.1117 29.2687 18.7722 29.4396 19.5181 29.4396C20.284 29.4396 20.9531 29.2687 21.5225 28.924C22.0976 28.5823 22.5474 28.1056 22.8663 27.4971C23.1851 26.8825 23.3446 26.1751 23.3446 25.3747C23.3446 24.5773 23.1851 23.8728 22.8663 23.2643C22.5474 22.6497 22.0976 22.1701 21.5225 21.8254C20.9531 21.4836 20.284 21.3097 19.5181 21.3097C18.7722 21.3097 18.1117 21.4836 17.5366 21.8254C16.9586 22.1701 16.506 22.6497 16.1814 23.2643C15.854 23.8728 15.6917 24.5773 15.6917 25.3747Z" fill="white"/>
<path d="M35.0156 32.3174C33.7174 32.3174 32.5672 32.0237 31.565 31.4301C30.5628 30.8396 29.777 30.0242 29.2076 28.984C28.6382 27.9377 28.3535 26.7356 28.3535 25.3747C28.3535 24.0077 28.6325 22.8056 29.1962 21.7654C29.7657 20.7192 30.5457 19.9008 31.5422 19.3073C32.5358 18.7167 33.6747 18.4199 34.9587 18.4199C35.9836 18.4199 36.9317 18.6118 37.8057 18.9955C38.6769 19.3792 39.4172 19.9188 40.0264 20.6143C40.6329 21.3037 41.0656 22.1191 41.3247 23.0604H38.2271C37.9225 22.4789 37.4897 22.0262 36.9288 21.7054C36.3651 21.3787 35.7274 21.2138 35.0156 21.2138C34.2782 21.2138 33.6263 21.3937 33.0568 21.7534C32.4874 22.1071 32.0433 22.5928 31.7244 23.2163C31.4056 23.8398 31.2461 24.5593 31.2461 25.3747C31.2461 26.1751 31.3999 26.8855 31.713 27.5091C32.0234 28.1326 32.4647 28.6302 33.0341 28.9959C33.6035 29.3557 34.2754 29.5355 35.0498 29.5355C35.9751 29.5355 36.7466 29.2897 37.3616 28.7921C37.9823 28.2975 38.3865 27.641 38.5687 26.8256H34.4462V24.4754H41.6094C41.6834 25.6205 41.5781 26.6697 41.2905 27.629C41.0087 28.5823 40.5759 29.4126 39.9923 30.1231C39.4058 30.8276 38.694 31.3702 37.8513 31.7539C37.0086 32.1286 36.0633 32.3174 35.0156 32.3174Z" fill="white"/>
<path d="M44.4024 32.0513V18.6934H52.7386V21.2474H47.2608V24.0173H52.2489V26.5594H47.2608V29.4732H52.9436V32.0513H44.4024Z" fill="white"/>
<path d="M58.9358 32.0513V21.5352H54.9157V18.6934H65.8484V21.5352H61.817V32.0513H58.9358Z" fill="white"/>
<path d="M76.2684 32.0513V26.6673H71.3031V32.0513H68.4219V18.6934H71.3031V23.8255H76.2684V18.6934H79.1496V32.0513H76.2684Z" fill="white"/>
<path d="M82.6978 32.0513V18.6934H91.034V21.2474H85.5563V24.0173H90.5443V26.5594H85.5563V29.4732H91.239V32.0513H82.6978Z" fill="white"/>
<path d="M94.1914 32.0513V18.6934H99.6122C100.574 18.6934 101.414 18.8792 102.129 19.2449C102.841 19.6137 103.393 20.1413 103.78 20.8277C104.167 21.5172 104.361 22.3356 104.361 23.2859C104.361 24.2692 104.148 25.1175 103.723 25.828C103.296 26.5324 102.704 27.06 101.947 27.4108L104.577 32.0513H101.241L98.9745 27.8904H97.0726V32.0513H94.1914ZM97.0385 25.3363H99.225C99.9368 25.3363 100.483 25.1625 100.865 24.8087C101.252 24.458 101.446 23.9574 101.446 23.3099C101.446 22.6624 101.252 22.1647 100.865 21.811C100.483 21.4603 99.9368 21.2834 99.225 21.2834H97.0385V25.3363Z" fill="white"/>
<path d="M3.93636 44.9143H2.7406V38.8828H6.02041V39.938H3.93636V41.4848H5.88375V42.5281H3.93636V44.9143Z" fill="white"/>
<path d="M16.5744 41.8944C16.5744 42.3591 16.5203 42.7818 16.415 43.1655C16.3068 43.5432 16.1417 43.87 15.9139 44.1487C15.6918 44.4215 15.4128 44.6344 15.0712 44.7843C14.7295 44.9282 14.3224 45.0001 13.8526 45.0001C13.3886 45.0001 12.9871 44.9282 12.6455 44.7843C12.3038 44.6344 12.0191 44.4215 11.7914 44.1487C11.5693 43.87 11.4042 43.5432 11.2903 43.1655C11.1821 42.7818 11.1309 42.3561 11.1309 41.8825C11.1309 41.2589 11.2248 40.7163 11.4156 40.2517C11.612 39.79 11.911 39.4333 12.3152 39.1845C12.7252 38.9297 13.2405 38.8008 13.864 38.8008C14.4847 38.8008 14.9943 38.9297 15.3901 39.1845C15.7915 39.4333 16.0876 39.793 16.2783 40.2637C16.4748 40.7283 16.5744 41.2709 16.5744 41.8944ZM12.4063 41.8944C12.4063 42.3201 12.4547 42.6829 12.5544 42.9856C12.6512 43.2914 12.8078 43.5222 13.0213 43.6811C13.232 43.843 13.511 43.9209 13.8526 43.9209C14.2 43.9209 14.4818 43.843 14.6954 43.6811C14.9061 43.5222 15.0626 43.2914 15.1623 42.9856C15.2591 42.6829 15.3103 42.3201 15.3103 41.8944C15.3103 41.2649 15.1965 40.7673 14.9687 40.4076C14.7466 40.0418 14.3793 39.856 13.864 39.856C13.5224 39.856 13.2405 39.9399 13.0213 40.1078C12.8078 40.2697 12.6512 40.5005 12.5544 40.8033C12.4547 41.109 12.4063 41.4718 12.4063 41.8944Z" fill="white"/>
<path d="M26.6724 38.8828V42.7919C26.6724 43.2085 26.5842 43.5833 26.4105 43.919C26.2425 44.2488 25.9806 44.5126 25.6247 44.7104C25.2745 44.9023 24.8332 44.9982 24.3037 44.9982C23.5435 44.9982 22.9655 44.7944 22.5727 44.3867C22.1769 43.979 21.9805 43.4394 21.9805 42.7679V38.8828H23.1876V42.576C23.1876 43.0737 23.2816 43.4214 23.4723 43.6192C23.6688 43.8201 23.9563 43.919 24.3378 43.919C24.6026 43.919 24.8161 43.8711 24.9756 43.7751C25.1407 43.6792 25.2631 43.5323 25.34 43.3315C25.4226 43.1336 25.4653 42.8758 25.4653 42.564V38.8828H26.6724Z" fill="white"/>
<path d="M37.3954 44.9143H35.858L33.3639 40.3577H33.3298C33.3355 40.5496 33.344 40.7414 33.3526 40.9333C33.3582 41.1251 33.3668 41.317 33.3753 41.5088C33.381 41.6947 33.3896 41.8806 33.3981 42.0724V44.9143H32.3162V38.8828H33.8536L36.3363 43.4034H36.359C36.359 43.2115 36.3533 43.0257 36.3477 42.8398C36.3391 42.657 36.3306 42.4741 36.3249 42.2882C36.3163 42.1054 36.3078 41.9225 36.3021 41.7367V38.8828H37.3954V44.9143Z" fill="white"/>
<path d="M47.8192 41.8446C47.8192 42.5251 47.6939 43.0916 47.4434 43.5473C47.1985 44.003 46.8427 44.3477 46.3729 44.5785C45.9088 44.8033 45.3508 44.9143 44.6988 44.9143H43.0703V38.8828H44.8697C45.4675 38.8828 45.9885 38.9967 46.4298 39.2186C46.8683 39.4434 47.2099 39.7761 47.4548 40.2138C47.6968 40.6545 47.8192 41.1971 47.8192 41.8446ZM46.5665 41.8806C46.5665 41.4339 46.501 41.0652 46.3729 40.7774C46.2505 40.4896 46.0683 40.2798 45.8263 40.1419C45.5814 40.007 45.2853 39.938 44.938 39.938H44.2889V43.8591H44.8127C45.4049 43.8591 45.8433 43.6972 46.1337 43.3674C46.4213 43.0317 46.5665 42.5371 46.5665 41.8806Z" fill="white"/>
<path d="M56.768 44.9129L56.3466 43.4739H54.2626L53.8526 44.9129H52.543L54.5587 38.8574H56.0505L58.0776 44.9129H56.768ZM56.0619 42.4067L55.652 41.0038C55.6206 40.9079 55.5836 40.788 55.5381 40.6441C55.4982 40.5002 55.4584 40.3533 55.4128 40.2004C55.3672 40.0415 55.3331 39.9066 55.3103 39.7927C55.2875 39.9066 55.2534 40.0445 55.2078 40.2124C55.1623 40.3803 55.1167 40.5422 55.0712 40.692C55.0313 40.8359 55.0028 40.9409 54.98 41.0038L54.5701 42.4067H56.0619Z" fill="white"/>
<path d="M65.2361 44.9143H64.0289V39.95H62.4688V38.8828H66.7963V39.95H65.2361V44.9143Z" fill="white"/>
<path d="M71.9219 44.9143V38.8828H73.1404V44.9143H71.9219Z" fill="white"/>
<path d="M84.01 41.8944C84.01 42.3591 83.9559 42.7818 83.8505 43.1655C83.7424 43.5432 83.5772 43.87 83.3495 44.1487C83.1274 44.4215 82.8484 44.6344 82.5067 44.7843C82.1651 44.9282 81.758 45.0001 81.2882 45.0001C80.8241 45.0001 80.4227 44.9282 80.081 44.7843C79.7394 44.6344 79.4547 44.4215 79.2269 44.1487C79.0049 43.87 78.8397 43.5432 78.7258 43.1655C78.6177 42.7818 78.5664 42.3561 78.5664 41.8825C78.5664 41.2589 78.6604 40.7163 78.8511 40.2517C79.0476 39.79 79.3465 39.4333 79.7508 39.1845C80.1608 38.9297 80.6761 38.8008 81.2996 38.8008C81.9202 38.8008 82.4299 38.9297 82.8256 39.1845C83.227 39.4333 83.5231 39.793 83.7139 40.2637C83.9103 40.7283 84.01 41.2709 84.01 41.8944ZM79.8419 41.8944C79.8419 42.3201 79.8903 42.6829 79.9899 42.9856C80.0867 43.2914 80.2433 43.5222 80.4568 43.6811C80.6675 43.843 80.9465 43.9209 81.2882 43.9209C81.6355 43.9209 81.9174 43.843 82.1309 43.6811C82.3416 43.5222 82.4982 43.2914 82.5978 42.9856C82.6946 42.6829 82.7459 42.3201 82.7459 41.8944C82.7459 41.2649 82.632 40.7673 82.4042 40.4076C82.1822 40.0418 81.8149 39.856 81.2996 39.856C80.9579 39.856 80.6761 39.9399 80.4568 40.1078C80.2433 40.2697 80.0867 40.5005 79.9899 40.8033C79.8903 41.109 79.8419 41.4718 79.8419 41.8944Z" fill="white"/>
<path d="M94.5245 44.9143H92.987L90.493 40.3577H90.4589C90.4646 40.5496 90.4731 40.7414 90.4816 40.9333C90.4873 41.1251 90.4959 41.317 90.5044 41.5088C90.5101 41.6947 90.5187 41.8806 90.5272 42.0724V44.9143H89.4453V38.8828H90.9827L93.4654 43.4034H93.4881C93.4881 43.2115 93.4824 43.0257 93.4767 42.8398C93.4682 42.657 93.4597 42.4741 93.454 42.2882C93.4454 42.1054 93.4369 41.9225 93.4312 41.7367V38.8828H94.5245V44.9143Z" fill="white"/>
</svg>
