<svg width="151" height="44" viewBox="0 0 151 44" fill="none" xmlns="http://www.w3.org/2000/svg">
<path d="M65.1086 14.2683C63.9761 14.2683 62.9727 14.012 62.0984 13.4942C61.2242 12.9791 60.5387 12.2677 60.042 11.3603C59.5452 10.4476 59.2969 9.39899 59.2969 8.21174C59.2969 7.01925 59.5403 5.9706 60.032 5.06316C60.5288 4.15049 61.2093 3.43657 62.0786 2.91878C62.9453 2.40361 63.9388 2.14471 65.0589 2.14471C65.953 2.14471 66.7801 2.31208 67.5426 2.64681C68.3026 2.98154 68.9483 3.45226 69.4798 4.05896C70.0088 4.66044 70.3863 5.37174 70.6124 6.19288H67.9102C67.6444 5.68555 67.2669 5.29067 66.7776 5.01086C66.2859 4.72581 65.7295 4.58198 65.1086 4.58198C64.4653 4.58198 63.8966 4.73889 63.3999 5.0527C62.9031 5.36128 62.5157 5.78493 62.2375 6.32887C61.9593 6.87281 61.8203 7.50043 61.8203 8.21174C61.8203 8.90997 61.9544 9.52974 62.2276 10.0737C62.4983 10.6176 62.8833 11.0517 63.38 11.3708C63.8767 11.6846 64.4629 11.8415 65.1384 11.8415C65.9456 11.8415 66.6187 11.6271 67.1551 11.1929C67.6966 10.7615 68.0492 10.1887 68.2082 9.47744H64.6119V7.42721H70.8607C70.9253 8.42617 70.8334 9.34146 70.5826 10.1783C70.3367 11.0099 69.9592 11.7343 69.45 12.354C68.9384 12.9686 68.3175 13.4419 67.5823 13.7767C66.8472 14.1035 66.0226 14.2683 65.1086 14.2683Z" fill="white"/>
<path d="M73.2969 14.0376V2.38477H75.8103V14.0376H73.2969Z" fill="white"/>
<path d="M81.9807 14.0376L77.7188 2.3847H80.4309L81.9012 6.52702L83.2225 10.2195L86.0141 2.3847H88.6965L84.4445 14.0376H81.9807Z" fill="white"/>
<path d="M90.6055 14.0376V2.38477H93.1189V14.0376H90.6055Z" fill="white"/>
<path d="M96.2266 14.0376V2.38477H98.3625L103.25 9.4769V2.38477H105.744V14.0376H103.608L98.7201 6.89319V14.0376H96.2266Z" fill="white"/>
<path d="M113.995 14.2683C112.863 14.2683 111.859 14.012 110.985 13.4942C110.111 12.9791 109.425 12.2677 108.929 11.3603C108.432 10.4476 108.184 9.39899 108.184 8.21174C108.184 7.01925 108.427 5.9706 108.919 5.06316C109.415 4.15049 110.096 3.43657 110.965 2.91878C111.832 2.40361 112.826 2.14471 113.946 2.14471C114.84 2.14471 115.667 2.31208 116.429 2.64681C117.189 2.98154 117.835 3.45226 118.367 4.05896C118.896 4.66044 119.273 5.37174 119.499 6.19288H116.797C116.531 5.68555 116.154 5.29067 115.664 5.01086C115.173 4.72581 114.616 4.58198 113.995 4.58198C113.352 4.58198 112.783 4.73889 112.287 5.0527C111.79 5.36128 111.402 5.78493 111.124 6.32887C110.846 6.87281 110.707 7.50043 110.707 8.21174C110.707 8.90997 110.841 9.52974 111.114 10.0737C111.385 10.6176 111.77 11.0517 112.267 11.3708C112.763 11.6846 113.35 11.8415 114.025 11.8415C114.832 11.8415 115.505 11.6271 116.042 11.1929C116.583 10.7615 116.936 10.1887 117.095 9.47744H113.499V7.42721H119.747C119.812 8.42617 119.72 9.34146 119.469 10.1783C119.223 11.0099 118.846 11.7343 118.337 12.354C117.825 12.9686 117.204 13.4419 116.469 13.7767C115.734 14.1035 114.909 14.2683 113.995 14.2683Z" fill="white"/>
<path d="M62.6085 30.1033V20.9295H59.1016V18.4504H68.6388V20.9295H65.1219V30.1033H62.6085Z" fill="white"/>
<path d="M76.1277 30.3345C74.9803 30.3345 73.962 30.0782 73.0679 29.5605C72.1787 29.0453 71.4833 28.334 70.9816 27.4265C70.4774 26.5139 70.2266 25.4652 70.2266 24.278C70.2266 23.0855 70.4774 22.0368 70.9816 21.1294C71.4833 20.2167 72.1787 19.5028 73.0679 18.985C73.962 18.4698 74.9803 18.2109 76.1277 18.2109C77.2851 18.2109 78.3083 18.4698 79.1975 18.985C80.0841 19.5028 80.7796 20.2167 81.2837 21.1294C81.7929 22.0368 82.0487 23.0855 82.0487 24.278C82.0487 25.4652 81.7929 26.5139 81.2837 27.4265C80.7796 28.334 80.0841 29.0453 79.1975 29.5605C78.3083 30.0782 77.2851 30.3345 76.1277 30.3345ZM72.7897 24.278C72.7897 24.9762 72.9313 25.5934 73.2169 26.1294C73.5 26.6603 73.8949 27.0761 74.3991 27.3742C74.9008 27.675 75.477 27.824 76.1277 27.824C76.7958 27.824 77.3795 27.675 77.8762 27.3742C78.3779 27.0761 78.7703 26.6603 79.0485 26.1294C79.3266 25.5934 79.4657 24.9762 79.4657 24.278C79.4657 23.5823 79.3266 22.9678 79.0485 22.4369C78.7703 21.9008 78.3779 21.4824 77.8762 21.1817C77.3795 20.8836 76.7958 20.7319 76.1277 20.7319C75.477 20.7319 74.9008 20.8836 74.3991 21.1817C73.8949 21.4824 73.5 21.9008 73.2169 22.4369C72.9313 22.9678 72.7897 23.5823 72.7897 24.278Z" fill="white"/>
<path d="M89.6477 30.3345C88.5151 30.3345 87.5117 30.0782 86.6375 29.5605C85.7632 29.0453 85.0778 28.334 84.581 27.4265C84.0843 26.5139 83.8359 25.4652 83.8359 24.278C83.8359 23.0855 84.0793 22.0368 84.5711 21.1294C85.0678 20.2167 85.7483 19.5028 86.6176 18.985C87.4844 18.4698 88.4779 18.2109 89.598 18.2109C90.4921 18.2109 91.3192 18.3783 92.0816 18.713C92.8416 19.0478 93.4874 19.5185 94.0189 20.1252C94.5479 20.7267 94.9254 21.438 95.1514 22.2591H92.4492C92.1835 21.7518 91.806 21.3569 91.3167 21.0771C90.8249 20.792 90.2686 20.6482 89.6477 20.6482C89.0044 20.6482 88.4356 20.8051 87.9389 21.1189C87.4422 21.4275 87.0547 21.8512 86.7766 22.3951C86.4984 22.939 86.3593 23.5667 86.3593 24.278C86.3593 24.9762 86.4934 25.596 86.7666 26.1399C87.0374 26.6838 87.4223 27.118 87.919 27.437C88.4158 27.7508 89.0019 27.9077 89.6775 27.9077C90.4847 27.9077 91.1577 27.6933 91.6942 27.2592C92.2356 26.8277 92.5883 26.255 92.7473 25.5437H89.1509V23.4934H95.3998C95.4644 24.4924 95.3725 25.4077 95.1216 26.2445C94.8757 27.0761 94.4982 27.8005 93.9891 28.4203C93.4774 29.0348 92.8565 29.5081 92.1214 29.8429C91.3862 30.1698 90.5616 30.3345 89.6477 30.3345Z" fill="white"/>
<path d="M97.8359 30.1033V18.4504H105.108V20.6785H100.33V23.0948H104.681V25.3124H100.33V27.8543H105.287V30.1033H97.8359Z" fill="white"/>
<path d="M110.515 30.1033V20.9295H107.008V18.4504H116.545V20.9295H113.028V30.1033H110.515Z" fill="white"/>
<path d="M125.634 30.1033V25.4066H121.303V30.1033H118.789V18.4504H121.303V22.9275H125.634V18.4504H128.147V30.1033H125.634Z" fill="white"/>
<path d="M131.242 30.1033V18.4504H138.514V20.6785H133.736V23.0948H138.087V25.3124H133.736V27.8543H138.693V30.1033H131.242Z" fill="white"/>
<path d="M141.27 30.1033V18.4504H145.998C146.838 18.4504 147.571 18.6126 148.194 18.9316C148.815 19.2533 149.297 19.7135 149.634 20.3124C149.972 20.9139 150.141 21.6278 150.141 22.4568C150.141 23.3145 149.955 24.0546 149.585 24.6744C149.212 25.2889 148.696 25.7492 148.035 26.0551L150.33 30.1033H147.419L145.442 26.4736H143.783V30.1033H141.27ZM143.753 24.2455H145.661C146.282 24.2455 146.758 24.0938 147.091 23.7852C147.429 23.4793 147.598 23.0425 147.598 22.4777C147.598 21.9128 147.429 21.4787 147.091 21.1701C146.758 20.8642 146.282 20.7099 145.661 20.7099H143.753V24.2455Z" fill="white"/>
<path d="M62.5353 41.3243H61.4922V36.0627H64.3533V36.9832H62.5353V38.3326H64.2341V39.2426H62.5353V41.3243Z" fill="white"/>
<path d="M73.5612 38.691C73.5612 39.0963 73.514 39.465 73.4221 39.7998C73.3278 40.1293 73.1837 40.4143 72.985 40.6575C72.7913 40.8955 72.5479 41.0812 72.2499 41.2119C71.9518 41.3374 71.5967 41.4002 71.1869 41.4002C70.782 41.4002 70.4318 41.3374 70.1338 41.2119C69.8358 41.0812 69.5874 40.8955 69.3887 40.6575C69.195 40.4143 69.0509 40.1293 68.9516 39.7998C68.8572 39.465 68.8125 39.0937 68.8125 38.6805C68.8125 38.1366 68.8945 37.6632 69.0609 37.2579C69.2322 36.8552 69.493 36.544 69.8457 36.3269C70.2033 36.1046 70.6529 35.9922 71.1968 35.9922C71.7382 35.9922 72.1828 36.1046 72.528 36.3269C72.8782 36.544 73.1365 36.8578 73.3029 37.2684C73.4743 37.6737 73.5612 38.147 73.5612 38.691ZM69.9252 38.691C69.9252 39.0623 69.9674 39.3787 70.0543 39.6429C70.1388 39.9096 70.2754 40.111 70.4616 40.2496C70.6454 40.3908 70.8888 40.4588 71.1869 40.4588C71.4899 40.4588 71.7357 40.3908 71.922 40.2496C72.1058 40.111 72.2424 39.9096 72.3293 39.6429C72.4138 39.3787 72.4585 39.0623 72.4585 38.691C72.4585 38.1418 72.3591 37.7077 72.1605 37.3939C71.9667 37.0748 71.6463 36.9127 71.1968 36.9127C70.8988 36.9127 70.6529 36.9859 70.4616 37.1324C70.2754 37.2736 70.1388 37.4749 70.0543 37.7391C69.9674 38.0058 69.9252 38.3222 69.9252 38.691Z" fill="white"/>
<path d="M82.3704 36.0627V39.4728C82.3704 39.8363 82.2934 40.1632 82.1419 40.456C81.9954 40.7437 81.7669 40.9738 81.4564 41.1464C81.1509 41.3138 80.766 41.3975 80.304 41.3975C79.6409 41.3975 79.1367 41.2197 78.7939 40.864C78.4487 40.5083 78.2773 40.0376 78.2773 39.4518V36.0627H79.3304V39.2845C79.3304 39.7186 79.4124 40.0219 79.5788 40.1945C79.7501 40.3697 80.001 40.456 80.3338 40.456C80.5648 40.456 80.7511 40.4142 80.8901 40.3305C81.0342 40.2468 81.141 40.1187 81.208 39.9435C81.2801 39.7709 81.3173 39.546 81.3173 39.274V36.0627H82.3704Z" fill="white"/>
<path d="M91.7238 41.3243H90.3826L88.2069 37.3493H88.1771C88.1821 37.5167 88.1896 37.684 88.197 37.8514C88.202 38.0188 88.2094 38.1861 88.2169 38.3535C88.2219 38.5156 88.2293 38.6778 88.2368 38.8451V41.3243H87.293V36.0627H88.6341L90.7999 40.0062H90.8197C90.8197 39.8389 90.8148 39.6767 90.8098 39.5146C90.8024 39.3551 90.7949 39.1956 90.7899 39.0334C90.7825 38.8739 90.775 38.7144 90.7701 38.5523V36.0627H91.7238V41.3243Z" fill="white"/>
<path d="M100.819 38.6464C100.819 39.24 100.709 39.7343 100.491 40.1318C100.277 40.5293 99.9666 40.83 99.5568 41.0314C99.152 41.2275 98.6652 41.3243 98.0964 41.3243H96.6758V36.0627H98.2454C98.767 36.0627 99.2215 36.1621 99.6065 36.3556C99.989 36.5517 100.287 36.842 100.501 37.2238C100.712 37.6082 100.819 38.0815 100.819 38.6464ZM99.7257 38.6778C99.7257 38.2881 99.6686 37.9665 99.5568 37.7154C99.45 37.4644 99.2911 37.2813 99.0799 37.161C98.8664 37.0433 98.6081 36.9832 98.3051 36.9832H97.7388V40.4037H98.1958C98.7124 40.4037 99.0949 40.2625 99.3482 39.9749C99.599 39.682 99.7257 39.2505 99.7257 38.6778Z" fill="white"/>
<path d="M108.623 41.3236L108.256 40.0684H106.438L106.08 41.3236H104.938L106.696 36.0411H107.997L109.766 41.3236H108.623ZM108.007 39.1374L107.65 37.9135C107.622 37.8299 107.59 37.7253 107.55 37.5997C107.516 37.4742 107.481 37.3461 107.441 37.2127C107.401 37.0741 107.371 36.9564 107.352 36.857C107.332 36.9564 107.302 37.0767 107.262 37.2232C107.222 37.3696 107.183 37.5108 107.143 37.6416C107.108 37.7671 107.083 37.8586 107.063 37.9135L106.706 39.1374H108.007Z" fill="white"/>
<path d="M116.012 41.3243H114.959V36.9937H113.598V36.0627H117.373V36.9937H116.012V41.3243Z" fill="white"/>
<path d="M121.844 41.3243V36.0627H122.907V41.3243H121.844Z" fill="white"/>
<path d="M132.389 38.691C132.389 39.0963 132.342 39.465 132.25 39.7998C132.156 40.1293 132.012 40.4143 131.813 40.6575C131.619 40.8955 131.376 41.0812 131.078 41.2119C130.78 41.3374 130.425 41.4002 130.015 41.4002C129.61 41.4002 129.26 41.3374 128.962 41.2119C128.664 41.0812 128.416 40.8955 128.217 40.6575C128.023 40.4143 127.879 40.1293 127.78 39.7998C127.685 39.465 127.641 39.0937 127.641 38.6805C127.641 38.1366 127.723 37.6632 127.889 37.2579C128.06 36.8552 128.321 36.544 128.674 36.3269C129.031 36.1046 129.481 35.9922 130.025 35.9922C130.566 35.9922 131.011 36.1046 131.356 36.3269C131.706 36.544 131.965 36.8578 132.131 37.2684C132.302 37.6737 132.389 38.147 132.389 38.691ZM128.753 38.691C128.753 39.0623 128.796 39.3787 128.882 39.6429C128.967 39.9096 129.103 40.111 129.29 40.2496C129.474 40.3908 129.717 40.4588 130.015 40.4588C130.318 40.4588 130.564 40.3908 130.75 40.2496C130.934 40.111 131.071 39.9096 131.157 39.6429C131.242 39.3787 131.287 39.0623 131.287 38.691C131.287 38.1418 131.187 37.7077 130.989 37.3939C130.795 37.0748 130.474 36.9127 130.025 36.9127C129.727 36.9127 129.481 36.9859 129.29 37.1324C129.103 37.2736 128.967 37.4749 128.882 37.7391C128.796 38.0058 128.753 38.3222 128.753 38.691Z" fill="white"/>
<path d="M141.56 41.3243H140.219L138.043 37.3493H138.013C138.018 37.5167 138.026 37.684 138.033 37.8514C138.038 38.0188 138.045 38.1861 138.053 38.3535C138.058 38.5156 138.065 38.6778 138.073 38.8451V41.3243H137.129V36.0627H138.47L140.636 40.0062H140.656C140.656 39.8389 140.651 39.6767 140.646 39.5146C140.638 39.3551 140.631 39.1956 140.626 39.0334C140.618 38.8739 140.611 38.7144 140.606 38.5523V36.0627H141.56V41.3243Z" fill="white"/>
<mask id="mask0_2087_37228" style="mask-type:luminance" maskUnits="userSpaceOnUse" x="0" y="0" width="54" height="44">
<path d="M0 0H53.4083V43.17H0V0Z" fill="white"/>
</mask>
<g mask="url(#mask0_2087_37228)">
<path d="M1.66404 19.0525C2.39175 20.1351 3.8422 21.9866 6.33081 23.0719C5.36467 20.0802 3.00521 19.2434 1.66404 19.0525ZM13.2279 43.0852C12.8628 43.0852 12.6268 42.7688 12.6268 42.4523C12.6268 42.1385 12.8727 41.8221 13.2279 41.8221H21.6375C22.2386 41.2442 24.5434 38.6918 24.7793 34.1756C24.8439 33.3492 24.7793 32.4575 24.6626 31.6232C24.4142 29.8371 23.7511 28.2445 22.6012 27.0364C21.3891 25.7602 19.6307 24.9364 17.152 24.8005C16.0592 24.7325 14.8572 24.8005 13.516 25.0593C12.7336 25.1849 12.0035 25.2529 11.2757 25.2529C11.0274 25.2529 9.76321 25.5118 8.30282 26.0191C6.85486 32.583 2.12352 31.5657 1.70626 31.4402H1.64169C1.34117 31.3748 1.15986 31.0584 1.21202 30.674C1.87763 27.7372 4.96729 26.0191 7.51054 25.0593C7.57511 24.9914 7.62727 24.9914 7.69185 24.9914C7.75642 24.9234 7.81106 24.9234 7.93773 24.8684C2.48861 23.5923 0.248364 19.0629 0.0645747 18.689C0.0645747 18.621 0 18.4981 0 18.4301C0 18.1137 0.248364 17.7972 0.548885 17.7972C0.548885 17.7972 6.29852 17.4128 7.62727 23.6027C9.20439 24.0552 11.082 24.1781 13.3123 23.8616C14.7603 23.6027 16.0369 23.5452 17.1843 23.6027C19.9089 23.7283 21.9057 24.688 23.2345 26.0871C22.6881 24.8789 22.087 23.6707 21.2923 22.4521C19.4817 19.5833 17.0552 16.6466 14.2685 14.3531C13.4837 13.7203 12.756 13.1999 12.0258 12.8835C11.7253 13.4614 11.0597 14.0367 10.1482 14.4761C9.11746 14.8605 7.72413 15.054 5.91107 14.6696C4.94494 14.4081 3.78756 14.0367 2.58547 13.3254C2.28495 13.1999 2.1558 12.8155 2.28495 12.5566C2.34953 12.4337 2.40417 12.3657 2.53332 12.2977C2.53332 12.2977 8.52883 8.02723 15.0087 13.3123C17.9145 15.7313 20.3932 18.736 22.2708 21.7957C23.4183 23.6472 24.3944 25.5562 25.0575 27.2743C24.9954 25.6817 24.7595 24.0212 24.3944 22.303C23.6095 18.5425 22.2708 14.6565 20.4031 10.9535C20.1573 10.4436 19.8567 9.93625 19.5562 9.48384C18.1604 9.74535 13.5061 10.0618 10.8982 4.70606C10.7169 4.38964 10.8337 4.00783 11.1466 3.88231C11.2112 3.81432 11.2633 3.81432 11.3279 3.81432C11.7576 3.74632 17.6885 2.99056 21.4338 10.3782C23.3736 14.1387 24.7594 18.2156 25.5517 22.0441C25.8523 23.5138 26.0336 24.9129 26.1528 26.2466C26.3987 25.4778 26.6346 24.654 26.883 23.8276C26.2173 22.0441 21.5506 8.53718 26.0336 0.822647L26.5824 -0.00372314L27.0643 0.822647C27.0643 0.89064 31.3014 8.34366 25.3059 11.0895C25.6064 15.4829 26.7538 19.7507 27.484 21.9866C27.5461 21.9212 27.5461 21.7957 27.6007 21.6728C28.8773 17.9097 30.5091 13.9007 32.2675 10.3887C36.0203 2.99056 41.9537 3.7594 42.371 3.82739C42.4355 3.82739 42.4902 3.82739 42.5548 3.89277C42.8553 4.01829 42.9819 4.40271 42.8553 4.71914C40.1953 10.0722 35.5285 9.75581 34.1327 9.49692C33.8322 9.94671 33.5317 10.4567 33.2858 10.964C31.5274 14.4656 29.9602 18.3621 28.6836 22.0546C27.5362 25.5013 26.6247 28.6865 26.1428 31.1708V31.2388C26.3241 32.583 26.3887 33.7912 26.4434 34.8084C26.4434 36.0846 26.5079 37.1672 26.806 38.1845C27.1065 37.1672 27.1711 36.0846 27.1711 34.8084C27.2356 33.7912 27.2903 32.5699 27.4716 31.2388C27.9013 28.561 29.2325 25.1849 31.3436 21.8062C33.2212 18.7465 35.6999 15.7522 38.6703 13.3254C45.0856 8.04031 51.0811 12.3081 51.1457 12.3081C51.2103 12.3761 51.2649 12.4337 51.3295 12.567C51.4462 12.8285 51.3295 13.1999 51.0811 13.3359C49.8045 14.0367 48.6571 14.4211 47.6934 14.68C45.8804 15.0645 44.4846 14.8736 43.4563 14.4891C42.5423 14.0367 41.8792 13.4719 41.5787 12.8965C40.8485 13.213 40.1307 13.7203 39.336 14.3636C36.5468 16.657 34.1327 19.5938 32.3097 22.4626C31.5795 23.6707 30.9164 24.8789 30.3675 26.1002C31.6988 24.6985 33.6931 23.7387 36.4177 23.6132C37.5651 23.5452 38.8417 23.6132 40.2897 23.8747C42.5324 24.1911 44.41 24.0656 45.9747 23.6132C47.306 17.4363 53.0556 17.8077 53.0556 17.8077C53.3561 17.8077 53.602 18.1241 53.602 18.4405C53.602 18.5085 53.602 18.6341 53.5374 18.7021C53.3561 19.0839 51.1134 23.6132 45.6643 24.8789C45.7835 24.9469 45.8481 24.9469 45.9126 25.0044C45.9747 25.0044 46.0294 25.0044 46.094 25.0724C48.6372 26.0322 51.7244 27.7477 52.39 30.6844C52.4546 31.0688 52.2733 31.3853 51.9603 31.4533H51.8982C51.4686 31.5762 46.7472 32.6039 45.2992 26.0322C43.8512 25.5222 42.5746 25.2633 42.3288 25.2633C41.5986 25.2633 40.8808 25.1953 40.086 25.0724C38.7573 24.8109 37.5452 24.756 36.45 24.8109C33.9738 24.9364 32.2129 25.7707 31.0654 27.0468C29.8534 28.2576 29.1878 29.8476 28.9419 31.6337C28.8227 32.4575 28.7606 33.3492 28.8227 34.186C29.0711 38.7154 31.3659 41.2572 31.967 41.8326H40.4735C40.8386 41.8326 41.0745 42.149 41.0745 42.4654C41.0745 42.7818 40.8261 43.0983 40.4735 43.0983H13.2279V43.0852ZM23.2146 41.809H27.6976C26.1851 40.2164 25.7032 38.8174 25.4549 37.2797C24.9085 39.3927 23.9423 40.9173 23.2146 41.809ZM29.456 41.809H30.4867C29.7565 40.9173 28.7904 39.3927 28.244 37.2797C28.1273 38.0485 27.9435 38.8723 27.5163 39.6987C27.9435 40.342 28.5445 41.1108 29.456 41.809ZM18.9775 27.4103C18.677 27.4103 18.3119 27.4757 18.0114 27.6012C17.5296 27.7267 17.0999 28.0536 16.6802 28.425C16.3151 28.8774 16.017 29.3167 15.8978 29.8267C15.7811 30.1431 15.7165 30.5275 15.7165 30.8439C16.017 30.8439 16.3796 30.7759 16.6802 30.6504C17.1645 30.5275 17.5917 30.198 18.0114 29.8267C18.3765 29.3743 18.677 28.9349 18.7937 28.425C18.9229 28.1085 18.9775 27.7267 18.9775 27.4103ZM17.5917 26.448C18.2573 26.1891 18.9875 26.1342 19.5885 26.2571L20.0182 26.3251L20.0803 26.7095C20.1995 27.4103 20.1448 28.1085 19.899 28.8094C19.7177 29.5102 19.3526 30.1536 18.8037 30.6609C18.3218 31.2388 17.7109 31.6232 17.1098 31.8717C16.4442 32.0626 15.7165 32.1306 15.1155 31.9946L14.6858 31.9266L14.6212 31.5422C14.5045 30.8439 14.5566 30.1431 14.805 29.4422C14.9863 28.7414 15.3514 28.0981 15.8978 27.5908C16.3796 27.0259 16.9807 26.6415 17.5917 26.448ZM34.1129 25.6817C34.7139 25.5562 35.4416 25.6137 36.1072 25.8726C36.7083 26.1342 37.3192 26.5055 37.8011 27.0259C38.35 27.6012 38.715 28.2341 38.951 28.8774C39.1323 29.5782 39.1969 30.3471 39.0677 30.9773L39.0032 31.4297L38.5735 31.4977C37.9749 31.6232 37.2447 31.5657 36.6338 31.3068C35.9681 31.1133 35.3572 30.7289 34.8728 30.1536C34.3264 29.5782 33.9614 28.9454 33.78 28.3021C33.5317 27.6012 33.4795 26.9004 33.5963 26.1995L33.6608 25.8177L34.1129 25.6817ZM35.69 27.0259C35.3894 26.9004 35.0889 26.9004 34.7238 26.9004C34.7238 27.2168 34.7884 27.5332 34.9051 27.9176C35.0244 28.425 35.3348 28.8774 35.69 29.2618C36.1172 29.7142 36.5369 29.9627 37.0187 30.1536C37.3192 30.2791 37.6843 30.3471 37.9849 30.3471C37.9849 29.9627 37.9203 29.6462 37.8011 29.3298C37.6843 28.8199 37.3739 28.3125 37.0187 27.9281C36.6536 27.5332 36.1718 27.2168 35.69 27.0259ZM39.9271 22.0546C40.2276 22.0546 40.5902 21.9866 40.8907 21.8637C41.375 21.6728 41.8022 21.4113 42.1673 20.972C42.597 20.5875 42.8329 20.0802 43.0142 19.6278C43.1334 19.2434 43.198 18.927 43.198 18.6105C42.8329 18.5425 42.5324 18.6105 42.1673 18.736C41.7376 18.927 41.2558 19.1858 40.8907 19.6278C40.4635 20.0122 40.2276 20.5195 40.0438 20.972C39.9271 21.3564 39.9271 21.6728 39.9271 22.0546ZM41.2558 23.0039C40.5902 23.2654 39.9271 23.3203 39.2614 23.1974L38.8964 23.1294L38.8318 22.677C38.715 22.0441 38.715 21.2753 38.951 20.5771C39.1969 19.9442 39.5496 19.3009 40.0438 18.723C40.5902 18.2156 41.1912 17.8312 41.8022 17.5723C42.4678 17.3108 43.1334 17.2559 43.7991 17.3788L44.1642 17.5043L44.2809 17.8888C44.4001 18.587 44.3455 19.2878 44.0996 19.9887C43.9158 20.6215 43.5507 21.2648 43.0043 21.8402C42.4678 22.371 41.9214 22.813 41.2558 23.0039ZM14.4399 23.4563C13.7743 23.5792 13.1087 23.5243 12.4431 23.2654C11.842 23.0039 11.231 22.6325 10.6846 22.1121C10.2028 21.5368 9.77314 20.904 9.58935 20.2606C9.34347 19.5598 9.29131 18.791 9.40804 18.1581L9.52726 17.7083L9.88987 17.6403C10.5555 17.5148 11.2211 17.5723 11.8867 17.8312C12.4878 18.0247 13.0987 18.4641 13.6451 18.9845C14.127 19.5598 14.4921 20.1927 14.7404 20.836C14.9863 21.5368 14.9863 22.235 14.8572 22.9359L14.7926 23.3203L14.4399 23.4563ZM12.8082 22.1121C13.1732 22.235 13.4738 22.303 13.7743 22.235C13.7743 21.9212 13.7743 21.6048 13.6551 21.2204C13.4738 20.768 13.2279 20.2606 12.8082 19.8762C12.4431 19.4238 11.9612 19.1754 11.5316 18.9845C11.1665 18.859 10.8659 18.791 10.5679 18.791C10.5033 19.1754 10.5679 19.4918 10.6846 19.8762C10.8659 20.3286 11.1143 20.836 11.5316 21.2204C11.8967 21.6728 12.3263 21.9212 12.8082 22.1121ZM26.5502 2.48323C25.584 4.65115 25.2736 7.20348 25.2736 9.74535C28.3632 8.02723 27.3325 4.26673 26.5502 2.48323ZM35.0244 8.34366C36.4723 8.46918 39.3782 8.22075 41.385 4.96757C40.0438 5.03556 37.3838 5.4749 35.0244 8.34366ZM12.3785 4.96757C14.3753 8.22075 17.2812 8.46918 18.7937 8.34366C16.3796 5.4749 13.7743 5.03556 12.3785 4.96757ZM42.7162 12.3657C42.9621 12.7501 43.3793 13.0639 43.9903 13.3254C44.7751 13.6418 45.9325 13.8327 47.4997 13.4483C48.1007 13.3254 48.7763 13.0639 49.5586 12.7501C48.2175 12.1722 45.6767 11.3484 42.7162 12.3657ZM51.1258 30.334C50.3956 28.5505 48.518 27.3423 46.7049 26.5735C47.8002 30.0856 50.0305 30.402 51.1258 30.334ZM52.0373 19.0525C50.7061 19.2434 48.3466 20.0671 47.3705 23.0719C49.8492 21.9866 51.3071 20.1351 52.0373 19.0525ZM9.78308 13.3123C10.3295 13.0534 10.7492 12.737 10.9951 12.3526C8.02465 11.3379 5.4814 12.1617 4.15265 12.737C4.935 13.0534 5.60062 13.3123 6.21159 13.4379C7.77877 13.8327 8.93615 13.6418 9.78308 13.3123ZM6.99394 26.5735C5.18088 27.3423 3.30573 28.5505 2.57554 30.334C3.66834 30.402 5.96571 30.0856 6.99394 26.5735Z" fill="white"/>
</g>
</svg>
