<svg width="334" height="125" viewBox="0 0 334 125" fill="none" xmlns="http://www.w3.org/2000/svg">
<rect width="313" height="125" fill="black" fill-opacity="0.13"/>
<path d="M23.82 30.12C23.1267 30.12 22.5267 29.97 22.02 29.67C21.52 29.3633 21.1333 28.94 20.86 28.4C20.5933 27.8533 20.46 27.2233 20.46 26.51C20.46 25.79 20.5933 25.16 20.86 24.62C21.1333 24.0733 21.52 23.6467 22.02 23.34C22.5267 23.0333 23.1267 22.88 23.82 22.88C24.6533 22.88 25.3333 23.0867 25.86 23.5C26.3867 23.9067 26.72 24.4833 26.86 25.23H25.54C25.4467 24.8367 25.2567 24.5267 24.97 24.3C24.6833 24.0733 24.2967 23.96 23.81 23.96C23.37 23.96 22.99 24.0633 22.67 24.27C22.3567 24.47 22.1133 24.7633 21.94 25.15C21.7733 25.53 21.69 25.9833 21.69 26.51C21.69 27.0367 21.7733 27.49 21.94 27.87C22.1133 28.2433 22.3567 28.5333 22.67 28.74C22.99 28.94 23.37 29.04 23.81 29.04C24.2967 29.04 24.6833 28.9367 24.97 28.73C25.2567 28.5167 25.4467 28.2233 25.54 27.85H26.86C26.7267 28.5567 26.3933 29.1133 25.86 29.52C25.3333 29.92 24.6533 30.12 23.82 30.12ZM33.1542 30V23H34.3542V30H33.1542ZM28.7342 30V23H29.9342V30H28.7342ZM29.7542 26.92V25.94H33.3842V26.92H29.7542ZM36.9552 30.05C36.7286 30.05 36.5452 29.98 36.4052 29.84C36.2652 29.7 36.1952 29.5333 36.1952 29.34C36.1952 29.1333 36.2652 28.96 36.4052 28.82C36.5452 28.68 36.7286 28.61 36.9552 28.61C37.1752 28.61 37.3552 28.68 37.4952 28.82C37.6352 28.96 37.7052 29.1333 37.7052 29.34C37.7052 29.5333 37.6352 29.7 37.4952 29.84C37.3552 29.98 37.1752 30.05 36.9552 30.05ZM42.6799 30V23H43.8799V30H42.6799ZM45.9873 30V23H47.1873V30H45.9873ZM52.9162 30.05C52.6895 30.05 52.5062 29.98 52.3662 29.84C52.2262 29.7 52.1562 29.5333 52.1562 29.34C52.1562 29.1333 52.2262 28.96 52.3662 28.82C52.5062 28.68 52.6895 28.61 52.9162 28.61C53.1362 28.61 53.3162 28.68 53.4562 28.82C53.5962 28.96 53.6662 29.1333 53.6662 29.34C53.6662 29.5333 53.5962 29.7 53.4562 29.84C53.3162 29.98 53.1362 30.05 52.9162 30.05ZM52.9162 26.27C52.6895 26.27 52.5062 26.2 52.3662 26.06C52.2262 25.92 52.1562 25.7533 52.1562 25.56C52.1562 25.3533 52.2262 25.18 52.3662 25.04C52.5062 24.9 52.6895 24.83 52.9162 24.83C53.1362 24.83 53.3162 24.9 53.4562 25.04C53.5962 25.18 53.6662 25.3533 53.6662 25.56C53.6662 25.7533 53.5962 25.92 53.4562 26.06C53.3162 26.2 53.1362 26.27 52.9162 26.27ZM60.3002 30V23.97H58.2402V23H63.5502V23.97H61.4902V30H60.3002ZM69.6593 30V23H70.8593V30H69.6593ZM65.2393 30V23H66.4393V30H65.2393ZM66.2593 26.92V25.94H69.8893V26.92H66.2593ZM72.9803 30V23H77.5003V23.97H74.1803V25.98H77.2003V26.93H74.1803V29.03H77.5003V30H72.9803ZM82.603 30V23H85.123C85.683 23 86.1463 23.0967 86.513 23.29C86.8796 23.4767 87.153 23.73 87.333 24.05C87.513 24.37 87.603 24.7367 87.603 25.15C87.603 25.5367 87.5163 25.8933 87.343 26.22C87.1696 26.54 86.8996 26.8 86.533 27C86.1663 27.1933 85.6963 27.29 85.123 27.29H83.803V30H82.603ZM83.803 26.31H85.053C85.5263 26.31 85.8663 26.2067 86.073 26C86.2796 25.7867 86.383 25.5033 86.383 25.15C86.383 24.7833 86.2796 24.4967 86.073 24.29C85.8663 24.0833 85.5263 23.98 85.053 23.98H83.803V26.31ZM89.3381 30V23H90.5381V29.06H93.6581V30H89.3381ZM95.0664 30L97.6264 23H98.9664L101.526 30H100.256L98.2864 24.4L96.3164 30H95.0664ZM96.2064 28.35L96.5264 27.4H99.9764L100.296 28.35H96.2064ZM103.189 30V23H104.389L107.759 28.06V23H108.959V30H107.759L104.389 24.95V30H103.189ZM112.697 30V23.97H110.637V23H115.947V23.97H113.887V30H112.697ZM117.636 30V23H118.836V30H117.636ZM120.944 30V23H122.144L125.514 28.06V23H126.714V30H125.514L122.144 24.95V30H120.944ZM131.871 30.12C131.211 30.12 130.631 29.97 130.131 29.67C129.638 29.37 129.255 28.9533 128.981 28.42C128.708 27.88 128.571 27.25 128.571 26.53C128.571 25.8167 128.711 25.1867 128.991 24.64C129.271 24.0867 129.671 23.6567 130.191 23.35C130.718 23.0367 131.341 22.88 132.061 22.88C132.875 22.88 133.548 23.0767 134.081 23.47C134.621 23.8567 134.971 24.3967 135.131 25.09H133.781C133.681 24.7433 133.485 24.4733 133.191 24.28C132.898 24.0867 132.518 23.99 132.051 23.99C131.578 23.99 131.171 24.0933 130.831 24.3C130.498 24.5 130.241 24.7933 130.061 25.18C129.888 25.56 129.801 26.0133 129.801 26.54C129.801 27.0667 129.888 27.52 130.061 27.9C130.241 28.28 130.495 28.57 130.821 28.77C131.148 28.9633 131.531 29.06 131.971 29.06C132.625 29.06 133.118 28.8767 133.451 28.51C133.785 28.1433 133.981 27.6667 134.041 27.08H132.231V26.17H135.251V30H134.151L134.051 29.04C133.898 29.2667 133.721 29.4633 133.521 29.63C133.321 29.79 133.085 29.9133 132.811 30C132.545 30.08 132.231 30.12 131.871 30.12Z" fill="#6DFFCE" fill-opacity="0.7"/>
<path d="M21.46 57V43H30.16V44.64H23.46V49.18H29.06V50.78H23.46V57H21.46ZM32.1398 57V46.92H34.1398V57H32.1398ZM33.1598 45.02C32.7732 45.02 32.4532 44.9 32.1998 44.66C31.9598 44.42 31.8398 44.1133 31.8398 43.74C31.8398 43.38 31.9598 43.0867 32.1998 42.86C32.4532 42.62 32.7732 42.5 33.1598 42.5C33.5332 42.5 33.8465 42.62 34.0998 42.86C34.3532 43.0867 34.4798 43.38 34.4798 43.74C34.4798 44.1133 34.3532 44.42 34.0998 44.66C33.8465 44.9 33.5332 45.02 33.1598 45.02ZM36.7998 57V46.92H38.5998L38.7798 48.82C39.0065 48.3667 39.2998 47.9867 39.6598 47.68C40.0198 47.36 40.4398 47.1133 40.9198 46.94C41.4132 46.7667 41.9732 46.68 42.5998 46.68V48.8H41.8798C41.4665 48.8 41.0732 48.8533 40.6998 48.96C40.3265 49.0533 39.9932 49.22 39.6998 49.46C39.4198 49.7 39.1998 50.0267 39.0398 50.44C38.8798 50.8533 38.7998 51.3667 38.7998 51.98V57H36.7998ZM48.1366 57.24C47.2832 57.24 46.5366 57.1 45.8966 56.82C45.2566 56.54 44.7499 56.1467 44.3766 55.64C44.0032 55.1333 43.7766 54.54 43.6966 53.86H45.7366C45.8032 54.18 45.9299 54.4733 46.1166 54.74C46.3166 55.0067 46.5832 55.22 46.9166 55.38C47.2632 55.54 47.6699 55.62 48.1366 55.62C48.5766 55.62 48.9366 55.56 49.2166 55.44C49.5099 55.3067 49.7232 55.1333 49.8566 54.92C49.9899 54.6933 50.0566 54.4533 50.0566 54.2C50.0566 53.8267 49.9632 53.5467 49.7766 53.36C49.6032 53.16 49.3366 53.0067 48.9766 52.9C48.6299 52.78 48.2099 52.6733 47.7166 52.58C47.2499 52.5 46.7966 52.3933 46.3566 52.26C45.9299 52.1133 45.5432 51.9333 45.1966 51.72C44.8632 51.5067 44.5966 51.24 44.3966 50.92C44.1966 50.5867 44.0966 50.18 44.0966 49.7C44.0966 49.1267 44.2499 48.6133 44.5566 48.16C44.8632 47.6933 45.2966 47.3333 45.8566 47.08C46.4299 46.8133 47.1032 46.68 47.8766 46.68C48.9966 46.68 49.8966 46.9467 50.5766 47.48C51.2566 48.0133 51.6566 48.7667 51.7766 49.74H49.8366C49.7832 49.2867 49.5832 48.94 49.2366 48.7C48.8899 48.4467 48.4299 48.32 47.8566 48.32C47.2832 48.32 46.8432 48.4333 46.5366 48.66C46.2299 48.8867 46.0766 49.1867 46.0766 49.56C46.0766 49.8 46.1632 50.0133 46.3366 50.2C46.5099 50.3867 46.7632 50.5467 47.0966 50.68C47.4432 50.8 47.8632 50.9133 48.3566 51.02C49.0632 51.1533 49.6966 51.32 50.2566 51.52C50.8166 51.72 51.2632 52.0133 51.5966 52.4C51.9299 52.7867 52.0966 53.34 52.0966 54.06C52.1099 54.6867 51.9499 55.24 51.6166 55.72C51.2966 56.2 50.8366 56.5733 50.2366 56.84C49.6499 57.1067 48.9499 57.24 48.1366 57.24ZM58.0008 57C57.3741 57 56.8274 56.9 56.3608 56.7C55.8941 56.5 55.5341 56.1667 55.2808 55.7C55.0274 55.2333 54.9008 54.6 54.9008 53.8V48.62H53.1608V46.92H54.9008L55.1408 44.4H56.9008V46.92H59.7608V48.62H56.9008V53.82C56.9008 54.3933 57.0208 54.7867 57.2608 55C57.5008 55.2 57.9141 55.3 58.5008 55.3H59.6608V57H58.0008ZM66.7834 57V43H71.0834C72.7101 43 74.0568 43.2867 75.1234 43.86C76.1901 44.4333 76.9768 45.2467 77.4834 46.3C78.0034 47.34 78.2634 48.58 78.2634 50.02C78.2634 51.46 78.0034 52.7 77.4834 53.74C76.9768 54.78 76.1901 55.5867 75.1234 56.16C74.0701 56.72 72.7234 57 71.0834 57H66.7834ZM68.7834 55.32H71.0034C72.2968 55.32 73.3234 55.1067 74.0834 54.68C74.8434 54.2533 75.3834 53.6467 75.7034 52.86C76.0368 52.06 76.2034 51.1133 76.2034 50.02C76.2034 48.9133 76.0368 47.96 75.7034 47.16C75.3834 46.36 74.8434 45.7467 74.0834 45.32C73.3234 44.8933 72.2968 44.68 71.0034 44.68H68.7834V55.32ZM84.9702 57.24C84.0235 57.24 83.1702 57.02 82.4102 56.58C81.6635 56.14 81.0702 55.5267 80.6302 54.74C80.2035 53.94 79.9902 53.02 79.9902 51.98C79.9902 50.9133 80.2102 49.9867 80.6502 49.2C81.0902 48.4 81.6902 47.78 82.4502 47.34C83.2102 46.9 84.0635 46.68 85.0102 46.68C85.9702 46.68 86.8235 46.9 87.5702 47.34C88.3168 47.78 88.9035 48.3933 89.3302 49.18C89.7702 49.9667 89.9902 50.8933 89.9902 51.96C89.9902 53.0267 89.7702 53.9533 89.3302 54.74C88.9035 55.5267 88.3102 56.14 87.5502 56.58C86.7902 57.02 85.9302 57.24 84.9702 57.24ZM84.9702 55.52C85.5168 55.52 86.0102 55.3867 86.4502 55.12C86.9035 54.8533 87.2635 54.46 87.5302 53.94C87.8102 53.4067 87.9502 52.7467 87.9502 51.96C87.9502 51.1733 87.8168 50.52 87.5502 50C87.2835 49.4667 86.9235 49.0667 86.4702 48.8C86.0302 48.5333 85.5435 48.4 85.0102 48.4C84.4768 48.4 83.9835 48.5333 83.5302 48.8C83.0768 49.0667 82.7102 49.4667 82.4302 50C82.1635 50.52 82.0302 51.1733 82.0302 51.96C82.0302 52.7467 82.1635 53.4067 82.4302 53.94C82.7102 54.46 83.0702 54.8533 83.5102 55.12C83.9635 55.3867 84.4502 55.52 84.9702 55.52ZM92.1428 57V46.92H93.9428L94.0628 48.64C94.3828 48.04 94.8361 47.5667 95.4228 47.22C96.0095 46.86 96.6828 46.68 97.4428 46.68C98.2428 46.68 98.9295 46.84 99.5028 47.16C100.076 47.48 100.523 47.9667 100.843 48.62C101.163 49.26 101.323 50.0667 101.323 51.04V57H99.3228V51.24C99.3228 50.3067 99.1161 49.6 98.7028 49.12C98.2895 48.64 97.6895 48.4 96.9028 48.4C96.3828 48.4 95.9161 48.5267 95.5028 48.78C95.0895 49.02 94.7561 49.38 94.5028 49.86C94.2628 50.34 94.1428 50.9267 94.1428 51.62V57H92.1428ZM107.021 57.24C106.194 57.24 105.508 57.1 104.961 56.82C104.414 56.54 104.008 56.1667 103.741 55.7C103.474 55.22 103.341 54.7067 103.341 54.16C103.341 53.4933 103.514 52.9267 103.861 52.46C104.208 51.98 104.701 51.6133 105.341 51.36C105.981 51.1067 106.748 50.98 107.641 50.98H110.261C110.261 50.3933 110.174 49.9067 110.001 49.52C109.828 49.1333 109.568 48.8467 109.221 48.66C108.888 48.46 108.461 48.36 107.941 48.36C107.341 48.36 106.828 48.5067 106.401 48.8C105.974 49.08 105.708 49.5 105.601 50.06H103.601C103.681 49.3533 103.921 48.7533 104.321 48.26C104.734 47.7533 105.261 47.3667 105.901 47.1C106.541 46.82 107.221 46.68 107.941 46.68C108.888 46.68 109.681 46.8467 110.321 47.18C110.961 47.5133 111.441 47.9867 111.761 48.6C112.094 49.2 112.261 49.92 112.261 50.76V57H110.521L110.361 55.3C110.214 55.5667 110.041 55.82 109.841 56.06C109.641 56.3 109.401 56.5067 109.121 56.68C108.854 56.8533 108.541 56.9867 108.181 57.08C107.834 57.1867 107.448 57.24 107.021 57.24ZM107.401 55.62C107.828 55.62 108.214 55.5333 108.561 55.36C108.908 55.1867 109.201 54.9533 109.441 54.66C109.694 54.3533 109.881 54.0133 110.001 53.64C110.134 53.2533 110.208 52.86 110.221 52.46V52.4H107.841C107.268 52.4 106.801 52.4733 106.441 52.62C106.094 52.7533 105.841 52.94 105.681 53.18C105.521 53.42 105.441 53.7 105.441 54.02C105.441 54.3533 105.514 54.64 105.661 54.88C105.821 55.1067 106.048 55.2867 106.341 55.42C106.634 55.5533 106.988 55.62 107.401 55.62ZM118.539 57C117.912 57 117.366 56.9 116.899 56.7C116.432 56.5 116.072 56.1667 115.819 55.7C115.566 55.2333 115.439 54.6 115.439 53.8V48.62H113.699V46.92H115.439L115.679 44.4H117.439V46.92H120.299V48.62H117.439V53.82C117.439 54.3933 117.559 54.7867 117.799 55C118.039 55.2 118.452 55.3 119.039 55.3H120.199V57H118.539ZM122.445 57V46.92H124.445V57H122.445ZM123.465 45.02C123.078 45.02 122.758 44.9 122.505 44.66C122.265 44.42 122.145 44.1133 122.145 43.74C122.145 43.38 122.265 43.0867 122.505 42.86C122.758 42.62 123.078 42.5 123.465 42.5C123.838 42.5 124.151 42.62 124.405 42.86C124.658 43.0867 124.785 43.38 124.785 43.74C124.785 44.1133 124.658 44.42 124.405 44.66C124.151 44.9 123.838 45.02 123.465 45.02ZM131.705 57.24C130.758 57.24 129.905 57.02 129.145 56.58C128.398 56.14 127.805 55.5267 127.365 54.74C126.938 53.94 126.725 53.02 126.725 51.98C126.725 50.9133 126.945 49.9867 127.385 49.2C127.825 48.4 128.425 47.78 129.185 47.34C129.945 46.9 130.798 46.68 131.745 46.68C132.705 46.68 133.558 46.9 134.305 47.34C135.051 47.78 135.638 48.3933 136.065 49.18C136.505 49.9667 136.725 50.8933 136.725 51.96C136.725 53.0267 136.505 53.9533 136.065 54.74C135.638 55.5267 135.045 56.14 134.285 56.58C133.525 57.02 132.665 57.24 131.705 57.24ZM131.705 55.52C132.251 55.52 132.745 55.3867 133.185 55.12C133.638 54.8533 133.998 54.46 134.265 53.94C134.545 53.4067 134.685 52.7467 134.685 51.96C134.685 51.1733 134.551 50.52 134.285 50C134.018 49.4667 133.658 49.0667 133.205 48.8C132.765 48.5333 132.278 48.4 131.745 48.4C131.211 48.4 130.718 48.5333 130.265 48.8C129.811 49.0667 129.445 49.4667 129.165 50C128.898 50.52 128.765 51.1733 128.765 51.96C128.765 52.7467 128.898 53.4067 129.165 53.94C129.445 54.46 129.805 54.8533 130.245 55.12C130.698 55.3867 131.185 55.52 131.705 55.52ZM138.877 57V46.92H140.677L140.797 48.64C141.117 48.04 141.571 47.5667 142.157 47.22C142.744 46.86 143.417 46.68 144.177 46.68C144.977 46.68 145.664 46.84 146.237 47.16C146.811 47.48 147.257 47.9667 147.577 48.62C147.897 49.26 148.057 50.0667 148.057 51.04V57H146.057V51.24C146.057 50.3067 145.851 49.6 145.437 49.12C145.024 48.64 144.424 48.4 143.637 48.4C143.117 48.4 142.651 48.5267 142.237 48.78C141.824 49.02 141.491 49.38 141.237 49.86C140.997 50.34 140.877 50.9267 140.877 51.62V57H138.877Z" fill="white"/>
<line x1="21" y1="73" x2="21" y2="105" stroke="#757575" stroke-width="2"/>
<path d="M33.05 93.5V83.7H35.934C37.082 83.7 38.0293 83.9007 38.776 84.302C39.5227 84.694 40.0733 85.2587 40.428 85.996C40.792 86.724 40.974 87.6013 40.974 88.628C40.974 89.636 40.792 90.504 40.428 91.232C40.0733 91.96 39.5227 92.52 38.776 92.912C38.0293 93.304 37.082 93.5 35.934 93.5H33.05ZM34.226 92.52H35.906C36.858 92.52 37.614 92.366 38.174 92.058C38.7433 91.7407 39.1493 91.2927 39.392 90.714C39.6347 90.126 39.756 89.4307 39.756 88.628C39.756 87.8067 39.6347 87.102 39.392 86.514C39.1493 85.926 38.7433 85.4733 38.174 85.156C37.614 84.8387 36.858 84.68 35.906 84.68H34.226V92.52ZM45.7687 93.668C45.1153 93.668 44.5273 93.5187 44.0047 93.22C43.482 92.912 43.0713 92.4827 42.7727 91.932C42.474 91.372 42.3247 90.7233 42.3247 89.986C42.3247 89.23 42.474 88.5767 42.7727 88.026C43.0807 87.466 43.496 87.0367 44.0187 86.738C44.5507 86.43 45.1433 86.276 45.7967 86.276C46.4687 86.276 47.0613 86.43 47.5747 86.738C48.0973 87.0367 48.508 87.466 48.8067 88.026C49.1147 88.5767 49.2687 89.2253 49.2687 89.972C49.2687 90.7187 49.1147 91.372 48.8067 91.932C48.4987 92.4827 48.0833 92.912 47.5607 93.22C47.038 93.5187 46.4407 93.668 45.7687 93.668ZM45.7827 92.66C46.184 92.66 46.5573 92.562 46.9027 92.366C47.248 92.1607 47.528 91.8573 47.7427 91.456C47.9573 91.0547 48.0647 90.56 48.0647 89.972C48.0647 89.3747 47.9573 88.88 47.7427 88.488C47.5373 88.0867 47.262 87.788 46.9167 87.592C46.5807 87.3867 46.2073 87.284 45.7967 87.284C45.4047 87.284 45.0313 87.3867 44.6767 87.592C44.3313 87.788 44.0513 88.0867 43.8367 88.488C43.6313 88.88 43.5287 89.3747 43.5287 89.972C43.5287 90.56 43.6313 91.0547 43.8367 91.456C44.0513 91.8573 44.3267 92.1607 44.6627 92.366C45.008 92.562 45.3813 92.66 45.7827 92.66ZM50.9175 93.5V86.444H51.9815L52.0375 87.676C52.2615 87.2373 52.5788 86.8967 52.9895 86.654C53.4095 86.402 53.8855 86.276 54.4175 86.276C54.9682 86.276 55.4442 86.388 55.8455 86.612C56.2468 86.8267 56.5595 87.158 56.7835 87.606C57.0075 88.0447 57.1195 88.6047 57.1195 89.286V93.5H55.9435V89.412C55.9435 88.7027 55.7848 88.1707 55.4675 87.816C55.1595 87.4613 54.7208 87.284 54.1515 87.284C53.7595 87.284 53.4095 87.382 53.1015 87.578C52.7935 87.7647 52.5462 88.04 52.3595 88.404C52.1822 88.7587 52.0935 89.202 52.0935 89.734V93.5H50.9175ZM62.1066 93.668C61.4532 93.668 60.8652 93.5187 60.3426 93.22C59.8199 92.912 59.4092 92.4827 59.1106 91.932C58.8119 91.372 58.6626 90.7233 58.6626 89.986C58.6626 89.23 58.8119 88.5767 59.1106 88.026C59.4186 87.466 59.8339 87.0367 60.3566 86.738C60.8886 86.43 61.4812 86.276 62.1346 86.276C62.8066 86.276 63.3992 86.43 63.9126 86.738C64.4352 87.0367 64.8459 87.466 65.1446 88.026C65.4526 88.5767 65.6066 89.2253 65.6066 89.972C65.6066 90.7187 65.4526 91.372 65.1446 91.932C64.8366 92.4827 64.4212 92.912 63.8986 93.22C63.3759 93.5187 62.7786 93.668 62.1066 93.668ZM62.1206 92.66C62.5219 92.66 62.8952 92.562 63.2406 92.366C63.5859 92.1607 63.8659 91.8573 64.0806 91.456C64.2952 91.0547 64.4026 90.56 64.4026 89.972C64.4026 89.3747 64.2952 88.88 64.0806 88.488C63.8752 88.0867 63.5999 87.788 63.2546 87.592C62.9186 87.3867 62.5452 87.284 62.1346 87.284C61.7426 87.284 61.3692 87.3867 61.0146 87.592C60.6692 87.788 60.3892 88.0867 60.1746 88.488C59.9692 88.88 59.8666 89.3747 59.8666 89.972C59.8666 90.56 59.9692 91.0547 60.1746 91.456C60.3892 91.8573 60.6646 92.1607 61.0006 92.366C61.3459 92.562 61.7192 92.66 62.1206 92.66ZM67.2554 93.5V86.444H68.3194L68.4034 87.788C68.5621 87.4707 68.7627 87.2 69.0054 86.976C69.2574 86.752 69.5561 86.5793 69.9014 86.458C70.2561 86.3367 70.6574 86.276 71.1054 86.276V87.508H70.6714C70.3727 87.508 70.0881 87.55 69.8174 87.634C69.5467 87.7087 69.3041 87.8347 69.0894 88.012C68.8841 88.1893 68.7207 88.432 68.5994 88.74C68.4874 89.0387 68.4314 89.412 68.4314 89.86V93.5H67.2554ZM76.2258 93.5V83.7H79.1098C80.2578 83.7 81.2051 83.9007 81.9518 84.302C82.6984 84.694 83.2491 85.2587 83.6038 85.996C83.9678 86.724 84.1498 87.6013 84.1498 88.628C84.1498 89.636 83.9678 90.504 83.6038 91.232C83.2491 91.96 82.6984 92.52 81.9518 92.912C81.2051 93.304 80.2578 93.5 79.1098 93.5H76.2258ZM77.4018 92.52H79.0818C80.0338 92.52 80.7898 92.366 81.3498 92.058C81.9191 91.7407 82.3251 91.2927 82.5678 90.714C82.8104 90.126 82.9318 89.4307 82.9318 88.628C82.9318 87.8067 82.8104 87.102 82.5678 86.514C82.3251 85.926 81.9191 85.4733 81.3498 85.156C80.7898 84.8387 80.0338 84.68 79.0818 84.68H77.4018V92.52ZM88.0905 93.668C87.5211 93.668 87.0451 93.57 86.6625 93.374C86.2798 93.1687 85.9951 92.9027 85.8085 92.576C85.6218 92.24 85.5285 91.876 85.5285 91.484C85.5285 91.008 85.6498 90.6067 85.8925 90.28C86.1445 89.944 86.4945 89.692 86.9425 89.524C87.3998 89.3467 87.9365 89.258 88.5525 89.258H90.4145C90.4145 88.8193 90.3445 88.4553 90.2045 88.166C90.0738 87.8673 89.8778 87.6433 89.6165 87.494C89.3645 87.3447 89.0471 87.27 88.6645 87.27C88.2165 87.27 87.8291 87.382 87.5025 87.606C87.1758 87.83 86.9751 88.1613 86.9005 88.6H85.6965C85.7525 88.096 85.9205 87.676 86.2005 87.34C86.4898 86.9947 86.8538 86.7333 87.2925 86.556C87.7311 86.3693 88.1885 86.276 88.6645 86.276C89.3178 86.276 89.8591 86.3973 90.2885 86.64C90.7271 86.8733 91.0538 87.2047 91.2685 87.634C91.4831 88.054 91.5905 88.5533 91.5905 89.132V93.5H90.5405L90.4705 92.254C90.3771 92.45 90.2558 92.6367 90.1065 92.814C89.9665 92.982 89.7985 93.1313 89.6025 93.262C89.4158 93.3833 89.1965 93.4813 88.9445 93.556C88.6925 93.6307 88.4078 93.668 88.0905 93.668ZM88.2725 92.674C88.5991 92.674 88.8931 92.6087 89.1545 92.478C89.4251 92.338 89.6538 92.1513 89.8405 91.918C90.0271 91.6753 90.1671 91.4093 90.2605 91.12C90.3631 90.8307 90.4145 90.5273 90.4145 90.21V90.168H88.6505C88.1931 90.168 87.8245 90.224 87.5445 90.336C87.2645 90.4387 87.0638 90.588 86.9425 90.784C86.8211 90.9707 86.7605 91.1853 86.7605 91.428C86.7605 91.68 86.8165 91.8993 86.9285 92.086C87.0498 92.2727 87.2225 92.4173 87.4465 92.52C87.6798 92.6227 87.9551 92.674 88.2725 92.674ZM95.9903 93.5C95.5703 93.5 95.2063 93.4347 94.8983 93.304C94.5903 93.1733 94.3523 92.954 94.1843 92.646C94.0256 92.3287 93.9463 91.904 93.9463 91.372V87.438H92.7143V86.444H93.9463L94.1003 84.736H95.1223V86.444H97.1663V87.438H95.1223V91.372C95.1223 91.8107 95.2109 92.1093 95.3883 92.268C95.5656 92.4173 95.8783 92.492 96.3263 92.492H97.0823V93.5H95.9903ZM100.997 93.668C100.427 93.668 99.9514 93.57 99.5687 93.374C99.186 93.1687 98.9014 92.9027 98.7147 92.576C98.528 92.24 98.4347 91.876 98.4347 91.484C98.4347 91.008 98.556 90.6067 98.7987 90.28C99.0507 89.944 99.4007 89.692 99.8487 89.524C100.306 89.3467 100.843 89.258 101.459 89.258H103.321C103.321 88.8193 103.251 88.4553 103.111 88.166C102.98 87.8673 102.784 87.6433 102.523 87.494C102.271 87.3447 101.953 87.27 101.571 87.27C101.123 87.27 100.735 87.382 100.409 87.606C100.082 87.83 99.8814 88.1613 99.8067 88.6H98.6027C98.6587 88.096 98.8267 87.676 99.1067 87.34C99.396 86.9947 99.76 86.7333 100.199 86.556C100.637 86.3693 101.095 86.276 101.571 86.276C102.224 86.276 102.765 86.3973 103.195 86.64C103.633 86.8733 103.96 87.2047 104.175 87.634C104.389 88.054 104.497 88.5533 104.497 89.132V93.5H103.447L103.377 92.254C103.283 92.45 103.162 92.6367 103.013 92.814C102.873 92.982 102.705 93.1313 102.509 93.262C102.322 93.3833 102.103 93.4813 101.851 93.556C101.599 93.6307 101.314 93.668 100.997 93.668ZM101.179 92.674C101.505 92.674 101.799 92.6087 102.061 92.478C102.331 92.338 102.56 92.1513 102.747 91.918C102.933 91.6753 103.073 91.4093 103.167 91.12C103.269 90.8307 103.321 90.5273 103.321 90.21V90.168H101.557C101.099 90.168 100.731 90.224 100.451 90.336C100.171 90.4387 99.97 90.588 99.8487 90.784C99.7274 90.9707 99.6667 91.1853 99.6667 91.428C99.6667 91.68 99.7227 91.8993 99.8347 92.086C99.956 92.2727 100.129 92.4173 100.353 92.52C100.586 92.6227 100.861 92.674 101.179 92.674ZM110.012 93.668C109.611 93.668 109.247 93.612 108.92 93.5C108.603 93.3787 108.323 93.22 108.08 93.024C107.837 92.828 107.637 92.5993 107.478 92.338L107.38 93.5H106.316V83.42H107.492V87.606C107.716 87.242 108.038 86.9293 108.458 86.668C108.878 86.4067 109.396 86.276 110.012 86.276C110.703 86.276 111.3 86.4393 111.804 86.766C112.317 87.0833 112.714 87.522 112.994 88.082C113.283 88.6327 113.428 89.2627 113.428 89.972C113.428 90.6813 113.283 91.316 112.994 91.876C112.714 92.436 112.317 92.8747 111.804 93.192C111.291 93.5093 110.693 93.668 110.012 93.668ZM109.872 92.646C110.339 92.646 110.749 92.534 111.104 92.31C111.459 92.086 111.734 91.778 111.93 91.386C112.135 90.9847 112.238 90.5133 112.238 89.972C112.238 89.44 112.135 88.9733 111.93 88.572C111.734 88.1707 111.459 87.858 111.104 87.634C110.749 87.41 110.339 87.298 109.872 87.298C109.405 87.298 108.995 87.41 108.64 87.634C108.285 87.858 108.01 88.1707 107.814 88.572C107.618 88.9733 107.52 89.44 107.52 89.972C107.52 90.5133 107.618 90.9847 107.814 91.386C108.01 91.778 108.285 92.086 108.64 92.31C108.995 92.534 109.405 92.646 109.872 92.646ZM117.389 93.668C116.82 93.668 116.344 93.57 115.961 93.374C115.579 93.1687 115.294 92.9027 115.107 92.576C114.921 92.24 114.827 91.876 114.827 91.484C114.827 91.008 114.949 90.6067 115.191 90.28C115.443 89.944 115.793 89.692 116.241 89.524C116.699 89.3467 117.235 89.258 117.851 89.258H119.713C119.713 88.8193 119.643 88.4553 119.503 88.166C119.373 87.8673 119.177 87.6433 118.915 87.494C118.663 87.3447 118.346 87.27 117.963 87.27C117.515 87.27 117.128 87.382 116.801 87.606C116.475 87.83 116.274 88.1613 116.199 88.6H114.995C115.051 88.096 115.219 87.676 115.499 87.34C115.789 86.9947 116.153 86.7333 116.591 86.556C117.03 86.3693 117.487 86.276 117.963 86.276C118.617 86.276 119.158 86.3973 119.587 86.64C120.026 86.8733 120.353 87.2047 120.567 87.634C120.782 88.054 120.889 88.5533 120.889 89.132V93.5H119.839L119.769 92.254C119.676 92.45 119.555 92.6367 119.405 92.814C119.265 92.982 119.097 93.1313 118.901 93.262C118.715 93.3833 118.495 93.4813 118.243 93.556C117.991 93.6307 117.707 93.668 117.389 93.668ZM117.571 92.674C117.898 92.674 118.192 92.6087 118.453 92.478C118.724 92.338 118.953 92.1513 119.139 91.918C119.326 91.6753 119.466 91.4093 119.559 91.12C119.662 90.8307 119.713 90.5273 119.713 90.21V90.168H117.949C117.492 90.168 117.123 90.224 116.843 90.336C116.563 90.4387 116.363 90.588 116.241 90.784C116.12 90.9707 116.059 91.1853 116.059 91.428C116.059 91.68 116.115 91.8993 116.227 92.086C116.349 92.2727 116.521 92.4173 116.745 92.52C116.979 92.6227 117.254 92.674 117.571 92.674ZM125.369 93.668C124.79 93.668 124.281 93.57 123.843 93.374C123.404 93.178 123.054 92.9073 122.793 92.562C122.541 92.2073 122.387 91.792 122.331 91.316H123.535C123.581 91.5587 123.679 91.7827 123.829 91.988C123.978 92.1933 124.179 92.3613 124.431 92.492C124.692 92.6133 125.009 92.674 125.383 92.674C125.709 92.674 125.98 92.6273 126.195 92.534C126.409 92.4313 126.568 92.296 126.671 92.128C126.783 91.96 126.839 91.778 126.839 91.582C126.839 91.2927 126.769 91.0733 126.629 90.924C126.498 90.7747 126.302 90.658 126.041 90.574C125.779 90.4807 125.462 90.4013 125.089 90.336C124.781 90.28 124.477 90.2053 124.179 90.112C123.88 90.0187 123.614 89.8973 123.381 89.748C123.147 89.5893 122.961 89.398 122.821 89.174C122.69 88.95 122.625 88.6747 122.625 88.348C122.625 87.9467 122.727 87.592 122.933 87.284C123.147 86.9667 123.446 86.7193 123.829 86.542C124.211 86.3647 124.659 86.276 125.173 86.276C125.929 86.276 126.54 86.458 127.007 86.822C127.473 87.186 127.749 87.7133 127.833 88.404H126.671C126.624 88.0493 126.47 87.774 126.209 87.578C125.957 87.3727 125.607 87.27 125.159 87.27C124.72 87.27 124.384 87.3587 124.151 87.536C123.927 87.7133 123.815 87.9467 123.815 88.236C123.815 88.4227 123.875 88.5907 123.997 88.74C124.127 88.88 124.319 89.0013 124.571 89.104C124.823 89.2067 125.126 89.2907 125.481 89.356C125.947 89.44 126.372 89.552 126.755 89.692C127.137 89.832 127.445 90.042 127.679 90.322C127.921 90.5927 128.043 90.98 128.043 91.484C128.043 91.9227 127.931 92.3053 127.707 92.632C127.492 92.9587 127.184 93.2153 126.783 93.402C126.381 93.5793 125.91 93.668 125.369 93.668ZM132.83 93.668C132.177 93.668 131.593 93.514 131.08 93.206C130.567 92.898 130.165 92.4687 129.876 91.918C129.587 91.358 129.442 90.7093 129.442 89.972C129.442 89.2253 129.582 88.5767 129.862 88.026C130.151 87.4753 130.553 87.046 131.066 86.738C131.589 86.43 132.186 86.276 132.858 86.276C133.549 86.276 134.137 86.43 134.622 86.738C135.107 87.046 135.476 87.452 135.728 87.956C135.989 88.4507 136.12 88.9967 136.12 89.594C136.12 89.6873 136.12 89.7853 136.12 89.888C136.12 89.9907 136.115 90.1073 136.106 90.238H130.324V89.328H134.958C134.93 88.684 134.715 88.18 134.314 87.816C133.922 87.452 133.427 87.27 132.83 87.27C132.438 87.27 132.069 87.3633 131.724 87.55C131.379 87.7273 131.103 87.9933 130.898 88.348C130.693 88.6933 130.59 89.1273 130.59 89.65V90.042C130.59 90.6207 130.693 91.106 130.898 91.498C131.113 91.89 131.388 92.184 131.724 92.38C132.069 92.576 132.438 92.674 132.83 92.674C133.325 92.674 133.731 92.5667 134.048 92.352C134.375 92.128 134.613 91.8247 134.762 91.442H135.924C135.803 91.8713 135.602 92.254 135.322 92.59C135.042 92.9167 134.692 93.178 134.272 93.374C133.861 93.57 133.381 93.668 132.83 93.668Z" fill="white"/>
<path d="M301.5 16.2451L293 16.2451" stroke="white" stroke-width="1.6" stroke-linecap="round"/>
</svg>
