<svg width="390" height="378" viewBox="0 0 390 378" fill="none" xmlns="http://www.w3.org/2000/svg">
<ellipse cx="56.7417" cy="210.543" rx="6.58058" ry="6.57601" fill="url(#paint0_radial_2087_37939)"/>
<ellipse cx="56.7417" cy="210.543" rx="6.58058" ry="6.57601" fill="black" fill-opacity="0.07"/>
<ellipse cx="122.546" cy="197.736" rx="6.58058" ry="6.2299" fill="url(#paint1_radial_2087_37939)"/>
<ellipse cx="122.546" cy="197.736" rx="6.58058" ry="6.2299" fill="black" fill-opacity="0.07"/>
<ellipse cx="83.7554" cy="210.543" rx="6.58058" ry="6.57601" fill="url(#paint2_radial_2087_37939)"/>
<ellipse cx="83.7554" cy="210.543" rx="6.58058" ry="6.57601" fill="black" fill-opacity="0.07"/>
<ellipse cx="83.7554" cy="233.731" rx="6.58058" ry="6.57601" fill="url(#paint3_radial_2087_37939)"/>
<ellipse cx="83.7554" cy="233.731" rx="6.58058" ry="6.57601" fill="black" fill-opacity="0.07"/>
<ellipse cx="122.546" cy="210.543" rx="6.58058" ry="6.57601" fill="url(#paint4_radial_2087_37939)"/>
<ellipse cx="122.546" cy="210.543" rx="6.58058" ry="6.57601" fill="black" fill-opacity="0.07"/>
<ellipse cx="149.56" cy="140.434" rx="6.58058" ry="6.57601" fill="#38F1FF" fill-opacity="0.2"/>
<ellipse cx="149.56" cy="140.434" rx="6.58058" ry="6.57601" fill="black" fill-opacity="0.07"/>
<ellipse cx="135.707" cy="153.587" rx="6.58058" ry="6.57601" fill="#93CD4D"/>
<ellipse cx="135.707" cy="153.587" rx="6.58058" ry="6.57601" fill="black" fill-opacity="0.07"/>
<ellipse cx="149.56" cy="127.282" rx="6.58058" ry="6.57601" fill="#38F1FF" fill-opacity="0.2"/>
<ellipse cx="149.56" cy="127.282" rx="6.58058" ry="6.57601" fill="black" fill-opacity="0.07"/>
<ellipse cx="109.385" cy="170.545" rx="6.58058" ry="6.2299" fill="#38F1FF" fill-opacity="0.2"/>
<ellipse cx="109.385" cy="170.545" rx="6.58058" ry="6.2299" fill="black" fill-opacity="0.07"/>
<ellipse cx="96.5702" cy="197.736" rx="6.23424" ry="6.2299" fill="url(#paint5_radial_2087_37939)"/>
<ellipse cx="96.5702" cy="197.736" rx="6.23424" ry="6.2299" fill="black" fill-opacity="0.07"/>
<ellipse cx="136.053" cy="197.736" rx="6.92693" ry="6.2299" fill="#38F1FF" fill-opacity="0.2"/>
<ellipse cx="136.053" cy="197.736" rx="6.92693" ry="6.2299" fill="black" fill-opacity="0.07"/>
<ellipse cx="122.546" cy="183.698" rx="6.58058" ry="6.92211" fill="#38F1FF" fill-opacity="0.2"/>
<ellipse cx="122.546" cy="183.698" rx="6.58058" ry="6.92211" fill="black" fill-opacity="0.07"/>
<ellipse cx="43.5806" cy="210.543" rx="6.58058" ry="6.57601" fill="#38F1FF" fill-opacity="0.1"/>
<ellipse cx="43.5806" cy="210.543" rx="6.58058" ry="6.57601" fill="black" fill-opacity="0.07"/>
<path d="M75.2538 200.617L72.9079 198.273L75.2538 195.929C75.6723 195.511 75.6723 194.826 75.2538 194.408L74.3662 193.521C73.9477 193.103 73.263 193.103 72.8445 193.521L70.4987 195.866L68.1528 193.521C67.7343 193.103 67.0496 193.103 66.6311 193.521L65.7435 194.408C65.3251 194.826 65.3251 195.511 65.7435 195.929L68.0894 198.273L65.7435 200.617C65.3251 201.036 65.3251 201.72 65.7435 202.138L66.6311 203.025C67.0496 203.443 67.7343 203.443 68.1528 203.025L70.4987 200.681L72.8445 203.025C73.263 203.443 73.9477 203.443 74.3662 203.025L75.2538 202.138C75.6723 201.72 75.6723 201.036 75.2538 200.617Z" fill="url(#paint6_radial_2087_37939)"/>
<path d="M75.2538 200.617L72.9079 198.273L75.2538 195.929C75.6723 195.511 75.6723 194.826 75.2538 194.408L74.3662 193.521C73.9477 193.103 73.263 193.103 72.8445 193.521L70.4987 195.866L68.1528 193.521C67.7343 193.103 67.0496 193.103 66.6311 193.521L65.7435 194.408C65.3251 194.826 65.3251 195.511 65.7435 195.929L68.0894 198.273L65.7435 200.617C65.3251 201.036 65.3251 201.72 65.7435 202.138L66.6311 203.025C67.0496 203.443 67.7343 203.443 68.1528 203.025L70.4987 200.681L72.8445 203.025C73.263 203.443 73.9477 203.443 74.3662 203.025L75.2538 202.138C75.6723 201.72 75.6723 201.036 75.2538 200.617Z" fill="black" fill-opacity="0.07"/>
<ellipse cx="96.5364" cy="183.871" rx="7.2805" ry="6.94474" fill="#93CD4D"/>
<ellipse cx="96.5364" cy="183.871" rx="7.2805" ry="6.94474" fill="black" fill-opacity="0.07"/>
<ellipse cx="83.7554" cy="170.545" rx="6.58058" ry="6.2299" fill="#38F1FF" fill-opacity="0.2"/>
<ellipse cx="83.7554" cy="170.545" rx="6.58058" ry="6.2299" fill="black" fill-opacity="0.07"/>
<ellipse cx="149.56" cy="210.543" rx="6.58058" ry="6.57601" fill="#38F1FF" fill-opacity="0.1"/>
<ellipse cx="149.56" cy="210.543" rx="6.58058" ry="6.57601" fill="black" fill-opacity="0.07"/>
<ellipse cx="83.9155" cy="268.274" rx="6.58058" ry="6.57601" fill="#38F1FF" fill-opacity="0.1"/>
<ellipse cx="83.9155" cy="268.274" rx="6.58058" ry="6.57601" fill="black" fill-opacity="0.07"/>
<ellipse cx="56.7417" cy="255.122" rx="6.58058" ry="6.57601" fill="#38F1FF" fill-opacity="0.1"/>
<ellipse cx="56.7417" cy="255.122" rx="6.58058" ry="6.57601" fill="black" fill-opacity="0.07"/>
<ellipse cx="30.5806" cy="210.907" rx="6.58058" ry="6.57601" fill="#38F1FF" fill-opacity="0.1"/>
<ellipse cx="30.5806" cy="210.907" rx="6.58058" ry="6.57601" fill="black" fill-opacity="0.07"/>
<ellipse cx="30.5806" cy="223.907" rx="6.58058" ry="6.57601" fill="#38F1FF" fill-opacity="0.1"/>
<ellipse cx="30.5806" cy="223.907" rx="6.58058" ry="6.57601" fill="black" fill-opacity="0.07"/>
<ellipse cx="17.5806" cy="223.907" rx="6.58058" ry="6.57601" fill="#38F1FF" fill-opacity="0.1"/>
<ellipse cx="17.5806" cy="223.907" rx="6.58058" ry="6.57601" fill="black" fill-opacity="0.07"/>
<ellipse cx="188.35" cy="210.543" rx="6.58058" ry="6.57601" fill="url(#paint7_radial_2087_37939)"/>
<ellipse cx="188.35" cy="210.543" rx="6.58058" ry="6.57601" fill="black" fill-opacity="0.07"/>
<ellipse cx="202.207" cy="236.155" rx="6.58058" ry="6.57601" fill="url(#paint8_radial_2087_37939)"/>
<ellipse cx="202.207" cy="236.155" rx="6.58058" ry="6.57601" fill="black" fill-opacity="0.07"/>
<path d="M325.244 213.186L322.898 210.841L325.244 208.497C325.662 208.079 325.662 207.395 325.244 206.977L324.356 206.09C323.938 205.671 323.253 205.671 322.835 206.09L320.489 208.434L318.143 206.09C317.725 205.671 317.04 205.671 316.621 206.09L315.734 206.977C315.315 207.395 315.315 208.079 315.734 208.497L318.08 210.841L315.734 213.186C315.315 213.604 315.315 214.288 315.734 214.706L316.621 215.593C317.04 216.011 317.725 216.011 318.143 215.593L320.489 213.249L322.835 215.593C323.253 216.011 323.938 216.011 324.356 215.593L325.244 214.706C325.662 214.288 325.662 213.604 325.244 213.186Z" fill="url(#paint9_radial_2087_37939)"/>
<path d="M325.244 213.186L322.898 210.841L325.244 208.497C325.662 208.079 325.662 207.395 325.244 206.977L324.356 206.09C323.938 205.671 323.253 205.671 322.835 206.09L320.489 208.434L318.143 206.09C317.725 205.671 317.04 205.671 316.621 206.09L315.734 206.977C315.315 207.395 315.315 208.079 315.734 208.497L318.08 210.841L315.734 213.186C315.315 213.604 315.315 214.288 315.734 214.706L316.621 215.593C317.04 216.011 317.725 216.011 318.143 215.593L320.489 213.249L322.835 215.593C323.253 216.011 323.938 216.011 324.356 215.593L325.244 214.706C325.662 214.288 325.662 213.604 325.244 213.186Z" fill="#2A5B7E"/>
<ellipse cx="228.531" cy="197.391" rx="6.58058" ry="6.57601" fill="url(#paint10_radial_2087_37939)"/>
<ellipse cx="228.531" cy="197.391" rx="6.58058" ry="6.57601" fill="black" fill-opacity="0.07"/>
<ellipse cx="254.852" cy="197.391" rx="6.58058" ry="6.57601" fill="#38F1FF" fill-opacity="0.2"/>
<ellipse cx="254.852" cy="197.391" rx="6.58058" ry="6.57601" fill="black" fill-opacity="0.07"/>
<ellipse cx="268.013" cy="197.391" rx="6.58058" ry="6.57601" fill="#38F1FF" fill-opacity="0.2"/>
<ellipse cx="268.013" cy="197.391" rx="6.58058" ry="6.57601" fill="black" fill-opacity="0.07"/>
<ellipse cx="215.368" cy="210.543" rx="6.58058" ry="6.57601" fill="url(#paint11_radial_2087_37939)"/>
<ellipse cx="215.368" cy="210.543" rx="6.58058" ry="6.57601" fill="black" fill-opacity="0.07"/>
<ellipse cx="241.689" cy="182.661" rx="6.58058" ry="6.57601" fill="url(#paint12_radial_2087_37939)"/>
<ellipse cx="241.689" cy="182.661" rx="6.58058" ry="6.57601" fill="black" fill-opacity="0.07"/>
<ellipse cx="149.56" cy="197.736" rx="6.58058" ry="6.2299" fill="url(#paint13_radial_2087_37939)"/>
<ellipse cx="149.56" cy="197.736" rx="6.58058" ry="6.2299" fill="black" fill-opacity="0.07"/>
<ellipse cx="188.35" cy="197.736" rx="6.58058" ry="6.2299" fill="url(#paint14_radial_2087_37939)"/>
<ellipse cx="188.35" cy="197.736" rx="6.58058" ry="6.2299" fill="black" fill-opacity="0.07"/>
<ellipse cx="320.657" cy="197.391" rx="6.58058" ry="6.57601" fill="#38F1FF" fill-opacity="0.2"/>
<ellipse cx="320.657" cy="197.391" rx="6.58058" ry="6.57601" fill="black" fill-opacity="0.07"/>
<ellipse cx="346.979" cy="197.391" rx="6.58058" ry="6.57601" fill="#38F1FF" fill-opacity="0.2"/>
<ellipse cx="346.979" cy="197.391" rx="6.58058" ry="6.57601" fill="black" fill-opacity="0.07"/>
<ellipse cx="294.335" cy="197.391" rx="6.58058" ry="6.57601" fill="#38F1FF" fill-opacity="0.2"/>
<ellipse cx="294.335" cy="197.391" rx="6.58058" ry="6.57601" fill="black" fill-opacity="0.07"/>
<ellipse cx="281.174" cy="210.543" rx="6.58058" ry="6.57601" fill="#38F1FF" fill-opacity="0.2"/>
<ellipse cx="281.174" cy="210.543" rx="6.58058" ry="6.57601" fill="black" fill-opacity="0.07"/>
<ellipse cx="333.818" cy="210.543" rx="6.58058" ry="6.57601" fill="#38F1FF" fill-opacity="0.2"/>
<ellipse cx="333.818" cy="210.543" rx="6.58058" ry="6.57601" fill="black" fill-opacity="0.07"/>
<ellipse cx="346.979" cy="183.35" rx="6.58058" ry="6.57601" fill="#93CD4D"/>
<ellipse cx="346.979" cy="183.35" rx="6.58058" ry="6.57601" fill="black" fill-opacity="0.07"/>
<ellipse cx="333.818" cy="170.2" rx="6.58058" ry="6.57601" fill="#93CD4D"/>
<ellipse cx="333.818" cy="170.2" rx="6.58058" ry="6.57601" fill="black" fill-opacity="0.07"/>
<ellipse cx="290.871" cy="133.512" rx="6.58058" ry="6.57601" fill="#38F1FF" fill-opacity="0.2"/>
<ellipse cx="290.871" cy="133.512" rx="6.58058" ry="6.57601" fill="black" fill-opacity="0.07"/>
<ellipse cx="315.807" cy="133.512" rx="6.58058" ry="6.57601" fill="#38F1FF" fill-opacity="0.2"/>
<ellipse cx="315.807" cy="133.512" rx="6.58058" ry="6.57601" fill="black" fill-opacity="0.07"/>
<ellipse cx="162.375" cy="210.543" rx="6.23424" ry="6.57601" fill="#38F1FF" fill-opacity="0.1"/>
<ellipse cx="162.375" cy="210.543" rx="6.23424" ry="6.57601" fill="black" fill-opacity="0.07"/>
<path d="M206.3 213.186L203.954 210.841L206.3 208.497C206.718 208.079 206.718 207.395 206.3 206.977L205.412 206.09C204.994 205.671 204.309 205.671 203.89 206.09L201.545 208.434L199.199 206.09C198.78 205.671 198.095 205.671 197.677 206.09L196.789 206.977C196.371 207.395 196.371 208.079 196.789 208.497L199.135 210.841L196.789 213.186C196.371 213.604 196.371 214.288 196.789 214.706L197.677 215.593C198.095 216.011 198.78 216.011 199.199 215.593L201.545 213.249L203.89 215.593C204.309 216.011 204.994 216.011 205.412 215.593L206.3 214.706C206.718 214.288 206.718 213.604 206.3 213.186Z" fill="url(#paint15_radial_2087_37939)"/>
<path d="M206.3 213.186L203.954 210.841L206.3 208.497C206.718 208.079 206.718 207.395 206.3 206.977L205.412 206.09C204.994 205.671 204.309 205.671 203.89 206.09L201.545 208.434L199.199 206.09C198.78 205.671 198.095 205.671 197.677 206.09L196.789 206.977C196.371 207.395 196.371 208.079 196.789 208.497L199.135 210.841L196.789 213.186C196.371 213.604 196.371 214.288 196.789 214.706L197.677 215.593C198.095 216.011 198.78 216.011 199.199 215.593L201.545 213.249L203.89 215.593C204.309 216.011 204.994 216.011 205.412 215.593L206.3 214.706C206.718 214.288 206.718 213.604 206.3 213.186Z" fill="black" fill-opacity="0.07"/>
<ellipse cx="241.689" cy="210.543" rx="6.58058" ry="6.57601" fill="url(#paint16_radial_2087_37939)"/>
<ellipse cx="241.689" cy="210.543" rx="6.58058" ry="6.57601" fill="black" fill-opacity="0.07"/>
<ellipse cx="162.375" cy="197.736" rx="6.23424" ry="6.2299" fill="url(#paint17_radial_2087_37939)"/>
<ellipse cx="162.375" cy="197.736" rx="6.23424" ry="6.2299" fill="black" fill-opacity="0.07"/>
<ellipse cx="225.758" cy="170.2" rx="6.58058" ry="6.57601" fill="url(#paint18_radial_2087_37939)"/>
<ellipse cx="225.758" cy="170.2" rx="6.58058" ry="6.57601" fill="black" fill-opacity="0.07"/>
<ellipse cx="254.852" cy="170.2" rx="6.58058" ry="6.57601" fill="#38F1FF" fill-opacity="0.2"/>
<ellipse cx="254.852" cy="170.2" rx="6.58058" ry="6.57601" fill="black" fill-opacity="0.07"/>
<ellipse cx="373.996" cy="224.322" rx="6.58058" ry="6.57601" fill="url(#paint19_radial_2087_37939)"/>
<ellipse cx="373.996" cy="224.322" rx="6.58058" ry="6.57601" fill="black" fill-opacity="0.07"/>
<ellipse cx="360.833" cy="210.543" rx="6.58058" ry="6.57601" fill="url(#paint20_radial_2087_37939)"/>
<ellipse cx="360.833" cy="210.543" rx="6.58058" ry="6.57601" fill="black" fill-opacity="0.07"/>
<ellipse cx="360.833" cy="240.307" rx="6.58058" ry="6.57601" fill="url(#paint21_radial_2087_37939)"/>
<ellipse cx="360.833" cy="240.307" rx="6.58058" ry="6.57601" fill="black" fill-opacity="0.07"/>
<ellipse cx="387.503" cy="197.736" rx="6.92693" ry="6.2299" fill="url(#paint22_radial_2087_37939)"/>
<ellipse cx="387.503" cy="197.736" rx="6.92693" ry="6.2299" fill="black" fill-opacity="0.07"/>
<ellipse cx="373.996" cy="197.736" rx="6.58058" ry="6.2299" fill="url(#paint23_radial_2087_37939)"/>
<ellipse cx="373.996" cy="197.736" rx="6.58058" ry="6.2299" fill="black" fill-opacity="0.07"/>
<ellipse cx="373.996" cy="153.241" rx="6.58058" ry="6.92211" fill="#38F1FF" fill-opacity="0.2"/>
<ellipse cx="373.996" cy="153.241" rx="6.58058" ry="6.92211" fill="black" fill-opacity="0.07"/>
<path d="M289.854 35.5703C299.592 35.5703 307.486 27.6816 307.486 17.9505C307.486 8.21934 299.592 0.330688 289.854 0.330688C280.116 0.330688 272.222 8.21934 272.222 17.9505C272.222 27.6816 280.116 35.5703 289.854 35.5703Z" stroke="#2A5B7E" stroke-width="0.661404" stroke-miterlimit="10"/>
<path d="M289.72 23.9686C293.148 23.9686 295.927 21.1915 295.927 17.7658C295.927 14.3402 293.148 11.5631 289.72 11.5631C286.292 11.5631 283.513 14.3402 283.513 17.7658C283.513 21.1915 286.292 23.9686 289.72 23.9686Z" fill="#38F1FF" fill-opacity="0.2"/>
<path d="M289.72 23.9686C293.148 23.9686 295.927 21.1915 295.927 17.7658C295.927 14.3402 293.148 11.5631 289.72 11.5631C286.292 11.5631 283.513 14.3402 283.513 17.7658C283.513 21.1915 286.292 23.9686 289.72 23.9686Z" fill="black" fill-opacity="0.07"/>
<path d="M235.779 67.7498C239.207 67.7498 241.986 64.9728 241.986 61.5471C241.986 58.1214 239.207 55.3444 235.779 55.3444C232.351 55.3444 229.572 58.1214 229.572 61.5471C229.572 64.9728 232.351 67.7498 235.779 67.7498Z" fill="#38F1FF" fill-opacity="0.2"/>
<path d="M235.779 67.7498C239.207 67.7498 241.986 64.9728 241.986 61.5471C241.986 58.1214 239.207 55.3444 235.779 55.3444C232.351 55.3444 229.572 58.1214 229.572 61.5471C229.572 64.9728 232.351 67.7498 235.779 67.7498Z" fill="black" fill-opacity="0.07"/>
<path opacity="0.92" d="M284.883 103.756L287.02 101.621L284.883 99.4859C284.503 99.1058 284.503 98.4849 284.883 98.0984L285.688 97.2938C286.069 96.9136 286.69 96.9136 287.077 97.2938L289.213 99.4289L291.35 97.2938C291.73 96.9136 292.352 96.9136 292.738 97.2938L293.544 98.0984C293.924 98.4786 293.924 99.0995 293.544 99.4859L291.407 101.621L293.544 103.756C293.924 104.136 293.924 104.757 293.544 105.144L292.738 105.948C292.358 106.329 291.737 106.329 291.35 105.948L289.213 103.813L287.077 105.948C286.696 106.329 286.075 106.329 285.688 105.948L284.883 105.144C284.503 104.764 284.503 104.143 284.883 103.756Z" fill="#E5E5E5"/>
<path d="M243.502 259.427C249.742 259.427 254.801 254.372 254.801 248.137C254.801 241.901 249.742 236.846 243.502 236.846C237.262 236.846 232.204 241.901 232.204 248.137C232.204 254.372 237.262 259.427 243.502 259.427Z" stroke="url(#paint24_linear_2087_37939)" stroke-opacity="0.4" stroke-width="0.661404" stroke-miterlimit="10"/>
<defs>
<radialGradient id="paint0_radial_2087_37939" cx="0" cy="0" r="1" gradientTransform="matrix(-5.36958 34.4489 -15.7606 -13.9183 62.1113 190.19)" gradientUnits="userSpaceOnUse">
<stop offset="0.350584" stop-color="#0FB8C5"/>
<stop offset="1" stop-color="#93CD4D"/>
</radialGradient>
<radialGradient id="paint1_radial_2087_37939" cx="0" cy="0" r="1" gradientTransform="matrix(-5.36958 32.6358 -15.7606 -13.1858 127.916 178.454)" gradientUnits="userSpaceOnUse">
<stop offset="0.350584" stop-color="#0FB8C5"/>
<stop offset="1" stop-color="#93CD4D"/>
</radialGradient>
<radialGradient id="paint2_radial_2087_37939" cx="0" cy="0" r="1" gradientTransform="matrix(-5.36958 34.4489 -15.7606 -13.9183 89.125 190.19)" gradientUnits="userSpaceOnUse">
<stop offset="0.350584" stop-color="#0FB8C5"/>
<stop offset="1" stop-color="#93CD4D"/>
</radialGradient>
<radialGradient id="paint3_radial_2087_37939" cx="0" cy="0" r="1" gradientTransform="matrix(-5.36958 34.4489 -15.7606 -13.9183 89.125 213.378)" gradientUnits="userSpaceOnUse">
<stop offset="0.350584" stop-color="#0FB8C5"/>
<stop offset="1" stop-color="#93CD4D"/>
</radialGradient>
<radialGradient id="paint4_radial_2087_37939" cx="0" cy="0" r="1" gradientTransform="matrix(-5.36958 34.4489 -15.7606 -13.9183 127.916 190.19)" gradientUnits="userSpaceOnUse">
<stop offset="0.350584" stop-color="#0FB8C5"/>
<stop offset="1" stop-color="#93CD4D"/>
</radialGradient>
<radialGradient id="paint5_radial_2087_37939" cx="0" cy="0" r="1" gradientTransform="matrix(-5.08698 32.6358 -14.9311 -13.1858 101.657 178.454)" gradientUnits="userSpaceOnUse">
<stop offset="0.350584" stop-color="#0FB8C5"/>
<stop offset="1" stop-color="#93CD4D"/>
</radialGradient>
<radialGradient id="paint6_radial_2087_37939" cx="0" cy="0" r="1" gradientTransform="matrix(-4.13615 26.5358 -12.1403 -10.7212 74.6348 182.595)" gradientUnits="userSpaceOnUse">
<stop offset="0.350584" stop-color="#0FB8C5"/>
<stop offset="1" stop-color="#93CD4D"/>
</radialGradient>
<radialGradient id="paint7_radial_2087_37939" cx="0" cy="0" r="1" gradientTransform="matrix(-5.36958 34.4489 -15.7606 -13.9183 193.72 190.19)" gradientUnits="userSpaceOnUse">
<stop offset="0.350584" stop-color="#0FB8C5"/>
<stop offset="1" stop-color="#93CD4D"/>
</radialGradient>
<radialGradient id="paint8_radial_2087_37939" cx="0" cy="0" r="1" gradientTransform="matrix(-5.36958 34.4489 -15.7606 -13.9183 207.576 215.801)" gradientUnits="userSpaceOnUse">
<stop offset="0.350584" stop-color="#0FB8C5"/>
<stop offset="1" stop-color="#93CD4D"/>
</radialGradient>
<radialGradient id="paint9_radial_2087_37939" cx="0" cy="0" r="1" gradientTransform="matrix(-4.13615 26.5358 -12.1403 -10.7212 324.625 195.163)" gradientUnits="userSpaceOnUse">
<stop offset="0.350584" stop-color="#0FB8C5"/>
<stop offset="1" stop-color="#93CD4D"/>
</radialGradient>
<radialGradient id="paint10_radial_2087_37939" cx="0" cy="0" r="1" gradientTransform="matrix(-5.36958 34.4489 -15.7606 -13.9183 233.9 177.038)" gradientUnits="userSpaceOnUse">
<stop offset="0.350584" stop-color="#0FB8C5"/>
<stop offset="1" stop-color="#93CD4D"/>
</radialGradient>
<radialGradient id="paint11_radial_2087_37939" cx="0" cy="0" r="1" gradientTransform="matrix(-5.36958 34.4489 -15.7606 -13.9183 220.737 190.19)" gradientUnits="userSpaceOnUse">
<stop offset="0.350584" stop-color="#0FB8C5"/>
<stop offset="1" stop-color="#93CD4D"/>
</radialGradient>
<radialGradient id="paint12_radial_2087_37939" cx="0" cy="0" r="1" gradientTransform="matrix(-5.36958 34.4489 -15.7606 -13.9183 247.059 162.307)" gradientUnits="userSpaceOnUse">
<stop offset="0.350584" stop-color="#0FB8C5"/>
<stop offset="1" stop-color="#93CD4D"/>
</radialGradient>
<radialGradient id="paint13_radial_2087_37939" cx="0" cy="0" r="1" gradientTransform="matrix(-5.36958 32.6358 -15.7606 -13.1858 154.93 178.454)" gradientUnits="userSpaceOnUse">
<stop offset="0.350584" stop-color="#0FB8C5"/>
<stop offset="1" stop-color="#93CD4D"/>
</radialGradient>
<radialGradient id="paint14_radial_2087_37939" cx="0" cy="0" r="1" gradientTransform="matrix(-5.36958 32.6358 -15.7606 -13.1858 193.72 178.454)" gradientUnits="userSpaceOnUse">
<stop offset="0.350584" stop-color="#0FB8C5"/>
<stop offset="1" stop-color="#93CD4D"/>
</radialGradient>
<radialGradient id="paint15_radial_2087_37939" cx="0" cy="0" r="1" gradientTransform="matrix(-4.13615 26.5358 -12.1403 -10.7212 205.681 195.163)" gradientUnits="userSpaceOnUse">
<stop offset="0.350584" stop-color="#0FB8C5"/>
<stop offset="1" stop-color="#93CD4D"/>
</radialGradient>
<radialGradient id="paint16_radial_2087_37939" cx="0" cy="0" r="1" gradientTransform="matrix(-5.36958 34.4489 -15.7606 -13.9183 247.059 190.19)" gradientUnits="userSpaceOnUse">
<stop offset="0.350584" stop-color="#0FB8C5"/>
<stop offset="1" stop-color="#93CD4D"/>
</radialGradient>
<radialGradient id="paint17_radial_2087_37939" cx="0" cy="0" r="1" gradientTransform="matrix(-5.08698 32.6358 -14.9311 -13.1858 167.462 178.454)" gradientUnits="userSpaceOnUse">
<stop offset="0.350584" stop-color="#0FB8C5"/>
<stop offset="1" stop-color="#93CD4D"/>
</radialGradient>
<radialGradient id="paint18_radial_2087_37939" cx="0" cy="0" r="1" gradientTransform="matrix(-5.36958 34.4489 -15.7606 -13.9183 231.128 149.846)" gradientUnits="userSpaceOnUse">
<stop offset="0.350584" stop-color="#0FB8C5"/>
<stop offset="1" stop-color="#93CD4D"/>
</radialGradient>
<radialGradient id="paint19_radial_2087_37939" cx="0" cy="0" r="1" gradientTransform="matrix(-5.36958 34.4489 -15.7606 -13.9183 379.365 203.969)" gradientUnits="userSpaceOnUse">
<stop offset="0.350584" stop-color="#0FB8C5"/>
<stop offset="1" stop-color="#93CD4D"/>
</radialGradient>
<radialGradient id="paint20_radial_2087_37939" cx="0" cy="0" r="1" gradientTransform="matrix(-5.36958 34.4489 -15.7606 -13.9183 366.202 190.19)" gradientUnits="userSpaceOnUse">
<stop offset="0.350584" stop-color="#0FB8C5"/>
<stop offset="1" stop-color="#93CD4D"/>
</radialGradient>
<radialGradient id="paint21_radial_2087_37939" cx="0" cy="0" r="1" gradientTransform="matrix(-5.36958 34.4489 -15.7606 -13.9183 366.202 219.954)" gradientUnits="userSpaceOnUse">
<stop offset="0.350584" stop-color="#0FB8C5"/>
<stop offset="1" stop-color="#93CD4D"/>
</radialGradient>
<radialGradient id="paint22_radial_2087_37939" cx="0" cy="0" r="1" gradientTransform="matrix(-5.65219 32.6358 -16.5901 -13.1858 393.155 178.454)" gradientUnits="userSpaceOnUse">
<stop offset="0.350584" stop-color="#0FB8C5"/>
<stop offset="1" stop-color="#93CD4D"/>
</radialGradient>
<radialGradient id="paint23_radial_2087_37939" cx="0" cy="0" r="1" gradientTransform="matrix(-5.36958 32.6358 -15.7606 -13.1858 379.365 178.454)" gradientUnits="userSpaceOnUse">
<stop offset="0.350584" stop-color="#0FB8C5"/>
<stop offset="1" stop-color="#93CD4D"/>
</radialGradient>
<linearGradient id="paint24_linear_2087_37939" x1="249.765" y1="235.313" x2="239.423" y2="260.694" gradientUnits="userSpaceOnUse">
<stop stop-color="#93CD4D"/>
<stop offset="1" stop-color="#0FB8C5"/>
</linearGradient>
</defs>
</svg>
