<svg width="137" height="35" viewBox="0 0 137 35" fill="none" xmlns="http://www.w3.org/2000/svg">
<rect x="31.333" width="35" height="23.3333" rx="11.6667" transform="rotate(90 31.333 0)" fill="white" fill-opacity="0.12"/>
<g filter="url(#filter0_n_2230_17742)">
<rect x="24.333" y="11.333" width="9.33333" height="9.33333" rx="4.66667" transform="rotate(-180 24.333 11.333)" fill="url(#paint0_radial_2230_17742)"/>
<rect x="24.333" y="11.333" width="9.33333" height="9.33333" rx="4.66667" transform="rotate(-180 24.333 11.333)" fill="black" fill-opacity="0.07"/>
</g>
<path d="M48.436 24.216C47.512 24.216 46.702 24.054 46.006 23.73C45.31 23.394 44.77 22.926 44.386 22.326C44.002 21.726 43.81 21.024 43.81 20.22H45.7C45.712 20.676 45.82 21.096 46.024 21.48C46.24 21.852 46.546 22.152 46.942 22.38C47.35 22.596 47.848 22.704 48.436 22.704C48.94 22.704 49.372 22.62 49.732 22.452C50.104 22.284 50.386 22.056 50.578 21.768C50.77 21.468 50.866 21.126 50.866 20.742C50.866 20.298 50.764 19.932 50.56 19.644C50.356 19.356 50.08 19.122 49.732 18.942C49.396 18.75 49 18.582 48.544 18.438C48.1 18.294 47.632 18.138 47.14 17.97C46.144 17.646 45.4 17.226 44.908 16.71C44.428 16.194 44.188 15.522 44.188 14.694C44.188 13.986 44.356 13.374 44.692 12.858C45.028 12.33 45.496 11.922 46.096 11.634C46.708 11.334 47.428 11.184 48.256 11.184C49.072 11.184 49.786 11.334 50.398 11.634C51.01 11.934 51.49 12.348 51.838 12.876C52.186 13.404 52.36 14.022 52.36 14.73H50.452C50.452 14.406 50.368 14.088 50.2 13.776C50.032 13.464 49.78 13.212 49.444 13.02C49.108 12.816 48.694 12.714 48.202 12.714C47.794 12.702 47.428 12.768 47.104 12.912C46.78 13.056 46.528 13.266 46.348 13.542C46.168 13.818 46.078 14.148 46.078 14.532C46.078 14.916 46.156 15.228 46.312 15.468C46.48 15.696 46.72 15.894 47.032 16.062C47.344 16.23 47.704 16.386 48.112 16.53C48.532 16.662 48.994 16.812 49.498 16.98C50.122 17.184 50.674 17.436 51.154 17.736C51.646 18.024 52.03 18.402 52.306 18.87C52.594 19.326 52.738 19.914 52.738 20.634C52.738 21.258 52.576 21.84 52.252 22.38C51.928 22.92 51.448 23.364 50.812 23.712C50.176 24.048 49.384 24.216 48.436 24.216ZM58.6225 24.216C57.7465 24.216 56.9665 24.018 56.2825 23.622C55.5985 23.214 55.0585 22.656 54.6625 21.948C54.2785 21.24 54.0865 20.418 54.0865 19.482C54.0865 18.534 54.2785 17.706 54.6625 16.998C55.0585 16.278 55.5985 15.72 56.2825 15.324C56.9665 14.916 57.7465 14.712 58.6225 14.712C59.7265 14.712 60.6505 15 61.3945 15.576C62.1385 16.152 62.6125 16.932 62.8165 17.916H60.9445C60.8245 17.388 60.5485 16.98 60.1165 16.692C59.6965 16.404 59.1925 16.26 58.6045 16.26C58.1245 16.26 57.6805 16.386 57.2725 16.638C56.8645 16.878 56.5345 17.238 56.2825 17.718C56.0425 18.186 55.9225 18.768 55.9225 19.464C55.9225 19.98 55.9945 20.442 56.1385 20.85C56.2825 21.246 56.4745 21.582 56.7145 21.858C56.9665 22.134 57.2545 22.344 57.5785 22.488C57.9025 22.62 58.2445 22.686 58.6045 22.686C59.0005 22.686 59.3545 22.626 59.6665 22.506C59.9905 22.374 60.2605 22.182 60.4765 21.93C60.7045 21.678 60.8605 21.378 60.9445 21.03H62.8165C62.6125 21.99 62.1385 22.764 61.3945 23.352C60.6505 23.928 59.7265 24.216 58.6225 24.216ZM64.5626 24V14.928H66.1826L66.3446 16.638C66.5486 16.23 66.8126 15.888 67.1366 15.612C67.4606 15.324 67.8386 15.102 68.2706 14.946C68.7146 14.79 69.2186 14.712 69.7826 14.712V16.62H69.1346C68.7626 16.62 68.4086 16.668 68.0726 16.764C67.7366 16.848 67.4366 16.998 67.1726 17.214C66.9206 17.43 66.7226 17.724 66.5786 18.096C66.4346 18.468 66.3626 18.93 66.3626 19.482V24H64.5626ZM74.9344 24.216C74.0824 24.216 73.3144 24.018 72.6304 23.622C71.9584 23.226 71.4244 22.674 71.0284 21.966C70.6444 21.246 70.4524 20.418 70.4524 19.482C70.4524 18.522 70.6504 17.688 71.0464 16.98C71.4424 16.26 71.9824 15.702 72.6664 15.306C73.3504 14.91 74.1184 14.712 74.9704 14.712C75.8344 14.712 76.6024 14.91 77.2744 15.306C77.9464 15.702 78.4744 16.254 78.8584 16.962C79.2544 17.67 79.4524 18.504 79.4524 19.464C79.4524 20.424 79.2544 21.258 78.8584 21.966C78.4744 22.674 77.9404 23.226 77.2564 23.622C76.5724 24.018 75.7984 24.216 74.9344 24.216ZM74.9344 22.668C75.4264 22.668 75.8704 22.548 76.2664 22.308C76.6744 22.068 76.9984 21.714 77.2384 21.246C77.4904 20.766 77.6164 20.172 77.6164 19.464C77.6164 18.756 77.4964 18.168 77.2564 17.7C77.0164 17.22 76.6924 16.86 76.2844 16.62C75.8884 16.38 75.4504 16.26 74.9704 16.26C74.4904 16.26 74.0464 16.38 73.6384 16.62C73.2304 16.86 72.9004 17.22 72.6484 17.7C72.4084 18.168 72.2884 18.756 72.2884 19.464C72.2884 20.172 72.4084 20.766 72.6484 21.246C72.9004 21.714 73.2244 22.068 73.6204 22.308C74.0284 22.548 74.4664 22.668 74.9344 22.668ZM81.2098 24V11.04H83.0098V24H81.2098ZM85.1213 24V11.04H86.9213V24H85.1213ZM97.3102 24.216C96.4462 24.216 95.6842 24.012 95.0242 23.604C94.3642 23.184 93.8482 22.62 93.4762 21.912C93.1162 21.192 92.9362 20.376 92.9362 19.464C92.9362 18.54 93.1162 17.724 93.4762 17.016C93.8482 16.308 94.3642 15.75 95.0242 15.342C95.6962 14.922 96.4642 14.712 97.3282 14.712C98.0362 14.712 98.6602 14.856 99.2002 15.144C99.7402 15.42 100.16 15.816 100.46 16.332V11.04H102.26V24H100.658L100.46 22.596C100.28 22.872 100.046 23.136 99.7582 23.388C99.4702 23.628 99.1222 23.826 98.7142 23.982C98.3062 24.138 97.8382 24.216 97.3102 24.216ZM97.5982 22.65C98.1622 22.65 98.6602 22.518 99.0922 22.254C99.5242 21.99 99.8542 21.618 100.082 21.138C100.322 20.658 100.442 20.1 100.442 19.464C100.442 18.828 100.322 18.276 100.082 17.808C99.8542 17.328 99.5242 16.956 99.0922 16.692C98.6602 16.416 98.1622 16.278 97.5982 16.278C97.0582 16.278 96.5722 16.416 96.1402 16.692C95.7082 16.956 95.3722 17.328 95.1322 17.808C94.8922 18.276 94.7722 18.828 94.7722 19.464C94.7722 20.1 94.8922 20.658 95.1322 21.138C95.3722 21.618 95.7082 21.99 96.1402 22.254C96.5722 22.518 97.0582 22.65 97.5982 22.65ZM108.502 24.216C107.65 24.216 106.882 24.018 106.198 23.622C105.526 23.226 104.992 22.674 104.596 21.966C104.212 21.246 104.02 20.418 104.02 19.482C104.02 18.522 104.218 17.688 104.614 16.98C105.01 16.26 105.55 15.702 106.234 15.306C106.918 14.91 107.686 14.712 108.538 14.712C109.402 14.712 110.17 14.91 110.842 15.306C111.514 15.702 112.042 16.254 112.426 16.962C112.822 17.67 113.02 18.504 113.02 19.464C113.02 20.424 112.822 21.258 112.426 21.966C112.042 22.674 111.508 23.226 110.824 23.622C110.14 24.018 109.366 24.216 108.502 24.216ZM108.502 22.668C108.994 22.668 109.438 22.548 109.834 22.308C110.242 22.068 110.566 21.714 110.806 21.246C111.058 20.766 111.184 20.172 111.184 19.464C111.184 18.756 111.064 18.168 110.824 17.7C110.584 17.22 110.26 16.86 109.852 16.62C109.456 16.38 109.018 16.26 108.538 16.26C108.058 16.26 107.614 16.38 107.206 16.62C106.798 16.86 106.468 17.22 106.216 17.7C105.976 18.168 105.856 18.756 105.856 19.464C105.856 20.172 105.976 20.766 106.216 21.246C106.468 21.714 106.792 22.068 107.188 22.308C107.596 22.548 108.034 22.668 108.502 22.668ZM116.297 24L113.633 14.928H115.415L117.395 22.488L117.053 22.47L119.249 14.928H121.265L123.461 22.47L123.119 22.488L125.081 14.928H126.899L124.235 24H122.381L120.077 16.134H120.437L118.133 24H116.297ZM128.163 24V14.928H129.783L129.891 16.476C130.179 15.936 130.587 15.51 131.115 15.198C131.643 14.874 132.249 14.712 132.933 14.712C133.653 14.712 134.271 14.856 134.787 15.144C135.303 15.432 135.705 15.87 135.993 16.458C136.281 17.034 136.425 17.76 136.425 18.636V24H134.625V18.816C134.625 17.976 134.439 17.34 134.067 16.908C133.695 16.476 133.155 16.26 132.447 16.26C131.979 16.26 131.559 16.374 131.187 16.602C130.815 16.818 130.515 17.142 130.287 17.574C130.071 18.006 129.963 18.534 129.963 19.158V24H128.163Z" fill="white"/>
<defs>
<filter id="filter0_n_2230_17742" x="14.9997" y="1.99951" width="9.33331" height="9.3335" filterUnits="userSpaceOnUse" color-interpolation-filters="sRGB">
<feFlood flood-opacity="0" result="BackgroundImageFix"/>
<feBlend mode="normal" in="SourceGraphic" in2="BackgroundImageFix" result="shape"/>
<feTurbulence type="fractalNoise" baseFrequency="8.5714282989501953 8.5714282989501953" stitchTiles="stitch" numOctaves="3" result="noise" seed="9621" />
<feColorMatrix in="noise" type="luminanceToAlpha" result="alphaNoise" />
<feComponentTransfer in="alphaNoise" result="coloredNoise1">
<feFuncA type="discrete" tableValues="1 1 1 1 1 1 1 1 1 1 1 1 1 1 1 1 1 1 1 1 1 1 1 1 1 1 1 1 1 1 1 1 1 1 1 1 1 1 1 1 1 1 1 1 1 1 1 1 1 1 1 0 0 0 0 0 0 0 0 0 0 0 0 0 0 0 0 0 0 0 0 0 0 0 0 0 0 0 0 0 0 0 0 0 0 0 0 0 0 0 0 0 0 0 0 0 0 0 0 0 "/>
</feComponentTransfer>
<feComposite operator="in" in2="shape" in="coloredNoise1" result="noise1Clipped" />
<feFlood flood-color="rgba(84, 119, 193, 0.4)" result="color1Flood" />
<feComposite operator="in" in2="noise1Clipped" in="color1Flood" result="color1" />
<feMerge result="effect1_noise_2230_17742">
<feMergeNode in="shape" />
<feMergeNode in="color1" />
</feMerge>
</filter>
<radialGradient id="paint0_radial_2230_17742" cx="0" cy="0" r="1" gradientTransform="matrix(-12.8684 14.8779 -3.37364 -11.3688 37.2014 5.78846)" gradientUnits="userSpaceOnUse">
<stop stop-color="#D349AE"/>
<stop offset="1" stop-color="#13D9E8"/>
</radialGradient>
</defs>
</svg>
