<svg width="135" height="22" viewBox="0 0 135 22" fill="none" xmlns="http://www.w3.org/2000/svg">
<path d="M21.3165 13.5409V8.31821C21.8805 8.10212 22.0512 7.36312 21.6104 6.92015L21.3165 6.62628V6.2114C21.3165 5.58692 20.6726 5.18716 20.1215 5.43134L16.4285 1.73848C16.6749 1.18531 16.2729 0.543544 15.6484 0.543544H15.2335L14.9396 0.249671C14.4988 -0.191138 13.7598 -0.0204324 13.5415 0.543544H8.31857C8.10248 -0.0204324 7.36344 -0.191138 6.92045 0.249671L6.62656 0.543544H6.21167C5.58716 0.543544 5.18739 1.18747 5.43157 1.73848L1.73856 5.43134C1.18536 5.185 0.543565 5.58692 0.543565 6.2114V6.62628L0.249683 6.92015C-0.191145 7.36096 -0.0204354 8.09996 0.543565 8.31821V13.5409C-0.0204354 13.757 -0.191145 14.496 0.249683 14.939L0.543565 15.2329V15.6477C0.543565 16.2722 1.18752 16.672 1.73856 16.4278L5.43157 20.1207C5.18523 20.6738 5.58716 21.3156 6.21167 21.3156H6.62656L6.92045 21.6095C7.36128 22.0503 8.10032 21.8796 8.31857 21.3156H13.5415C13.7576 21.8796 14.4966 22.0503 14.9396 21.6095L15.2335 21.3156H15.6484C16.2729 21.3156 16.6727 20.6717 16.4285 20.1207L20.1215 16.4278C20.6747 16.6741 21.3165 16.2722 21.3165 15.6477V15.2329L21.6104 14.939C22.0512 14.4982 21.8805 13.7592 21.3165 13.5409Z" fill="#FFDF8F"/>
<path d="M49.4225 13.5409V8.31821C49.9865 8.10212 50.1572 7.36312 49.7164 6.92015L49.4225 6.62628V6.2114C49.4225 5.58692 48.7785 5.18716 48.2275 5.43134L44.5345 1.73848C44.7808 1.18531 44.3789 0.543544 43.7544 0.543544H43.3395L43.0456 0.249671C42.6048 -0.191138 41.8657 -0.0204324 41.6475 0.543544H36.4245C36.2084 -0.0204324 35.4694 -0.191138 35.0264 0.249671L34.7325 0.543544H34.3176C33.6931 0.543544 33.2933 1.18747 33.5375 1.73848L29.8445 5.43134C29.2913 5.185 28.6495 5.58692 28.6495 6.2114V6.62628L28.3556 6.92015C27.9148 7.36096 28.0855 8.09996 28.6495 8.31821V13.5409C28.0855 13.757 27.9148 14.496 28.3556 14.939L28.6495 15.2329V15.6477C28.6495 16.2722 29.2935 16.672 29.8445 16.4278L33.5375 20.1207C33.2912 20.6738 33.6931 21.3156 34.3176 21.3156H34.7325L35.0264 21.6095C35.4672 22.0503 36.2063 21.8796 36.4245 21.3156H41.6475C41.8636 21.8796 42.6026 22.0503 43.0456 21.6095L43.3395 21.3156H43.7544C44.3789 21.3156 44.7787 20.6717 44.5345 20.1207L48.2275 16.4278C48.7807 16.6741 49.4225 16.2722 49.4225 15.6477V15.2329L49.7164 14.939C50.1572 14.4982 49.9865 13.7592 49.4225 13.5409Z" fill="#FFDF8F"/>
<path d="M77.5284 13.5409V8.31821C78.0924 8.10212 78.2631 7.36312 77.8223 6.92015L77.5284 6.62628V6.2114C77.5284 5.58692 76.8845 5.18716 76.3334 5.43134L72.6404 1.73848C72.8868 1.18531 72.4848 0.543544 71.8603 0.543544H71.4454L71.1515 0.249671C70.7107 -0.191138 69.9717 -0.0204324 69.7534 0.543544H64.5305C64.3144 -0.0204324 63.5754 -0.191138 63.1324 0.249671L62.8385 0.543544H62.4236C61.7991 0.543544 61.3993 1.18747 61.6435 1.73848L57.9505 5.43134C57.3973 5.185 56.7555 5.58692 56.7555 6.2114V6.62628L56.4616 6.92015C56.0208 7.36096 56.1915 8.09996 56.7555 8.31821V13.5409C56.1915 13.757 56.0208 14.496 56.4616 14.939L56.7555 15.2329V15.6477C56.7555 16.2722 57.3994 16.672 57.9505 16.4278L61.6435 20.1207C61.3971 20.6738 61.7991 21.3156 62.4236 21.3156H62.8385L63.1324 21.6095C63.5732 22.0503 64.3122 21.8796 64.5305 21.3156H69.7534C69.9695 21.8796 70.7086 22.0503 71.1515 21.6095L71.4454 21.3156H71.8603C72.4848 21.3156 72.8846 20.6717 72.6404 20.1207L76.3334 16.4278C76.8866 16.6741 77.5284 16.2722 77.5284 15.6477V15.2329L77.8223 14.939C78.2631 14.4982 78.0924 13.7592 77.5284 13.5409Z" fill="#FFDF8F"/>
<g clip-path="url(#clip0_2498_29635)">
<path d="M105.632 13.5409V8.31821C106.196 8.10212 106.367 7.36312 105.926 6.92015L105.632 6.62628V6.2114C105.632 5.58692 104.988 5.18716 104.437 5.43134L100.744 1.73848C100.991 1.18531 100.589 0.543544 99.9643 0.543544H99.5494L99.2556 0.249671C98.8147 -0.191138 98.0757 -0.0204324 97.8574 0.543544H92.6345C92.4184 -0.0204324 91.6794 -0.191138 91.2364 0.249671L90.9425 0.543544H90.5276C89.9031 0.543544 89.5033 1.18747 89.7475 1.73848L86.0545 5.43134C85.5013 5.185 84.8595 5.58692 84.8595 6.2114V6.62628L84.5656 6.92015C84.1248 7.36096 84.2955 8.09996 84.8595 8.31821V13.5409C84.2955 13.757 84.1248 14.496 84.5656 14.939L84.8595 15.2329V15.6477C84.8595 16.2722 85.5034 16.672 86.0545 16.4278L89.7475 20.1207C89.5011 20.6738 89.9031 21.3156 90.5276 21.3156H90.9425L91.2364 21.6095C91.6772 22.0503 92.4162 21.8796 92.6345 21.3156H97.8574C98.0735 21.8796 98.8126 22.0503 99.2556 21.6095L99.5494 21.3156H99.9643C100.589 21.3156 100.989 20.6717 100.744 20.1207L104.437 16.4278C104.991 16.6741 105.632 16.2722 105.632 15.6477V15.2329L105.926 14.939C106.367 14.4982 106.196 13.7592 105.632 13.5409Z" fill="#FFDF8F"/>
</g>
<g clip-path="url(#clip1_2498_29635)">
<path d="M84.8632 13.5409V8.31821C84.2992 8.10212 84.1285 7.36312 84.5693 6.92015L84.8632 6.62628V6.2114C84.8632 5.58692 85.5071 5.18716 86.0582 5.43134L89.7512 1.73848C89.5048 1.18531 89.9068 0.543544 90.5313 0.543544H90.9462L91.2401 0.249671C91.6809 -0.191138 92.4199 -0.0204324 92.6382 0.543544H97.8611C98.0772 -0.0204324 98.8162 -0.191138 99.2592 0.249671L99.5531 0.543544H99.968C100.593 0.543544 100.992 1.18747 100.748 1.73848L104.441 5.43134C104.994 5.185 105.636 5.58692 105.636 6.2114V6.62628L105.93 6.92015C106.371 7.36096 106.2 8.09996 105.636 8.31821V13.5409C106.2 13.757 106.371 14.496 105.93 14.939L105.636 15.2329V15.6477C105.636 16.2722 104.992 16.672 104.441 16.4278L100.748 20.1207C100.994 20.6738 100.593 21.3156 99.968 21.3156H99.5531L99.2592 21.6095C98.8184 22.0503 98.0794 21.8796 97.8611 21.3156H92.6382C92.4221 21.8796 91.683 22.0503 91.2401 21.6095L90.9462 21.3156H90.5313C89.9068 21.3156 89.507 20.6717 89.7512 20.1207L86.0582 16.4278C85.505 16.6741 84.8632 16.2722 84.8632 15.6477V15.2329L84.5693 14.939C84.1285 14.4982 84.2992 13.7592 84.8632 13.5409Z" fill="#28926A"/>
</g>
<path d="M133.741 13.5409V8.31821C134.305 8.10212 134.476 7.36312 134.035 6.92015L133.741 6.62627V6.2114C133.741 5.58692 133.097 5.18716 132.546 5.43134L128.853 1.73848C129.099 1.18531 128.697 0.543544 128.073 0.543544H127.658L127.364 0.249671C126.923 -0.191138 126.184 -0.0204323 125.966 0.543544H120.743C120.527 -0.0204323 119.788 -0.191138 119.345 0.249671L119.051 0.543544H118.636C118.011 0.543544 117.612 1.18747 117.856 1.73848L114.163 5.43134C113.61 5.185 112.968 5.58692 112.968 6.2114V6.62627L112.674 6.92015C112.233 7.36096 112.404 8.09996 112.968 8.31821V13.5409C112.404 13.757 112.233 14.496 112.674 14.939L112.968 15.2329V15.6477C112.968 16.2722 113.612 16.672 114.163 16.4278L117.856 20.1207C117.61 20.6738 118.011 21.3156 118.636 21.3156H119.051L119.345 21.6095C119.786 22.0503 120.525 21.8796 120.743 21.3156H125.966C126.182 21.8796 126.921 22.0503 127.364 21.6095L127.658 21.3156H128.073C128.697 21.3156 129.097 20.6717 128.853 20.1207L132.546 16.4278C133.099 16.6741 133.741 16.2722 133.741 15.6477V15.2329L134.035 14.939C134.476 14.4982 134.305 13.7592 133.741 13.5409Z" fill="#28926A"/>
<defs>
<clipPath id="clip0_2498_29635">
<rect width="10.9303" height="21.8606" fill="white" transform="translate(84.3179)"/>
</clipPath>
<clipPath id="clip1_2498_29635">
<rect width="10.9303" height="21.8606" fill="white" transform="matrix(-1 0 0 1 106.179 0)"/>
</clipPath>
</defs>
</svg>
