<svg width="320" height="104" viewBox="0 0 320 104" fill="none" xmlns="http://www.w3.org/2000/svg">
<g clip-path="url(#clip0_2087_45560)">
<path d="M63.4027 4.88197L60.9186 7.36427L63.4027 9.84654C63.8458 10.2893 63.8458 11.0139 63.4027 11.4567L62.4627 12.3959C62.0197 12.8387 61.2946 12.8387 60.8515 12.3959L58.3675 9.91364L55.8835 12.3959C55.4404 12.8387 54.7153 12.8387 54.2722 12.3959L53.3323 11.4567C52.8892 11.0139 52.8892 10.2893 53.3323 9.84654L55.8163 7.36427L53.3323 4.88197C52.8892 4.43918 52.8892 3.71462 53.3323 3.27184L54.2722 2.3326C54.7153 1.88981 55.4404 1.88981 55.8835 2.3326L58.3675 4.81487L60.8515 2.3326C61.2946 1.88981 62.0197 1.88981 62.4627 2.33259L63.4027 3.27184C63.8458 3.71462 63.8458 4.43918 63.4027 4.88197Z" fill="#38F1FF" fill-opacity="0.2"/>
<path d="M63.4027 4.88197L60.9186 7.36427L63.4027 9.84654C63.8458 10.2893 63.8458 11.0139 63.4027 11.4567L62.4627 12.3959C62.0197 12.8387 61.2946 12.8387 60.8515 12.3959L58.3675 9.91364L55.8835 12.3959C55.4404 12.8387 54.7153 12.8387 54.2722 12.3959L53.3323 11.4567C52.8892 11.0139 52.8892 10.2893 53.3323 9.84654L55.8163 7.36427L53.3323 4.88197C52.8892 4.43918 52.8892 3.71462 53.3323 3.27184L54.2722 2.3326C54.7153 1.88981 55.4404 1.88981 55.8835 2.3326L58.3675 4.81487L60.8515 2.3326C61.2946 1.88981 62.0197 1.88981 62.4627 2.33259L63.4027 3.27184C63.8458 3.71462 63.8458 4.43918 63.4027 4.88197Z" fill="black" fill-opacity="0.07"/>
<ellipse cx="6.96812" cy="6.96327" rx="6.96812" ry="6.96327" transform="matrix(1 -8.74228e-08 -8.74228e-08 -1 20 13.9272)" fill="#38F1FF" fill-opacity="0.2"/>
<ellipse cx="6.96812" cy="6.96327" rx="6.96812" ry="6.96327" transform="matrix(1 -8.74228e-08 -8.74228e-08 -1 20 13.9272)" fill="black" fill-opacity="0.07"/>
<ellipse cx="6.96812" cy="6.96327" rx="6.96812" ry="6.96327" transform="matrix(1 -8.74228e-08 -8.74228e-08 -1 65.5986 14.0571)" fill="#38F1FF" fill-opacity="0.2"/>
<ellipse cx="6.96812" cy="6.96327" rx="6.96812" ry="6.96327" transform="matrix(1 -8.74228e-08 -8.74228e-08 -1 65.5986 14.0571)" fill="black" fill-opacity="0.07"/>
<ellipse cx="6.96812" cy="6.96327" rx="6.96812" ry="6.96327" transform="matrix(1 -8.74228e-08 -8.74228e-08 -1 66 27.9272)" fill="#93CD4D"/>
<ellipse cx="6.96812" cy="6.96327" rx="6.96812" ry="6.96327" transform="matrix(1 -8.74228e-08 -8.74228e-08 -1 66 27.9272)" fill="black" fill-opacity="0.07"/>
<ellipse cx="6.96812" cy="6.96327" rx="6.96812" ry="6.96327" transform="matrix(1 -8.74228e-08 -8.74228e-08 -1 80 13.927)" fill="#93CD4D"/>
<ellipse cx="6.96812" cy="6.96327" rx="6.96812" ry="6.96327" transform="matrix(1 -8.74228e-08 -8.74228e-08 -1 80 13.927)" fill="black" fill-opacity="0.07"/>
<ellipse cx="6.96812" cy="6.96327" rx="6.96812" ry="6.96327" transform="matrix(1 -8.74228e-08 -8.74228e-08 -1 20.1221 80.8845)" fill="#38F1FF" fill-opacity="0.2"/>
<ellipse cx="6.96812" cy="6.96327" rx="6.96812" ry="6.96327" transform="matrix(1 -8.74228e-08 -8.74228e-08 -1 20.1221 80.8845)" fill="black" fill-opacity="0.07"/>
<ellipse cx="6.96812" cy="6.96327" rx="6.96812" ry="6.96327" transform="matrix(1 -8.74228e-08 -8.74228e-08 -1 45.4141 81.0042)" fill="#38F1FF" fill-opacity="0.2"/>
<ellipse cx="6.96812" cy="6.96327" rx="6.96812" ry="6.96327" transform="matrix(1 -8.74228e-08 -8.74228e-08 -1 45.4141 81.0042)" fill="black" fill-opacity="0.07"/>
<ellipse cx="6.96812" cy="6.96327" rx="6.96812" ry="6.96327" transform="matrix(1 -8.74228e-08 -8.74228e-08 -1 95 13.9272)" fill="url(#paint0_radial_2087_45560)"/>
<ellipse cx="6.96812" cy="6.96327" rx="6.96812" ry="6.96327" transform="matrix(1 -8.74228e-08 -8.74228e-08 -1 95 13.9272)" fill="black" fill-opacity="0.07"/>
<ellipse cx="6.96812" cy="6.96327" rx="6.96812" ry="6.96327" transform="matrix(1 -8.74228e-08 -8.74228e-08 -1 243.064 53.0571)" fill="#38F1FF" fill-opacity="0.1"/>
<ellipse cx="6.96812" cy="6.96327" rx="6.96812" ry="6.96327" transform="matrix(1 -8.74228e-08 -8.74228e-08 -1 243.064 53.0571)" fill="black" fill-opacity="0.07"/>
<ellipse cx="6.60137" cy="6.96327" rx="6.60137" ry="6.96327" transform="matrix(1 -8.74228e-08 -8.74228e-08 -1 220.363 13.0566)" fill="#38F1FF" fill-opacity="0.1"/>
<ellipse cx="6.60137" cy="6.96327" rx="6.60137" ry="6.96327" transform="matrix(1 -8.74228e-08 -8.74228e-08 -1 220.363 13.0566)" fill="black" fill-opacity="0.07"/>
<ellipse cx="7" cy="7" rx="7" ry="7" transform="matrix(1 -8.74228e-08 -8.74228e-08 -1 233 13.0005)" fill="#38F1FF" fill-opacity="0.1"/>
<ellipse cx="7" cy="7" rx="7" ry="7" transform="matrix(1 -8.74228e-08 -8.74228e-08 -1 233 13.0005)" fill="black" fill-opacity="0.07"/>
<path d="M47.8172 97.1446L50.0797 99.4055L47.8172 101.666C47.4144 102.069 47.4144 102.726 47.8172 103.136L48.6699 103.988C49.0727 104.39 49.7306 104.39 50.1401 103.988L52.4026 101.727L54.6651 103.988C55.0679 104.39 55.7258 104.39 56.1353 103.988L56.988 103.136C57.3908 102.733 57.3908 102.076 56.988 101.666L54.7255 99.4055L56.988 97.1446C57.3908 96.7421 57.3908 96.0846 56.988 95.6753L56.1353 94.8233C55.7325 94.4208 55.0746 94.4208 54.6651 94.8233L52.4026 97.0842L50.1401 94.8233C49.7373 94.4208 49.0794 94.4208 48.6699 94.8233L47.8172 95.6753C47.4144 96.0779 47.4144 96.7353 47.8172 97.1446Z" fill="#38F1FF" fill-opacity="0.2"/>
<path d="M47.8172 97.1446L50.0797 99.4055L47.8172 101.666C47.4144 102.069 47.4144 102.726 47.8172 103.136L48.6699 103.988C49.0727 104.39 49.7306 104.39 50.1401 103.988L52.4026 101.727L54.6651 103.988C55.0679 104.39 55.7258 104.39 56.1353 103.988L56.988 103.136C57.3908 102.733 57.3908 102.076 56.988 101.666L54.7255 99.4055L56.988 97.1446C57.3908 96.7421 57.3908 96.0846 56.988 95.6753L56.1353 94.8233C55.7325 94.4208 55.0746 94.4208 54.6651 94.8233L52.4026 97.0842L50.1401 94.8233C49.7373 94.4208 49.0794 94.4208 48.6699 94.8233L47.8172 95.6753C47.4144 96.0779 47.4144 96.7353 47.8172 97.1446Z" fill="black" fill-opacity="0.07"/>
</g>
<defs>
<radialGradient id="paint0_radial_2087_45560" cx="0" cy="0" r="1" gradientTransform="matrix(-5.6858 36.4777 -16.6887 -14.738 12.6539 -14.5886)" gradientUnits="userSpaceOnUse">
<stop offset="0.350584" stop-color="#0FB8C5"/>
<stop offset="1" stop-color="#93CD4D"/>
</radialGradient>
<clipPath id="clip0_2087_45560">
<path d="M320 17C320 7.61116 312.389 0 303 0L17 0C7.61118 0 0 7.61116 0 17V104H320V17Z" fill="white"/>
</clipPath>
</defs>
</svg>
