<svg width="146" height="54" viewBox="0 0 146 54" fill="none" xmlns="http://www.w3.org/2000/svg">
<rect x="1" y="1" width="144" height="52" rx="26" stroke="white" stroke-width="2"/>
<path d="M25.1409 31.5L21.4589 21.7H22.7329L25.8269 30.254L28.9489 21.7H30.1949L26.5129 31.5H25.1409ZM31.3281 31.5V24.444H32.5041V31.5H31.3281ZM31.9161 22.946C31.6828 22.946 31.4868 22.8713 31.3281 22.722C31.1788 22.5633 31.1041 22.3673 31.1041 22.134C31.1041 21.9007 31.1788 21.714 31.3281 21.574C31.4868 21.4247 31.6828 21.35 31.9161 21.35C32.1401 21.35 32.3315 21.4247 32.4901 21.574C32.6488 21.714 32.7281 21.9007 32.7281 22.134C32.7281 22.3673 32.6488 22.5633 32.4901 22.722C32.3315 22.8713 32.1401 22.946 31.9161 22.946ZM37.3934 31.668C36.7401 31.668 36.1567 31.514 35.6434 31.206C35.1301 30.898 34.7287 30.4687 34.4394 29.918C34.1501 29.358 34.0054 28.7093 34.0054 27.972C34.0054 27.2253 34.1454 26.5767 34.4254 26.026C34.7147 25.4753 35.1161 25.046 35.6294 24.738C36.1521 24.43 36.7494 24.276 37.4214 24.276C38.1121 24.276 38.7001 24.43 39.1854 24.738C39.6707 25.046 40.0394 25.452 40.2914 25.956C40.5527 26.4507 40.6834 26.9967 40.6834 27.594C40.6834 27.6873 40.6834 27.7853 40.6834 27.888C40.6834 27.9907 40.6787 28.1073 40.6694 28.238H34.8874V27.328H39.5214C39.4934 26.684 39.2787 26.18 38.8774 25.816C38.4854 25.452 37.9907 25.27 37.3934 25.27C37.0014 25.27 36.6327 25.3633 36.2874 25.55C35.9421 25.7273 35.6667 25.9933 35.4614 26.348C35.2561 26.6933 35.1534 27.1273 35.1534 27.65V28.042C35.1534 28.6207 35.2561 29.106 35.4614 29.498C35.6761 29.89 35.9514 30.184 36.2874 30.38C36.6327 30.576 37.0014 30.674 37.3934 30.674C37.8881 30.674 38.2941 30.5667 38.6114 30.352C38.9381 30.128 39.1761 29.8247 39.3254 29.442H40.4874C40.3661 29.8713 40.1654 30.254 39.8854 30.59C39.6054 30.9167 39.2554 31.178 38.8354 31.374C38.4247 31.57 37.9441 31.668 37.3934 31.668ZM43.131 31.5L41.059 24.444H42.235L43.845 30.394H43.635L45.385 24.444H46.715L48.493 30.38L48.269 30.394L49.865 24.444H51.055L48.997 31.5H47.793L45.945 25.284H46.183L44.335 31.5H43.131ZM57.8355 31.668C57.2662 31.668 56.7902 31.57 56.4075 31.374C56.0248 31.1687 55.7402 30.9027 55.5535 30.576C55.3668 30.24 55.2735 29.876 55.2735 29.484C55.2735 29.008 55.3948 28.6067 55.6375 28.28C55.8895 27.944 56.2395 27.692 56.6875 27.524C57.1448 27.3467 57.6815 27.258 58.2975 27.258H60.1595C60.1595 26.8193 60.0895 26.4553 59.9495 26.166C59.8188 25.8673 59.6228 25.6433 59.3615 25.494C59.1095 25.3447 58.7922 25.27 58.4095 25.27C57.9615 25.27 57.5742 25.382 57.2475 25.606C56.9208 25.83 56.7202 26.1613 56.6455 26.6H55.4415C55.4975 26.096 55.6655 25.676 55.9455 25.34C56.2348 24.9947 56.5988 24.7333 57.0375 24.556C57.4762 24.3693 57.9335 24.276 58.4095 24.276C59.0628 24.276 59.6042 24.3973 60.0335 24.64C60.4722 24.8733 60.7988 25.2047 61.0135 25.634C61.2282 26.054 61.3355 26.5533 61.3355 27.132V31.5H60.2855L60.2155 30.254C60.1222 30.45 60.0008 30.6367 59.8515 30.814C59.7115 30.982 59.5435 31.1313 59.3475 31.262C59.1608 31.3833 58.9415 31.4813 58.6895 31.556C58.4375 31.6307 58.1528 31.668 57.8355 31.668ZM58.0175 30.674C58.3442 30.674 58.6382 30.6087 58.8995 30.478C59.1702 30.338 59.3988 30.1513 59.5855 29.918C59.7722 29.6753 59.9122 29.4093 60.0055 29.12C60.1082 28.8307 60.1595 28.5273 60.1595 28.21V28.168H58.3955C57.9382 28.168 57.5695 28.224 57.2895 28.336C57.0095 28.4387 56.8088 28.588 56.6875 28.784C56.5662 28.9707 56.5055 29.1853 56.5055 29.428C56.5055 29.68 56.5615 29.8993 56.6735 30.086C56.7948 30.2727 56.9675 30.4173 57.1915 30.52C57.4248 30.6227 57.7002 30.674 58.0175 30.674ZM62.8747 31.5V21.42H64.0507V31.5H62.8747ZM65.7119 31.5V21.42H66.8879V31.5H65.7119Z" fill="white"/>
<path d="M118 5C130.15 5 140 14.8497 140 27C140 39.1503 130.15 49 118 49H102C89.8497 49 80 39.1503 80 27C80 14.8497 89.8497 5 102 5H118ZM114.816 21.3662L119.726 25.917H99V26.917H119.753L114.811 31.6387L115.502 32.3613L121.346 26.7783L121.729 26.4111L121.34 26.0498L115.496 20.6338L114.816 21.3662Z" fill="white"/>
</svg>
