<svg width="118" height="49" viewBox="0 0 118 49" fill="none" xmlns="http://www.w3.org/2000/svg">
<path d="M19.86 29L16.74 20.6H18.036L20.58 27.752L23.148 20.6H24.42L21.3 29H19.86ZM25.3163 29V22.952H26.5163V29H25.3163ZM25.9283 21.812C25.6963 21.812 25.5043 21.74 25.3523 21.596C25.2083 21.452 25.1363 21.268 25.1363 21.044C25.1363 20.828 25.2083 20.652 25.3523 20.516C25.5043 20.372 25.6963 20.3 25.9283 20.3C26.1523 20.3 26.3403 20.372 26.4923 20.516C26.6443 20.652 26.7203 20.828 26.7203 21.044C26.7203 21.268 26.6443 21.452 26.4923 21.596C26.3403 21.74 26.1523 21.812 25.9283 21.812ZM30.7283 29.144C30.1523 29.144 29.6403 29.012 29.1923 28.748C28.7443 28.484 28.3923 28.116 28.1363 27.644C27.8883 27.172 27.7643 26.624 27.7643 26C27.7643 25.36 27.8883 24.804 28.1363 24.332C28.3923 23.852 28.7443 23.48 29.1923 23.216C29.6403 22.944 30.1603 22.808 30.7523 22.808C31.3443 22.808 31.8523 22.94 32.2763 23.204C32.7003 23.468 33.0283 23.82 33.2603 24.26C33.4923 24.692 33.6083 25.172 33.6083 25.7C33.6083 25.78 33.6043 25.868 33.5963 25.964C33.5963 26.052 33.5923 26.152 33.5843 26.264H28.6403V25.412H32.4083C32.3843 24.908 32.2163 24.516 31.9043 24.236C31.5923 23.948 31.2043 23.804 30.7403 23.804C30.4123 23.804 30.1123 23.88 29.8403 24.032C29.5683 24.176 29.3483 24.392 29.1803 24.68C29.0203 24.96 28.9403 25.316 28.9403 25.748V26.084C28.9403 26.532 29.0203 26.912 29.1803 27.224C29.3483 27.528 29.5683 27.76 29.8403 27.92C30.1123 28.072 30.4083 28.148 30.7283 28.148C31.1123 28.148 31.4283 28.064 31.6763 27.896C31.9243 27.728 32.1083 27.5 32.2283 27.212H33.4283C33.3243 27.58 33.1483 27.912 32.9003 28.208C32.6523 28.496 32.3443 28.724 31.9763 28.892C31.6163 29.06 31.2003 29.144 30.7283 29.144ZM35.6911 29L33.9151 22.952H35.1031L36.4231 27.992L36.1951 27.98L37.6591 22.952H39.0031L40.4671 27.98L40.2391 27.992L41.5471 22.952H42.7591L40.9831 29H39.7471L38.2111 23.756H38.4511L36.9151 29H35.6911ZM48.4364 29.144C47.9404 29.144 47.5284 29.06 47.2004 28.892C46.8724 28.724 46.6284 28.5 46.4684 28.22C46.3084 27.932 46.2284 27.624 46.2284 27.296C46.2284 26.896 46.3324 26.556 46.5404 26.276C46.7484 25.988 47.0444 25.768 47.4284 25.616C47.8124 25.464 48.2724 25.388 48.8084 25.388H50.3804C50.3804 25.036 50.3284 24.744 50.2244 24.512C50.1204 24.28 49.9644 24.108 49.7564 23.996C49.5564 23.876 49.3004 23.816 48.9884 23.816C48.6284 23.816 48.3204 23.904 48.0644 24.08C47.8084 24.248 47.6484 24.5 47.5844 24.836H46.3844C46.4324 24.412 46.5764 24.052 46.8164 23.756C47.0644 23.452 47.3804 23.22 47.7644 23.06C48.1484 22.892 48.5564 22.808 48.9884 22.808C49.5564 22.808 50.0324 22.908 50.4164 23.108C50.8004 23.308 51.0884 23.592 51.2804 23.96C51.4804 24.32 51.5804 24.752 51.5804 25.256V29H50.5364L50.4404 27.98C50.3524 28.14 50.2484 28.292 50.1284 28.436C50.0084 28.58 49.8644 28.704 49.6964 28.808C49.5364 28.912 49.3484 28.992 49.1324 29.048C48.9244 29.112 48.6924 29.144 48.4364 29.144ZM48.6644 28.172C48.9204 28.172 49.1524 28.12 49.3604 28.016C49.5684 27.912 49.7444 27.772 49.8884 27.596C50.0404 27.412 50.1524 27.208 50.2244 26.984C50.3044 26.752 50.3484 26.516 50.3564 26.276V26.24H48.9284C48.5844 26.24 48.3044 26.284 48.0884 26.372C47.8804 26.452 47.7284 26.564 47.6324 26.708C47.5364 26.852 47.4884 27.02 47.4884 27.212C47.4884 27.412 47.5324 27.584 47.6204 27.728C47.7164 27.864 47.8524 27.972 48.0284 28.052C48.2044 28.132 48.4164 28.172 48.6644 28.172ZM52.8721 29V20.36H54.0721V29H52.8721ZM55.4797 29V20.36H56.6797V29H55.4797ZM63.4017 29C63.0257 29 62.6977 28.94 62.4177 28.82C62.1377 28.7 61.9217 28.5 61.7697 28.22C61.6177 27.94 61.5417 27.56 61.5417 27.08V23.972H60.4977V22.952H61.5417L61.6857 21.44H62.7417V22.952H64.4577V23.972H62.7417V27.092C62.7417 27.436 62.8137 27.672 62.9577 27.8C63.1017 27.92 63.3497 27.98 63.7017 27.98H64.3977V29H63.4017ZM68.1369 29.144C67.5689 29.144 67.0569 29.012 66.6009 28.748C66.1529 28.484 65.7969 28.116 65.5329 27.644C65.2769 27.164 65.1489 26.612 65.1489 25.988C65.1489 25.348 65.2809 24.792 65.5449 24.32C65.8089 23.84 66.1689 23.468 66.6249 23.204C67.0809 22.94 67.5929 22.808 68.1609 22.808C68.7369 22.808 69.2489 22.94 69.6969 23.204C70.1449 23.468 70.4969 23.836 70.7529 24.308C71.0169 24.78 71.1489 25.336 71.1489 25.976C71.1489 26.616 71.0169 27.172 70.7529 27.644C70.4969 28.116 70.1409 28.484 69.6849 28.748C69.2289 29.012 68.7129 29.144 68.1369 29.144ZM68.1369 28.112C68.4649 28.112 68.7609 28.032 69.0249 27.872C69.2969 27.712 69.5129 27.476 69.6729 27.164C69.8409 26.844 69.9249 26.448 69.9249 25.976C69.9249 25.504 69.8449 25.112 69.6849 24.8C69.5249 24.48 69.3089 24.24 69.0369 24.08C68.7729 23.92 68.4809 23.84 68.1609 23.84C67.8409 23.84 67.5449 23.92 67.2729 24.08C67.0009 24.24 66.7809 24.48 66.6129 24.8C66.4529 25.112 66.3729 25.504 66.3729 25.976C66.3729 26.448 66.4529 26.844 66.6129 27.164C66.7809 27.476 66.9969 27.712 67.2609 27.872C67.5329 28.032 67.8249 28.112 68.1369 28.112ZM75.0805 29.144C74.5125 29.144 74.0005 29.012 73.5445 28.748C73.0965 28.484 72.7405 28.116 72.4765 27.644C72.2205 27.164 72.0925 26.612 72.0925 25.988C72.0925 25.348 72.2245 24.792 72.4885 24.32C72.7525 23.84 73.1125 23.468 73.5685 23.204C74.0245 22.94 74.5365 22.808 75.1045 22.808C75.6805 22.808 76.1925 22.94 76.6405 23.204C77.0885 23.468 77.4405 23.836 77.6965 24.308C77.9605 24.78 78.0925 25.336 78.0925 25.976C78.0925 26.616 77.9605 27.172 77.6965 27.644C77.4405 28.116 77.0845 28.484 76.6285 28.748C76.1725 29.012 75.6565 29.144 75.0805 29.144ZM75.0805 28.112C75.4085 28.112 75.7045 28.032 75.9685 27.872C76.2405 27.712 76.4565 27.476 76.6165 27.164C76.7845 26.844 76.8685 26.448 76.8685 25.976C76.8685 25.504 76.7885 25.112 76.6285 24.8C76.4685 24.48 76.2525 24.24 75.9805 24.08C75.7165 23.92 75.4245 23.84 75.1045 23.84C74.7845 23.84 74.4885 23.92 74.2165 24.08C73.9445 24.24 73.7245 24.48 73.5565 24.8C73.3965 25.112 73.3165 25.504 73.3165 25.976C73.3165 26.448 73.3965 26.844 73.5565 27.164C73.7245 27.476 73.9405 27.712 74.2045 27.872C74.4765 28.032 74.7685 28.112 75.0805 28.112ZM79.2641 29V20.36H80.4641V29H79.2641ZM85.6758 29L82.8918 25.688L85.4118 22.952H86.8638L83.8638 26.156V25.256L87.1878 29H85.6758ZM81.8718 29V20.36H83.0718V29H81.8718ZM88.0439 29V22.952H89.2439V29H88.0439ZM88.6559 21.812C88.4239 21.812 88.2319 21.74 88.0799 21.596C87.9359 21.452 87.8639 21.268 87.8639 21.044C87.8639 20.828 87.9359 20.652 88.0799 20.516C88.2319 20.372 88.4239 20.3 88.6559 20.3C88.8799 20.3 89.0679 20.372 89.2199 20.516C89.3719 20.652 89.4479 20.828 89.4479 21.044C89.4479 21.268 89.3719 21.452 89.2199 21.596C89.0679 21.74 88.8799 21.812 88.6559 21.812ZM93.2039 29C92.8279 29 92.4999 28.94 92.2199 28.82C91.9399 28.7 91.7239 28.5 91.5719 28.22C91.4199 27.94 91.3439 27.56 91.3439 27.08V23.972H90.2999V22.952H91.3439L91.4879 21.44H92.5439V22.952H94.2599V23.972H92.5439V27.092C92.5439 27.436 92.6159 27.672 92.7599 27.8C92.9039 27.92 93.1519 27.98 93.5039 27.98H94.1999V29H93.2039ZM97.6832 29.144C97.1712 29.144 96.7232 29.06 96.3392 28.892C95.9552 28.724 95.6512 28.488 95.4272 28.184C95.2032 27.88 95.0672 27.524 95.0192 27.116H96.2432C96.2832 27.308 96.3592 27.484 96.4712 27.644C96.5912 27.804 96.7512 27.932 96.9512 28.028C97.1592 28.124 97.4032 28.172 97.6832 28.172C97.9472 28.172 98.1632 28.136 98.3312 28.064C98.5072 27.984 98.6352 27.88 98.7152 27.752C98.7952 27.616 98.8352 27.472 98.8352 27.32C98.8352 27.096 98.7792 26.928 98.6672 26.816C98.5632 26.696 98.4032 26.604 98.1872 26.54C97.9792 26.468 97.7272 26.404 97.4312 26.348C97.1512 26.3 96.8792 26.236 96.6152 26.156C96.3592 26.068 96.1272 25.96 95.9192 25.832C95.7192 25.704 95.5592 25.544 95.4392 25.352C95.3192 25.152 95.2592 24.908 95.2592 24.62C95.2592 24.276 95.3512 23.968 95.5352 23.696C95.7192 23.416 95.9792 23.2 96.3152 23.048C96.6592 22.888 97.0632 22.808 97.5272 22.808C98.1992 22.808 98.7392 22.968 99.1472 23.288C99.5552 23.608 99.7952 24.06 99.8672 24.644H98.7032C98.6712 24.372 98.5512 24.164 98.3432 24.02C98.1352 23.868 97.8592 23.792 97.5152 23.792C97.1712 23.792 96.9072 23.86 96.7232 23.996C96.5392 24.132 96.4472 24.312 96.4472 24.536C96.4472 24.68 96.4992 24.808 96.6032 24.92C96.7072 25.032 96.8592 25.128 97.0592 25.208C97.2672 25.28 97.5192 25.348 97.8152 25.412C98.2392 25.492 98.6192 25.592 98.9552 25.712C99.2912 25.832 99.5592 26.008 99.7592 26.24C99.9592 26.472 100.059 26.804 100.059 27.236C100.067 27.612 99.9712 27.944 99.7712 28.232C99.5792 28.52 99.3032 28.744 98.9432 28.904C98.5912 29.064 98.1712 29.144 97.6832 29.144Z" fill="white"/>
</svg>
