<svg width="177" height="58" viewBox="0 0 177 58" fill="none" xmlns="http://www.w3.org/2000/svg">
<rect x="1" y="1" width="175" height="56" rx="28" stroke="white" stroke-width="2"/>
<path d="M33.6391 34L29.4791 22.8H31.2071L34.5991 32.336L38.0231 22.8H39.7191L35.5591 34H33.6391ZM40.9141 34V25.936H42.5141V34H40.9141ZM41.7301 24.416C41.4207 24.416 41.1647 24.32 40.9621 24.128C40.7701 23.936 40.6741 23.6907 40.6741 23.392C40.6741 23.104 40.7701 22.8693 40.9621 22.688C41.1647 22.496 41.4207 22.4 41.7301 22.4C42.0287 22.4 42.2794 22.496 42.4821 22.688C42.6847 22.8693 42.7861 23.104 42.7861 23.392C42.7861 23.6907 42.6847 23.936 42.4821 24.128C42.2794 24.32 42.0287 24.416 41.7301 24.416ZM48.1301 34.192C47.3621 34.192 46.6794 34.016 46.0821 33.664C45.4847 33.312 45.0154 32.8213 44.6741 32.192C44.3434 31.5627 44.1781 30.832 44.1781 30C44.1781 29.1467 44.3434 28.4053 44.6741 27.776C45.0154 27.136 45.4847 26.64 46.0821 26.288C46.6794 25.9253 47.3727 25.744 48.1621 25.744C48.9514 25.744 49.6287 25.92 50.1941 26.272C50.7594 26.624 51.1967 27.0933 51.5061 27.68C51.8154 28.256 51.9701 28.896 51.9701 29.6C51.9701 29.7067 51.9647 29.824 51.9541 29.952C51.9541 30.0693 51.9487 30.2027 51.9381 30.352H45.3461V29.216H50.3701C50.3381 28.544 50.1141 28.0213 49.6981 27.648C49.2821 27.264 48.7647 27.072 48.1461 27.072C47.7087 27.072 47.3087 27.1733 46.9461 27.376C46.5834 27.568 46.2901 27.856 46.0661 28.24C45.8527 28.6133 45.7461 29.088 45.7461 29.664V30.112C45.7461 30.7093 45.8527 31.216 46.0661 31.632C46.2901 32.0373 46.5834 32.3467 46.9461 32.56C47.3087 32.7627 47.7034 32.864 48.1301 32.864C48.6421 32.864 49.0634 32.752 49.3941 32.528C49.7247 32.304 49.9701 32 50.1301 31.616H51.7301C51.5914 32.1067 51.3567 32.5493 51.0261 32.944C50.6954 33.328 50.2847 33.632 49.7941 33.856C49.3141 34.08 48.7594 34.192 48.1301 34.192ZM54.7472 34L52.3792 25.936H53.9632L55.7232 32.656L55.4192 32.64L57.3712 25.936H59.1632L61.1152 32.64L60.8112 32.656L62.5552 25.936H64.1712L61.8032 34H60.1552L58.1072 27.008H58.4272L56.3792 34H54.7472ZM71.7409 34.192C71.0796 34.192 70.5303 34.08 70.0929 33.856C69.6556 33.632 69.3303 33.3333 69.1169 32.96C68.9036 32.576 68.7969 32.1653 68.7969 31.728C68.7969 31.1947 68.9356 30.7413 69.2129 30.368C69.4903 29.984 69.8849 29.6907 70.3969 29.488C70.9089 29.2853 71.5223 29.184 72.2369 29.184H74.3329C74.3329 28.7147 74.2636 28.3253 74.1249 28.016C73.9863 27.7067 73.7783 27.4773 73.5009 27.328C73.2343 27.168 72.8929 27.088 72.4769 27.088C71.9969 27.088 71.5863 27.2053 71.2449 27.44C70.9036 27.664 70.6903 28 70.6049 28.448H69.0049C69.0689 27.8827 69.2609 27.4027 69.5809 27.008C69.9116 26.6027 70.3329 26.2933 70.8449 26.08C71.3569 25.856 71.9009 25.744 72.4769 25.744C73.2343 25.744 73.8689 25.8773 74.3809 26.144C74.8929 26.4107 75.2769 26.7893 75.5329 27.28C75.7996 27.76 75.9329 28.336 75.9329 29.008V34H74.5409L74.4129 32.64C74.2956 32.8533 74.1569 33.056 73.9969 33.248C73.8369 33.44 73.6449 33.6053 73.4209 33.744C73.2076 33.8827 72.9569 33.9893 72.6689 34.064C72.3916 34.1493 72.0823 34.192 71.7409 34.192ZM72.0449 32.896C72.3863 32.896 72.6956 32.8267 72.9729 32.688C73.2503 32.5493 73.4849 32.3627 73.6769 32.128C73.8796 31.8827 74.0289 31.6107 74.1249 31.312C74.2316 31.0027 74.2903 30.688 74.3009 30.368V30.32H72.3969C71.9383 30.32 71.5649 30.3787 71.2769 30.496C70.9996 30.6027 70.7969 30.752 70.6689 30.944C70.5409 31.136 70.4769 31.36 70.4769 31.616C70.4769 31.8827 70.5356 32.112 70.6529 32.304C70.7809 32.4853 70.9623 32.6293 71.1969 32.736C71.4316 32.8427 71.7143 32.896 72.0449 32.896ZM77.6552 34V22.48H79.2552V34H77.6552ZM81.1321 34V22.48H82.7321V34H81.1321Z" fill="white"/>
<path d="M148 5C161.255 5 172 15.7452 172 29C172 42.2548 161.255 53 148 53H127C113.745 53 103 42.2548 103 29C103 15.7452 113.745 5 127 5H148ZM142.816 23.3662L147.726 27.917H127V28.917H147.753L142.811 33.6387L143.502 34.3613L149.346 28.7783L149.729 28.4111L149.34 28.0498L143.496 22.6338L142.816 23.3662Z" fill="white"/>
</svg>
