<svg width="320" height="178" viewBox="0 0 320 178" fill="none" xmlns="http://www.w3.org/2000/svg">
<g clip-path="url(#clip0_2087_45756)">
<path d="M256.513 3.29554L258.997 5.77784L256.513 8.26012C256.07 8.70291 256.07 9.42748 256.513 9.87027L257.453 10.8095C257.896 11.2523 258.621 11.2523 259.064 10.8095L261.549 8.32721L264.033 10.8095C264.476 11.2523 265.201 11.2523 265.644 10.8095L266.584 9.87027C267.027 9.42748 267.027 8.70291 266.584 8.26012L264.1 5.77784L266.584 3.29554C267.027 2.85275 267.027 2.1282 266.584 1.68541L265.644 0.74617C265.201 0.303383 264.476 0.303383 264.033 0.74617L261.549 3.22845L259.064 0.746169C258.621 0.303382 257.896 0.303382 257.453 0.746169L256.513 1.68541C256.07 2.1282 256.07 2.85275 256.513 3.29554Z" fill="#38F1FF" fill-opacity="0.2"/>
<path d="M256.513 3.29554L258.997 5.77784L256.513 8.26012C256.07 8.70291 256.07 9.42748 256.513 9.87027L257.453 10.8095C257.896 11.2523 258.621 11.2523 259.064 10.8095L261.549 8.32721L264.033 10.8095C264.476 11.2523 265.201 11.2523 265.644 10.8095L266.584 9.87027C267.027 9.42748 267.027 8.70291 266.584 8.26012L264.1 5.77784L266.584 3.29554C267.027 2.85275 267.027 2.1282 266.584 1.68541L265.644 0.74617C265.201 0.303383 264.476 0.303383 264.033 0.74617L261.549 3.22845L259.064 0.746169C258.621 0.303382 257.896 0.303382 257.453 0.746169L256.513 1.68541C256.07 2.1282 256.07 2.85275 256.513 3.29554Z" fill="black" fill-opacity="0.07"/>
<ellipse cx="303.178" cy="6.09337" rx="6.96812" ry="6.96327" transform="rotate(-180 303.178 6.09337)" fill="#38F1FF" fill-opacity="0.2"/>
<ellipse cx="303.178" cy="6.09337" rx="6.96812" ry="6.96327" transform="rotate(-180 303.178 6.09337)" fill="black" fill-opacity="0.07"/>
<ellipse cx="247.433" cy="6.09337" rx="6.96812" ry="6.96327" transform="rotate(-180 247.433 6.09337)" fill="#38F1FF" fill-opacity="0.2"/>
<ellipse cx="247.433" cy="6.09337" rx="6.96812" ry="6.96327" transform="rotate(-180 247.433 6.09337)" fill="black" fill-opacity="0.07"/>
<ellipse cx="273.91" cy="149.921" rx="6.96812" ry="6.96327" transform="rotate(-180 273.91 149.921)" fill="#38F1FF" fill-opacity="0.2"/>
<ellipse cx="273.91" cy="149.921" rx="6.96812" ry="6.96327" transform="rotate(-180 273.91 149.921)" fill="black" fill-opacity="0.07"/>
<ellipse cx="106.968" cy="66.9635" rx="6.96812" ry="6.96327" transform="rotate(-180 106.968 66.9635)" fill="#38F1FF" fill-opacity="0.2"/>
<ellipse cx="106.968" cy="66.9635" rx="6.96812" ry="6.96327" transform="rotate(-180 106.968 66.9635)" fill="black" fill-opacity="0.07"/>
<ellipse cx="149.5" cy="34.499" rx="6.5" ry="6.5" transform="rotate(-180 149.5 34.499)" fill="url(#paint0_radial_2087_45756)"/>
<ellipse cx="149.5" cy="34.499" rx="6.5" ry="6.5" transform="rotate(-180 149.5 34.499)" fill="black" fill-opacity="0.07"/>
<ellipse cx="162.715" cy="6.09337" rx="6.60137" ry="6.96327" transform="rotate(-180 162.715 6.09337)" fill="#38F1FF" fill-opacity="0.1"/>
<ellipse cx="162.715" cy="6.09337" rx="6.60137" ry="6.96327" transform="rotate(-180 162.715 6.09337)" fill="black" fill-opacity="0.07"/>
<ellipse cx="218.827" cy="6.09337" rx="6.96812" ry="6.96327" transform="rotate(-180 218.827 6.09337)" fill="#93CD4D"/>
<ellipse cx="218.827" cy="6.09337" rx="6.96812" ry="6.96327" transform="rotate(-180 218.827 6.09337)" fill="black" fill-opacity="0.07"/>
<circle cx="162.914" cy="20.5961" r="6.65337" transform="rotate(-180 162.914 20.5961)" fill="#93CD4D"/>
<circle cx="162.914" cy="20.5961" r="6.65337" transform="rotate(-180 162.914 20.5961)" fill="#B8D346"/>
<ellipse cx="40.9679" cy="6.09337" rx="6.96812" ry="6.96327" transform="rotate(-180 40.9679 6.09337)" fill="#38F1FF" fill-opacity="0.1"/>
<ellipse cx="40.9679" cy="6.09337" rx="6.96812" ry="6.96327" transform="rotate(-180 40.9679 6.09337)" fill="black" fill-opacity="0.07"/>
<ellipse cx="54.904" cy="52.6637" rx="6.96812" ry="6.96327" transform="rotate(-180 54.904 52.6637)" fill="#38F1FF" fill-opacity="0.2"/>
<ellipse cx="54.904" cy="52.6637" rx="6.96812" ry="6.96327" transform="rotate(-180 54.904 52.6637)" fill="black" fill-opacity="0.07"/>
<ellipse cx="18.9679" cy="123.963" rx="6.96812" ry="6.96327" transform="rotate(-180 18.9679 123.963)" fill="#38F1FF" fill-opacity="0.2"/>
<ellipse cx="18.9679" cy="123.963" rx="6.96812" ry="6.96327" transform="rotate(-180 18.9679 123.963)" fill="black" fill-opacity="0.07"/>
<ellipse cx="93.0353" cy="6.09337" rx="6.60137" ry="6.96327" transform="rotate(-180 93.0353 6.09337)" fill="#38F1FF" fill-opacity="0.1"/>
<ellipse cx="93.0353" cy="6.09337" rx="6.60137" ry="6.96327" transform="rotate(-180 93.0353 6.09337)" fill="black" fill-opacity="0.07"/>
<ellipse cx="55.2716" cy="6.09337" rx="7.33486" ry="6.96327" transform="rotate(-180 55.2716 6.09337)" fill="#38F1FF" fill-opacity="0.1"/>
<ellipse cx="55.2716" cy="6.09337" rx="7.33486" ry="6.96327" transform="rotate(-180 55.2716 6.09337)" fill="black" fill-opacity="0.07"/>
<ellipse cx="40.9679" cy="21.1471" rx="6.96812" ry="6.96327" transform="rotate(-180 40.9679 21.1471)" fill="#93CD4D"/>
<ellipse cx="40.9679" cy="21.1471" rx="6.96812" ry="6.96327" transform="rotate(-180 40.9679 21.1471)" fill="black" fill-opacity="0.07"/>
<path d="M180.183 4.1441L177.92 6.405L180.183 8.66589C180.586 9.06842 180.586 9.7259 180.183 10.1351L179.33 10.9872C178.927 11.3897 178.269 11.3897 177.86 10.9872L175.597 8.72627L173.335 10.9872C172.932 11.3897 172.274 11.3897 171.865 10.9872L171.012 10.1351C170.609 9.73261 170.609 9.07513 171.012 8.66589L173.274 6.405L171.012 4.1441C170.609 3.74157 170.609 3.08409 171.012 2.67485L171.865 1.82281C172.267 1.42028 172.925 1.42028 173.335 1.82281L175.597 4.08372L177.86 1.82281C178.263 1.42028 178.921 1.42028 179.33 1.82281L180.183 2.67485C180.586 3.07739 180.586 3.73486 180.183 4.1441Z" fill="#38F1FF" fill-opacity="0.2"/>
<path d="M180.183 4.1441L177.92 6.405L180.183 8.66589C180.586 9.06842 180.586 9.7259 180.183 10.1351L179.33 10.9872C178.927 11.3897 178.269 11.3897 177.86 10.9872L175.597 8.72627L173.335 10.9872C172.932 11.3897 172.274 11.3897 171.865 10.9872L171.012 10.1351C170.609 9.73261 170.609 9.07513 171.012 8.66589L173.274 6.405L171.012 4.1441C170.609 3.74157 170.609 3.08409 171.012 2.67485L171.865 1.82281C172.267 1.42028 172.925 1.42028 173.335 1.82281L175.597 4.08372L177.86 1.82281C178.263 1.42028 178.921 1.42028 179.33 1.82281L180.183 2.67485C180.586 3.07739 180.586 3.73486 180.183 4.1441Z" fill="black" fill-opacity="0.07"/>
</g>
<defs>
<radialGradient id="paint0_radial_2087_45756" cx="0" cy="0" r="1" gradientTransform="matrix(-5.30383 34.0508 -15.5676 -13.7574 154.804 14.381)" gradientUnits="userSpaceOnUse">
<stop offset="0.350584" stop-color="#0FB8C5"/>
<stop offset="1" stop-color="#93CD4D"/>
</radialGradient>
<clipPath id="clip0_2087_45756">
<path d="M0 17C0 7.61116 7.61116 0 17 0H303C312.389 0 320 7.61116 320 17V178H0V17Z" fill="white"/>
</clipPath>
</defs>
</svg>
