<svg width="320" height="104" viewBox="0 0 320 104" fill="none" xmlns="http://www.w3.org/2000/svg">
<g clip-path="url(#clip0_2087_45927)">
<path d="M63.4866 3.29554L61.0026 5.77784L63.4866 8.26012C63.9297 8.70291 63.9297 9.42748 63.4866 9.87027L62.5467 10.8095C62.1036 11.2523 61.3786 11.2523 60.9355 10.8095L58.4515 8.32721L55.9675 10.8095C55.5244 11.2523 54.7993 11.2523 54.3562 10.8095L53.4163 9.87027C52.9732 9.42748 52.9732 8.70291 53.4163 8.26012L55.9003 5.77784L53.4163 3.29554C52.9732 2.85275 52.9732 2.1282 53.4163 1.68541L54.3562 0.74617C54.7993 0.303383 55.5244 0.303383 55.9674 0.74617L58.4515 3.22845L60.9355 0.746169C61.3786 0.303382 62.1036 0.303382 62.5467 0.746169L63.4866 1.68541C63.9297 2.1282 63.9297 2.85275 63.4866 3.29554Z" fill="#38F1FF" fill-opacity="0.2"/>
<path d="M63.4866 3.29554L61.0026 5.77784L63.4866 8.26012C63.9297 8.70291 63.9297 9.42748 63.4866 9.87027L62.5467 10.8095C62.1036 11.2523 61.3786 11.2523 60.9355 10.8095L58.4515 8.32721L55.9675 10.8095C55.5244 11.2523 54.7993 11.2523 54.3562 10.8095L53.4163 9.87027C52.9732 9.42748 52.9732 8.70291 53.4163 8.26012L55.9003 5.77784L53.4163 3.29554C52.9732 2.85275 52.9732 2.1282 53.4163 1.68541L54.3562 0.74617C54.7993 0.303383 55.5244 0.303383 55.9674 0.74617L58.4515 3.22845L60.9355 0.746169C61.3786 0.303382 62.1036 0.303382 62.5467 0.746169L63.4866 1.68541C63.9297 2.1282 63.9297 2.85275 63.4866 3.29554Z" fill="black" fill-opacity="0.07"/>
<ellipse cx="6.96812" cy="6.96327" rx="6.96812" ry="6.96327" transform="matrix(1 -8.74228e-08 -8.74228e-08 -1 9.85352 13.0566)" fill="#38F1FF" fill-opacity="0.2"/>
<ellipse cx="6.96812" cy="6.96327" rx="6.96812" ry="6.96327" transform="matrix(1 -8.74228e-08 -8.74228e-08 -1 9.85352 13.0566)" fill="black" fill-opacity="0.07"/>
<ellipse cx="6.96812" cy="6.96327" rx="6.96812" ry="6.96327" transform="matrix(1 -8.74228e-08 -8.74228e-08 -1 65.5986 13.0566)" fill="#38F1FF" fill-opacity="0.2"/>
<ellipse cx="6.96812" cy="6.96327" rx="6.96812" ry="6.96327" transform="matrix(1 -8.74228e-08 -8.74228e-08 -1 65.5986 13.0566)" fill="black" fill-opacity="0.07"/>
<ellipse cx="6.96812" cy="6.96327" rx="6.96812" ry="6.96327" transform="matrix(1 -8.74228e-08 -8.74228e-08 -1 80 13.7969)" fill="#93CD4D"/>
<ellipse cx="6.96812" cy="6.96327" rx="6.96812" ry="6.96327" transform="matrix(1 -8.74228e-08 -8.74228e-08 -1 80 13.7969)" fill="black" fill-opacity="0.07"/>
<ellipse cx="6.96812" cy="6.96327" rx="6.96812" ry="6.96327" transform="matrix(1 -8.74228e-08 -8.74228e-08 -1 94 27.9268)" fill="#93CD4D"/>
<ellipse cx="6.96812" cy="6.96327" rx="6.96812" ry="6.96327" transform="matrix(1 -8.74228e-08 -8.74228e-08 -1 94 27.9268)" fill="black" fill-opacity="0.07"/>
<ellipse cx="6.96812" cy="6.96327" rx="6.96812" ry="6.96327" transform="matrix(1 -8.74228e-08 -8.74228e-08 -1 161 13.9268)" fill="#93CD4D"/>
<ellipse cx="6.96812" cy="6.96327" rx="6.96812" ry="6.96327" transform="matrix(1 -8.74228e-08 -8.74228e-08 -1 161 13.9268)" fill="black" fill-opacity="0.07"/>
<ellipse cx="6.96812" cy="6.96327" rx="6.96812" ry="6.96327" transform="matrix(1 -8.74228e-08 -8.74228e-08 -1 20.1221 80.8838)" fill="#38F1FF" fill-opacity="0.2"/>
<ellipse cx="6.96812" cy="6.96327" rx="6.96812" ry="6.96327" transform="matrix(1 -8.74228e-08 -8.74228e-08 -1 20.1221 80.8838)" fill="black" fill-opacity="0.07"/>
<ellipse cx="6.96812" cy="6.96327" rx="6.96812" ry="6.96327" transform="matrix(1 -8.74228e-08 -8.74228e-08 -1 45.4141 81.0039)" fill="#38F1FF" fill-opacity="0.2"/>
<ellipse cx="6.96812" cy="6.96327" rx="6.96812" ry="6.96327" transform="matrix(1 -8.74228e-08 -8.74228e-08 -1 45.4141 81.0039)" fill="black" fill-opacity="0.07"/>
<ellipse cx="6.96812" cy="6.96327" rx="6.96812" ry="6.96327" transform="matrix(1 -8.74228e-08 -8.74228e-08 -1 94.2051 13.9268)" fill="url(#paint0_radial_2087_45927)"/>
<ellipse cx="6.96812" cy="6.96327" rx="6.96812" ry="6.96327" transform="matrix(1 -8.74228e-08 -8.74228e-08 -1 94.2051 13.9268)" fill="black" fill-opacity="0.07"/>
<ellipse cx="6.96812" cy="7.32976" rx="6.96812" ry="7.32976" transform="matrix(1 -8.74228e-08 -8.74228e-08 -1 108.143 60.3604)" fill="#38F1FF" fill-opacity="0.2"/>
<ellipse cx="6.96812" cy="7.32976" rx="6.96812" ry="7.32976" transform="matrix(1 -8.74228e-08 -8.74228e-08 -1 108.143 60.3604)" fill="black" fill-opacity="0.07"/>
<ellipse cx="6.96812" cy="6.96327" rx="6.96812" ry="6.96327" transform="matrix(1 -8.74228e-08 -8.74228e-08 -1 292 27.9268)" fill="#38F1FF" fill-opacity="0.1"/>
<ellipse cx="6.96812" cy="6.96327" rx="6.96812" ry="6.96327" transform="matrix(1 -8.74228e-08 -8.74228e-08 -1 292 27.9268)" fill="black" fill-opacity="0.07"/>
<ellipse cx="6.96812" cy="6.96327" rx="6.96812" ry="6.96327" transform="matrix(1 -8.74228e-08 -8.74228e-08 -1 258.128 59.627)" fill="#38F1FF" fill-opacity="0.2"/>
<ellipse cx="6.96812" cy="6.96327" rx="6.96812" ry="6.96327" transform="matrix(1 -8.74228e-08 -8.74228e-08 -1 258.128 59.627)" fill="black" fill-opacity="0.07"/>
<ellipse cx="7" cy="7" rx="7" ry="7" transform="matrix(1 -8.74228e-08 -8.74228e-08 -1 146 14)" fill="#38F1FF" fill-opacity="0.1"/>
<ellipse cx="7" cy="7" rx="7" ry="7" transform="matrix(1 -8.74228e-08 -8.74228e-08 -1 146 14)" fill="black" fill-opacity="0.07"/>
<ellipse cx="7.33486" cy="6.96327" rx="7.33486" ry="6.96327" transform="matrix(1 -8.74228e-08 -8.74228e-08 -1 291.394 13.0566)" fill="#38F1FF" fill-opacity="0.1"/>
<ellipse cx="7.33486" cy="6.96327" rx="7.33486" ry="6.96327" transform="matrix(1 -8.74228e-08 -8.74228e-08 -1 291.394 13.0566)" fill="black" fill-opacity="0.07"/>
<ellipse cx="6.96812" cy="6.96327" rx="6.96812" ry="6.96327" transform="matrix(1 -8.74228e-08 -8.74228e-08 -1 306.064 28.1104)" fill="#93CD4D"/>
<ellipse cx="6.96812" cy="6.96327" rx="6.96812" ry="6.96327" transform="matrix(1 -8.74228e-08 -8.74228e-08 -1 306.064 28.1104)" fill="black" fill-opacity="0.07"/>
<path d="M47.8172 97.1441L50.0797 99.405L47.8172 101.666C47.4144 102.068 47.4144 102.726 47.8172 103.135L48.6699 103.987C49.0727 104.39 49.7306 104.39 50.1401 103.987L52.4026 101.726L54.6651 103.987C55.0679 104.39 55.7258 104.39 56.1353 103.987L56.988 103.135C57.3908 102.733 57.3908 102.075 56.988 101.666L54.7255 99.405L56.988 97.1441C57.3908 96.7416 57.3908 96.0841 56.988 95.6749L56.1353 94.8228C55.7325 94.4203 55.0746 94.4203 54.6651 94.8228L52.4026 97.0837L50.1401 94.8228C49.7373 94.4203 49.0794 94.4203 48.6699 94.8228L47.8172 95.6749C47.4144 96.0774 47.4144 96.7349 47.8172 97.1441Z" fill="#38F1FF" fill-opacity="0.2"/>
<path d="M47.8172 97.1441L50.0797 99.405L47.8172 101.666C47.4144 102.068 47.4144 102.726 47.8172 103.135L48.6699 103.987C49.0727 104.39 49.7306 104.39 50.1401 103.987L52.4026 101.726L54.6651 103.987C55.0679 104.39 55.7258 104.39 56.1353 103.987L56.988 103.135C57.3908 102.733 57.3908 102.075 56.988 101.666L54.7255 99.405L56.988 97.1441C57.3908 96.7416 57.3908 96.0841 56.988 95.6749L56.1353 94.8228C55.7325 94.4203 55.0746 94.4203 54.6651 94.8228L52.4026 97.0837L50.1401 94.8228C49.7373 94.4203 49.0794 94.4203 48.6699 94.8228L47.8172 95.6749C47.4144 96.0774 47.4144 96.7349 47.8172 97.1441Z" fill="black" fill-opacity="0.07"/>
</g>
<defs>
<radialGradient id="paint0_radial_2087_45927" cx="0" cy="0" r="1" gradientTransform="matrix(-5.6858 36.4777 -16.6887 -14.738 12.6539 -14.5886)" gradientUnits="userSpaceOnUse">
<stop offset="0.350584" stop-color="#0FB8C5"/>
<stop offset="1" stop-color="#93CD4D"/>
</radialGradient>
<clipPath id="clip0_2087_45927">
<path d="M320 17C320 7.61116 312.389 0 303 0H17C7.61118 0 0 7.61116 0 17V104H320V17Z" fill="white"/>
</clipPath>
</defs>
</svg>
